<svg xmlns="http://www.w3.org/2000/svg" width="100" height="103" viewBox="0 0 100 103"><g transform="translate(-694 -354)"><circle cx="49" cy="49" r="49" transform="translate(694 354)" fill="#fff"/><g transform="translate(704.763 367.913)"><circle cx="44.5" cy="44.5" r="44.5" transform="translate(0.237 0.087)" fill="#fff" opacity="0"/><path d="M132.843,73.744a3.953,3.953,0,0,0-4.108.394,3.062,3.062,0,0,1-4.218-.192c-.339-.5-.759.3-.759.3l-3.216,1.62-.953,1.082L118.1,78.682l-1.412.333-1.638-.654L113.68,78l-.438-.675V76.262l-.809.121L112,76.17l.483-1.208.746-1.008.559-1.019.163-.788-.276-1.034.58-1.158.47-.764.675-.391s.36-2.25,3.525,1.822l.181.158.483.192.788.788,1.139-.213,1.145-.349,1.313-.641a6.677,6.677,0,0,1,.932-.525,5.753,5.753,0,0,0,.42-.683l.3-.449.809.01.979-.047,1.7-2.284,1.355-1.672,1.215-1.717,1.16-1.223,1.99-2.218,1.73-1.412.625-.874.375-.788.559-.73.814-.236.68.189.654.872.092.814,2.452,3.166.945.966.488.462.9-.024,3.281-.142.743,2.252-.373,1.4-.956,1.457-.344.735-.861.094-3.854-.6-1.423-2.625,1.609-.788-.186-.491L139.038,59l-.389.142-7.487,9.852,8.03.446,7.458,9.713-7.106,4.785-.9.118-.788.142-1.444-.9.047-.919-4.292-4.746-1.793.69-1.331-.69.186-1.391Z" transform="translate(-82.599 -41.086)" fill="#fff" fill-rule="evenodd"/><path d="M81.94,183.631c21.526-15.065,43.432-29.556,65.025-44.521l.163.121c-.089,1.226-.163,2.454-.263,3.675a.677.677,0,0,1-.3.415c-3.693,2.525-7.4,5.03-11.094,7.552-4.213,2.874-8.4,5.775-12.627,8.639-4.484,3.053-8.991,6.09-13.482,9.138-4.6,3.124-9.2,6.24-13.784,9.39-3.2,2.2-6.371,4.449-9.563,6.665a.787.787,0,0,1-.591.11c-1.145-.315-2.284-.669-3.428-1.008A.819.819,0,0,1,81.94,183.631Z" transform="translate(-60.43 -102.593)" fill="#fff" fill-rule="evenodd"/><path d="M72.435,174.944l-1.575-.614,67.989-46.49a1.673,1.673,0,0,1-.772,2.258q-7.726,5.25-15.441,10.487-6.429,4.36-12.834,8.734-5.883,4.011-11.766,8.035L80.158,169.565q-3.573,2.441-7.143,4.9A6.715,6.715,0,0,0,72.435,174.944Z" transform="translate(-52.259 -94.281)" fill="#fff" fill-rule="evenodd"/><path d="M26.072,149.322,25,149.944c.15-.362.239-.562.323-.767l-.095-.11c-.142.06-.347.087-.423.2a4.412,4.412,0,0,1-1.935,1.218,5.906,5.906,0,0,1-.809.339,1.093,1.093,0,0,1-.386-.026c.055-.126.074-.3.165-.365a6.826,6.826,0,0,1,1-.588,4.793,4.793,0,0,0,2.237-2.118c.431-.767.735-.843,1.42-.3.244.2.5.383.732.585a1.6,1.6,0,0,0,2.318.095,20.538,20.538,0,0,1,6.733-3.279,33.506,33.506,0,0,0,4.476-2.084c1.683-.814,3.36-1.638,5.04-2.454a1.685,1.685,0,0,1,.3-.079,2.252,2.252,0,0,1-1.349,1.559c-1.181.6-2.363,1.168-3.539,1.79a1.6,1.6,0,0,0-.633.7,2.04,2.04,0,0,1-2.223,1.124,2.384,2.384,0,0,0-1.313.2c-2.552,1.218-5.085,2.473-7.613,3.743a2.055,2.055,0,0,0-.69.717c-.239.349-.389.753-.609,1.113a.581.581,0,0,1-.822.3c-.407-.179-.788-.452-.693-.866C26.765,149.957,26.355,149.7,26.072,149.322Z" transform="translate(-15.989 -103.404)" fill="#fff" fill-rule="evenodd"/><path d="M30.51,181.35c.071.176.121.3.173.431-1.481.971-2.675,1.36-3.174.971C28.51,182.285,29.476,181.836,30.51,181.35Z" transform="translate(-20.288 -133.745)" fill="#fff" fill-rule="evenodd"/><path d="M25.617,178.279c-.478.262-.945.557-1.431.809-.368.2-.756.354-1.134.538a1.075,1.075,0,0,1-1.313-.032l3.775-1.5C25.549,178.156,25.586,178.216,25.617,178.279Z" transform="translate(-16.033 -131.34)" fill="#fff" fill-rule="evenodd"/><path d="M130.955,134.7a7.7,7.7,0,0,1-.809.3c-.063.016-.234-.126-.247-.213a.333.333,0,0,1,.16-.289,7.122,7.122,0,0,1,.824-.074C130.905,134.519,130.932,134.611,130.955,134.7Z" transform="translate(-95.8 -99.141)" fill="#fff" fill-rule="evenodd"/><path d="M36.947,184.226l-1.664.837c-.016-.039-.039-.071-.053-.11l1.628-.9C36.886,184.108,36.918,184.165,36.947,184.226Z" transform="translate(-25.982 -135.736)" fill="#fff" fill-rule="evenodd"/><path d="M144.1,88.5c-.362.236-.719.486-1.092.709a14.732,14.732,0,0,0-3.489,2.853,8.923,8.923,0,0,1-3.192,2.1l-.693.3a2.12,2.12,0,0,1,1.313,2.835c-.507.877-1.46.94-2.2.047a5.191,5.191,0,0,1,.648-.215c.42-.076.916,0,1.037-.6.11-.551-.121-.948-.809-1.313-.018.171-.1.368-.037.436.21.231.165.465-.071.525a.751.751,0,0,1-.635-.223c-.3-.407-.1-.958.493-1.391-.667.037-1.189-.076-1.265-.853a4.58,4.58,0,0,1,.688-.113,6.071,6.071,0,0,0,3.52-1.394c.5-.373.84-.984,1.334-1.381.869-.7,1.788-1.336,2.714-1.95a6.126,6.126,0,0,1,1.278-.546,1.207,1.207,0,0,1,.441.021C144.088,88.4,144.093,88.452,144.1,88.5Z" transform="translate(-98.905 -65.134)" fill-rule="evenodd"/><path d="M123.021,76.219a10.278,10.278,0,0,1-1,.893c-.352.244-.879-.263-.824-.837a5.376,5.376,0,0,1,.333-1.509,7.106,7.106,0,0,1,4.5-4.237,25.164,25.164,0,0,0,5.544-2.888,6.3,6.3,0,0,1-1.05,1.124,29.632,29.632,0,0,1-2.6,1.533c-1.26.677-2.58,1.25-3.8,1.992a3.71,3.71,0,0,0-1.646,2.819c-.058.4-.066.788.525.919C123.01,76.09,123.013,76.153,123.021,76.219Z" transform="translate(-89.38 -49.884)" fill-rule="evenodd"/><path d="M141.956,78.067a2.769,2.769,0,0,1-.262.525,10,10,0,0,1-2.83,2.423,5.432,5.432,0,0,0-1.352,1.255c-.7.872-1.139,1.945-2.142,2.565a4.5,4.5,0,0,1-3.413.693,3.47,3.47,0,0,1-.491-.184c-.013-.055-.024-.11-.037-.163a4.121,4.121,0,0,1,.851-.336,6.235,6.235,0,0,0,4.851-2.935,3.641,3.641,0,0,1,1.52-1.313,8.166,8.166,0,0,0,2.41-1.887,7.493,7.493,0,0,1,.756-.68Z" transform="translate(-96.929 -57.547)" fill-rule="evenodd"/><path d="M129.44,83.326c.055-1.019.753-1.223,1.344-1.488a3.171,3.171,0,0,1,1.124-.234,3.122,3.122,0,0,0,2.835-2.027,18.094,18.094,0,0,1,.788-1.772,13.845,13.845,0,0,1,1.218-1.683c.121-.15.386-.176.612-.262.024.155.047.213.031.223a8.749,8.749,0,0,0-2.3,3.961,3.27,3.27,0,0,1-2.426,2.242,20.752,20.752,0,0,0-2.363.911A4.589,4.589,0,0,1,129.44,83.326Z" transform="translate(-95.461 -55.946)" fill-rule="evenodd"/><path d="M134.641,78.711a13.286,13.286,0,0,1-1.163.992c-.958.646-1.974,1.2-2.916,1.874a3.221,3.221,0,0,0-1.252,1.961c-.029.147-.194.263-.3.394-.1-.155-.284-.3-.294-.462a3.174,3.174,0,0,1,1.809-3.011c1.281-.73,2.67-1.257,4.011-1.869Z" transform="translate(-94.922 -57.96)" fill-rule="evenodd"/><path d="M145.065,103.333a1.016,1.016,0,0,1-.919-.709c-.108-.389.262-.48.473-.525a4.632,4.632,0,0,0,2.489-1.785,7.211,7.211,0,0,1,1.5-1.095l.189.176c-.058.134-.087.357-.181.391a3.7,3.7,0,0,0-1.717,1.722,3.669,3.669,0,0,1-1.575,1.483c-.121.05-.184.236-.262.36Z" transform="translate(-106.293 -73.174)" fill-rule="evenodd"/><path d="M138.372,85.372a10.446,10.446,0,0,1-.641.921,5.431,5.431,0,0,1-2.927,1.838,1.678,1.678,0,0,1-.525-.045c.037-.186.016-.428.123-.554a2.4,2.4,0,0,1,.659-.475,9.187,9.187,0,0,0,2.683-1.688c.1-.113.336-.1.509-.15A1.41,1.41,0,0,0,138.372,85.372Z" transform="translate(-99.031 -62.849)" fill-rule="evenodd"/><path d="M164.181,69.89c.331.585-.247.725-.486.932a1.164,1.164,0,0,1-1.425.215Z" transform="translate(-119.673 -51.543)" fill-rule="evenodd"/><path d="M166.313,60.716,165,61.767a1.2,1.2,0,0,1,1.2-1.187C166.239,60.619,166.271,60.667,166.313,60.716Z" transform="translate(-121.686 -44.677)" fill-rule="evenodd"/><path d="M147.66,114.94Z" transform="translate(-108.898 -84.768)"/><path d="M90.15,71.854a2.583,2.583,0,0,0-.585.263,12.193,12.193,0,0,0-1.265.677l-.958.633c-.242-.575-.415-1.063-.646-1.517-.194-.386-.444-.788-1.071-.291-.706-2-1.389-3.938-2.058-5.857a.407.407,0,0,1,.1-.323,2.1,2.1,0,0,0-.95-3.048c.089.375.168.7.263,1.134-.509-.459-.882-.263-1.3.034-2.024,1.433-4.066,2.846-6.106,4.26-.05.037-.116.05-.228-.021.48-.352.945-.714,1.433-1.05q2.588-1.788,5.184-3.557c.381-.263.347-.554.215-.911C81.587,60.687,81,59.088,80.406,57.5a.809.809,0,0,1,.163-.94,1.575,1.575,0,0,0,.236-1.019,2.787,2.787,0,0,0-1-1.919L69.254,60.807c-.165-1.355-1.25-.788-1.916-.942a3.3,3.3,0,0,0-1.935.105.889.889,0,0,1-1.268-.326c-.945-1.179-1.924-2.326-2.867-3.507a2.208,2.208,0,0,1-.475-.945,1.572,1.572,0,0,0-1.05-1.412,1.785,1.785,0,0,0-2.006.525,2.145,2.145,0,0,0-.491.788,3.231,3.231,0,0,1-1.189,1.685,30.965,30.965,0,0,0-4.883,5.169c-1.181,1.486-2.294,3.024-3.47,4.512a1.118,1.118,0,0,1-.751.263,5.646,5.646,0,0,1-.759-.094,1.187,1.187,0,0,0-1.25.719,1.985,1.985,0,0,1-1.273,1.124c-.627.242-1.21.6-1.822.9a1.071,1.071,0,0,1-.349.042l-.131.494c.171.039.362.152.509.1a8.955,8.955,0,0,0,1.1-.47c.281-.131.549-.284.84-.436a1.893,1.893,0,0,1,.084.171c.045.2.084.4.126.6a2.363,2.363,0,0,0,.512-.42c.31-.433.583-.9.856-1.355a1.439,1.439,0,0,1,1.591-.685,6.4,6.4,0,0,0,.919,0c.633-.966,1.21-1.838,1.79-2.725a51.636,51.636,0,0,1,5.715-6.807c.525-.572,1.2-1.013,1.78-1.546a1.381,1.381,0,0,0,.42-.685,2.2,2.2,0,0,1,1-1.313.68.68,0,0,1,1.113.21.9.9,0,0,1,.152.294,9.571,9.571,0,0,0,2.662,4.266,1.814,1.814,0,0,1,.284.339c.667,1.391,1.874,1.278,3.095,1.163.688-.066,1.383-.113,2.074-.139a.465.465,0,0,1,.375.2c.165.648.3,1.313.438,1.969l-.165.039c-.1-.478-.173-.958-.312-1.423-.05-.181-.242-.454-.37-.454a17.277,17.277,0,0,0-1.911.139c-.1,0-.184.144-.263.221,0,.058.016.118.021.179a9.7,9.7,0,0,0,1.034,0c.525-.055.887.05.984.659.113.69.291,1.368.407,2.058a1.473,1.473,0,0,1-.121.525h-.186c-.113-.659-.223-1.313-.349-1.974a1.735,1.735,0,0,0-.234-.725.869.869,0,0,0-.627-.318,6.389,6.389,0,0,0-1.347.21,2.447,2.447,0,0,0-.89.459c.748.349,1.5,0,2.292.126a11.625,11.625,0,0,1,.588,3.46l-.181.021c-.263-.788-.591-1.557-.788-2.363-.163-.627-.239-.68-.835-.525-.732.184-1.494.263-2.363.389l.525,1.092-.751.57c-.438-.714-.856-1.383-1.336-2.158.525-.176.921-.339,1.336-.446.525-.136.648-.341.326-.764-.491-.646-1.05-1.239-1.554-1.866-.606-.743-1.226-1.47-1.788-2.247-.507-.7-.806-.788-1.452-.239a37.51,37.51,0,0,0-7.2,8.117A17.587,17.587,0,0,0,50,68.092a.664.664,0,0,0,.756.927c.851-.1,1.7-.281,2.554-.331a1.478,1.478,0,0,1,1.53.874.856.856,0,0,1-.3,1.163l-1.336.914a2.725,2.725,0,0,0-3.245-.37,7.484,7.484,0,0,1-3.119,1.171c-.788.034-1.575.045-2.034-.837-.042-.076-.341-.1-.462-.042-1.074.525-2.134,1.071-3.2,1.609a.866.866,0,0,1-.354.144c-.656-.013-.869.438-1.1.948a7.912,7.912,0,0,1-.788,1.313,2.625,2.625,0,0,1-2.625,1.011c-.213-.021-.4-.278-.6-.425.244-.11.525-.344.73-.3a1.806,1.806,0,0,0,1.859-.662c.381-.444.312-.735-.165-1.05-.344-.226-.693-.441-1.108-.709-.307.357-.667.788-1.05,1.21a6.442,6.442,0,0,1-.948.995,1.273,1.273,0,0,1-.9.16c-.152-.031-.3-.391-.341-.62a1.066,1.066,0,0,1,.36-1.139,2.066,2.066,0,0,0,.5-.717c.068-.131,0-.326,0-.494-.171.055-.417.055-.5.171a2.483,2.483,0,0,1-1.68,1.013,9.488,9.488,0,0,1,.5-1.05,6.532,6.532,0,0,0,1.428-2.462,2.1,2.1,0,0,1,.347-.622q.126.087.263.173a2.363,2.363,0,0,0,.058.714,3.15,3.15,0,0,0,.462.659,2.237,2.237,0,0,0,.428-.591,4.357,4.357,0,0,0,.11-.987,1.213,1.213,0,0,1,.6-1.05c.1-.06.129-.247.192-.375-.176,0-.391-.089-.525-.016-.441.263-.845.58-1.284.843a1.646,1.646,0,0,1-.549.113c.016-.189-.034-.415.052-.562.244-.431.541-.832.814-1.244a3.675,3.675,0,0,0,.294-.47.339.339,0,0,0,0-.294.312.312,0,0,0-.281-.029,3.481,3.481,0,0,0-2.048,2.318,1.588,1.588,0,0,0,.263,1.121.822.822,0,0,1,.1.911c-.263.462-.557.9-.861,1.341s-.622.772-.869,1.194a.744.744,0,0,0,.672,1.215h.42c.179.449-.139.525-.407.654-1.465.664-2.951,1.292-4.394,2-1.1.546-2.126,1.25-3.231,1.785a22.3,22.3,0,0,1-2.573.945A21.671,21.671,0,0,0,16.5,83.094c-1.425,1.021-1.452.987-2.817-.063-.2-.158-.4-.331-.6-.483-.764-.557-1.082-.483-1.607.3a7.612,7.612,0,0,1-1.087,1.444A4.754,4.754,0,0,1,8.1,85.546a6.1,6.1,0,0,0-1.756.929c-.606.373-1.184.788-1.775,1.192.016.06.037.118.05.181a3.816,3.816,0,0,0,.7-.2c.557-.281,1.089-.609,1.638-.9a5.084,5.084,0,0,1,.7-.249c.189.641.116.748-.4.819a.948.948,0,0,0-.5.247,2.78,2.78,0,0,1-1.882.788,1.842,1.842,0,0,1-.525-.2c-.123-.047-.263-.074-.386-.11a1.643,1.643,0,0,0,.013.457.5.5,0,0,0,.278.263,2.622,2.622,0,0,0,2.378-.1c.06-.037.123-.084.184-.123,1.166-.767,1.525-.725,2.575.179a3.261,3.261,0,0,0,.911.4c.131.058.312.058.4.15a.938.938,0,0,0,1.255.129c.869-.428,1.756-.83,2.6-1.3A3.964,3.964,0,0,0,16.2,86.229a2.456,2.456,0,0,1,1.176-.977c2.407-1.131,4.835-2.21,7.261-3.294a1.575,1.575,0,0,1,.617-.129,3.239,3.239,0,0,0,2.712-1.313,2.428,2.428,0,0,1,.788-.709c1.727-.848,3.518-1.575,5.2-2.51a2.057,2.057,0,0,1,2.3.1,2.15,2.15,0,0,0,2.544-.646,11.343,11.343,0,0,0,1.278-1.706,2.16,2.16,0,0,1,.591-.6c1.05-.588,2.134-1.155,3.216-1.693a1.308,1.308,0,0,1,.914-.163,5.835,5.835,0,0,0,5.282-.494,3.349,3.349,0,0,1,2.58-.144c-1.2.882-2.313,1.7-3.413,2.52l.092.142c2.982-1.467,5.513-3.691,8.371-5.3v.047c-.063.242-.131.483-.2.725.234-.087.478-.168.714-.263.137-.055.263-.129.433-.2.047.525-.042.672-.654,1.05.294.415.021.609-.307.83Q54.236,73.762,50.8,76.07a.725.725,0,0,1-.893-.037c-.244-.155-.473-.333-.788-.554-.029.2-.089.333-.05.425a2.147,2.147,0,0,0,1.475.874,1.373,1.373,0,0,1,1.2.357c1.373,1.05,2.78,2.061,4.161,3.1a4.158,4.158,0,0,1,.5.578,3.316,3.316,0,0,0,.525-.244c.916-.617,1.822-1.252,2.738-1.864a1.932,1.932,0,0,1,.491-.184l.034-.026h.024c.126-.147.239-.37.389-.4a4.594,4.594,0,0,1,1.124-.029.444.444,0,0,1,.315.247,1.9,1.9,0,0,1-.685,1.551c.291-1.171-.034-1.575-1.142-1.37v.016l-.047.016-.291.236v.186l.94.192c-.05.118-.071.341-.192.438a2.069,2.069,0,0,1-.614.207v.152l.879.307c-.4.286-.788.564-1.176.837a5.776,5.776,0,0,0-.683.465,1.339,1.339,0,0,1-1.838.029c-.239-.15-.467-.5-.921-.181.213.178.378.336.562.467.357.263.717.507,1.092.732a.588.588,0,0,0,.444.053,1.063,1.063,0,0,1,1.15.189c1.4,1.076,2.817,2.124,4.224,3.187a4.118,4.118,0,0,1,.341.32c-.116.158-.221.3-.323.446-.05.06-.1.123-.155.181q.732.906,1.467,1.806l.354-.239-.341.262h-.013c-.207.139-.42.278-.625.423L47.075,101.034q-6.825,4.644-13.624,9.293L29.6,112.952l-3.882,2.63-1.932,1.313-.969.662c-.509.352-1.05.675-1.575,1-.294.179-.853.352-.935.738a.444.444,0,0,0,.095.373.788.788,0,0,0,.407.221,4.389,4.389,0,0,1,.5.2,6.958,6.958,0,0,0,.743.31c.236.1.475.192.714.286.507.2,1.019.389,1.536.567,1.386.488,2.8.908,4.226,1.26l.326.076a44.584,44.584,0,0,0,9.5,1.313c2.231.042,4.463-.05,6.694-.181a41.53,41.53,0,0,0,10.172-1.982,51.071,51.071,0,0,0,21.316-13.314,49.509,49.509,0,0,0,9.385-14.06,50.154,50.154,0,0,0,4.266-20.42v-1.05c0-.176,0-.352-.013-.525a4.324,4.324,0,0,0-.032-.512ZM37.184,74.907a6.592,6.592,0,0,1,.824-.076c.021.092.047.181.071.263a7.489,7.489,0,0,1-.809.3c-.06.016-.231-.126-.247-.213A.318.318,0,0,1,37.184,74.907ZM8.665,87.769l3.772-1.5c.032.066.066.126.1.189-.478.262-.945.554-1.431.809-.368.2-.756.352-1.131.525a1.043,1.043,0,0,1-1.31-.01Zm1.512.753,3-1.4c.071.173.123.3.173.431-1.478.982-2.67,1.37-3.168.982Zm2.074.32c0-.039-.037-.071-.05-.11l1.625-.887c.029.06.06.115.089.176ZM31.695,77.891c-1.181.6-2.363,1.168-3.536,1.788a1.633,1.633,0,0,0-.633.7A2.034,2.034,0,0,1,25.306,81.5a2.363,2.363,0,0,0-1.313.2c-2.549,1.215-5.079,2.47-7.6,3.741a2.05,2.05,0,0,0-.688.717c-.239.344-.389.751-.606,1.11a.579.579,0,0,1-.822.3c-.407-.181-.788-.449-.693-.864.139-.635-.263-.9-.551-1.268l-1.068.62c.15-.36.239-.562.323-.767l-.095-.11c-.144.063-.347.089-.425.2A4.374,4.374,0,0,1,9.836,86.6a5.873,5.873,0,0,1-.806.339,1.092,1.092,0,0,1-.386-.026c.055-.126.074-.3.165-.365a6.809,6.809,0,0,1,1-.588,4.8,4.8,0,0,0,2.237-2.116c.428-.764.732-.84,1.418-.3.244.2.5.383.732.583a1.6,1.6,0,0,0,2.315.1,20.435,20.435,0,0,1,6.725-3.273A33.222,33.222,0,0,0,27.7,78.865c1.677-.811,3.355-1.635,5.035-2.452a1.792,1.792,0,0,1,.3-.079,2.2,2.2,0,0,1-1.336,1.57Zm50.372-9.839,1.362,3.368-.158.066c-.452-1.124-.9-2.25-1.349-3.373Zm4.182,4.15c.171.378.294.654.42.929l-.076.06a.979.979,0,0,1-.207-.179c-.228-.354-.47-.3-.788-.089q-2.465,1.709-4.948,3.394c-.467.318-.958.6-1.439.9-.032-.05-.066-.1-.094-.15Zm-8.757,3.966c.113.186.263.347.381.525a2.428,2.428,0,0,1,.152.441l-.21.052-3.15-5.03.142-.126a1.355,1.355,0,0,1,.263.228c.83,1.307,1.617,2.612,2.423,3.909Zm-3.675,5.775c.525-.4,1.063-.788,1.617-1.142.144-.095.365-.055.554-.079l.055.2-5.615,3.856c-.181-.244-.291-.525-.491-.627a2.836,2.836,0,0,0-.861-.092c.087-.134.108-.207.155-.242q3.226-2.155,6.46-4.3c.194-.129.41-.231.617-.347l1.47-1.137c.037.058.079.116.116.171L76.347,79.22c-.987.725-1.977,1.446-2.961,2.176-.142.1-.276.221-.428.347.268.373.515.473.858.215Zm-4.434,2.594c-.171.525-.315.958-.462,1.4-.5-.365-.37-1.066-1.215-.982.559-.591,1.105-.357,1.677-.407Zm4.678-10.382c.677,1.121,1.4,2.216,2.1,3.313.541.84.525.9-.368,1.339-.079.042-.165.079-.315.147-1.019-1.491-2.021-2.945-3-4.418a.525.525,0,0,1,.047-.494C73.247,73.423,73.51,73.255,74.061,74.156Zm-.491-4.707,1.609-1.05.068.11-1.575,1.066ZM71.995,71.5l.638,1.1a.861.861,0,0,1-.648-1.1Zm.263,4.027c.717.982,1.444,1.956,2.147,2.951a8.356,8.356,0,0,1,.525.927.57.57,0,0,1-.092.121c-1.116.851-1.095.832-1.932-.291-.772-1.037-1.6-2.024-2.4-3.037-.126-.158-.231-.328-.383-.541.186-.163.312-.3.459-.4.9-.627,1.032-.6,1.667.273Zm-2,1.05Q71.5,78.2,72.727,79.834a.88.88,0,0,1-.593,1.473.467.467,0,0,1-.375-.129c-1.134-1.37-2.258-2.751-3.413-4.166a6.417,6.417,0,0,1,.562-.6c.588-.47.882-.436,1.344.165ZM80.2,63.884c-.525-1.391-1.076-2.775-1.614-4.166l.171-.063q.816,2.074,1.633,4.153C80.329,63.831,80.266,63.855,80.2,63.884Zm1.7-1.155-.165.071q-.969-2.528-1.948-5.053l.2-.081ZM70.464,60.994q3.126-2.166,6.263-4.313c.982-.677,1.969-1.349,3.071-2.1.16.557.294,1.019.425,1.478l-.15.039c-.389-.725-.5-.746-1.223-.263L70.68,61.348c-.134.087-.278.155-.417.231-.047-.042-.094-.084-.139-.129a1.887,1.887,0,0,1,.341-.457Zm-.6,3.386c.158.071.378.094.457.215.906,1.407,1.79,2.827,2.667,4.253.05.079,0,.221,0,.333-.129-.021-.32,0-.368-.068-.963-1.512-1.914-3.035-2.861-4.554A.987.987,0,0,1,69.861,64.38ZM68.4,65.855c.956,1.486,1.9,2.948,2.869,4.442-.312.354-.63.719-1,1.139-1.126-1.612-2.184-3.124-3.323-4.749A1.132,1.132,0,0,0,68.4,65.855Zm-1.929,1.213c1.105,1.664,2.1,3.174,3.121,4.725a12.893,12.893,0,0,1-1.3.853.635.635,0,0,1-.585-.171c-.937-1.271-1.838-2.562-2.754-3.856a.391.391,0,0,1,0-.37c.48-.4.963-.767,1.515-1.181Zm.837,6.151a5.477,5.477,0,0,1-1.105.882,2.52,2.52,0,0,1-.562-.386q-1.418-1.772-2.8-3.57a.483.483,0,0,1,.042-.465,8.1,8.1,0,0,1,1.278-.8c.094-.047.362.116.465.263.822,1.066,1.641,2.134,2.423,3.231C67.236,72.6,67.414,73.08,67.312,73.219ZM65,64.687c.323-.223.562-.242.714.184a1.509,1.509,0,0,0,.181.263c.425.685.37.882-.294,1.341-1.473,1.026-2.943,2.066-4.413,3.095a.921.921,0,0,1-.2.076c-.039-1.168-.039-1.168-1.137-1.481.7-.48,1.313-.921,1.943-1.347C62.86,66.115,63.936,65.409,65,64.687Zm-8.484,2.244c-.935.092-1.89.052-2.832.055a1.181,1.181,0,0,1-.47-.139c-.491-.236-.62-.549-.312-.99,1.116-1.575,2.263-3.129,3.413-4.683.37-.5.759-1,1.163-1.47.562-.651,1.145-1.278,1.8-2,.263.31.47.525.662.748.9,1.026,1.782,2.055,2.675,3.082.452.525.42.641-.239.848l-.21.06c-1.05.315-1.095.386-.57,1.376.326.617.719,1.2,1.11,1.838-.769.525-1.528,1.071-2.3,1.575a.4.4,0,0,1-.352,0C58.917,66.556,57.722,66.814,56.515,66.932Zm1.819,2.384c.452-.585,1.131-.7,2.045-.3q-.236.746-.47,1.5l-.171-.06C59.36,69.412,59.242,69.315,58.334,69.315Zm-.525,10.5c-.966.688-.979.706-1.914.026-1.142-.832-2.255-1.7-3.392-2.536-.349-.263-.341-.525-.047-.759.386-.32.814-.6,1.2-.877a3.365,3.365,0,0,1,.57.3c1.223,1,2.441,2,3.649,3.014.407.36.375.515-.079.837Zm2.919-2.439c-.131,1-1.05,1.213-1.761,1.6-.21.11-.717-.139-.974-.357C56.77,77.608,55.6,76.558,54.4,75.508a4.169,4.169,0,0,1,2.069-1.473,2.069,2.069,0,0,0,.94-.6,4.9,4.9,0,0,1,2.066-1.4,7.468,7.468,0,0,0,.982-.748c.465-.323.94-.625,1.418-.919a.551.551,0,0,1,.788.168c.866,1.1,1.74,2.195,2.591,3.3a.657.657,0,0,1-.165,1.084c-.444.268-1.005.475-1.507.711a.646.646,0,0,0-.263.179,3.588,3.588,0,0,1-2.6,1.57Zm1.024.441a1.513,1.513,0,0,1,.026-.158l7.3-4.909c.021.034.042.071.068.108l-.769.688c.024.042.042.084.071.129.659-.323,1.328-.646,2-.969a.6.6,0,0,1,.131.094c.641.788.648.8-.181,1.373-2.412,1.672-4.83,3.331-7.392,5.1.26-1.139-.223-1.546-1.255-1.446Zm1.6,2.625a2.562,2.562,0,0,0,.643-.457,3.691,3.691,0,0,1,1.964-1.336c.262-.066.488-.352.719-.549a5.47,5.47,0,0,1,.478-.449c.706-.465.806-.428,1.341.221.827,1.011,1.677,2,2.517,3,.525.638.483.935-.186,1.383-.711.48-1.4,1.005-2.147,1.436a7,7,0,0,1-1.334.42,1.438,1.438,0,0,1-1.236,1.194.5.5,0,0,1-.339-.121q-1.9-1.685-3.783-3.378a3.984,3.984,0,0,1-.281-.336c.572-.36,1.105-.688,1.633-1.021ZM61.125,83.7c-.407-.312-.816-.62-1.25-.953.58-.735,1.294-1.05,2-.391,1.05.969,2.189,1.838,3.294,2.754.263.218.449.483.215.811a.7.7,0,0,1-1.076.244c-1.079-.809-2.132-1.635-3.192-2.457ZM64.5,87.239c1.087-.74,1.916-1.872,3.428-1.654.039.05.076.1.116.155l-.662.394c.1.129.221.284.336.433-1.181,1.137-2.1,1.349-3.229.68ZM51.7,122.2c-.935.231-1.882.41-2.9.62v-3.938q-.045-4.011-.1-8.025a1,1,0,0,1,.509-1.011c.236-.139.331-.525.554-.7.6-.475,1.229-.9,1.838-1.339l.223.1c0,1.121-.016,2.244,0,3.365.055,3.476.121,6.951.163,10.429-.005.173-.158.465-.289.5Zm.635-14.11h.234a72.451,72.451,0,0,1,.018,7.991q-.136-3.993-.263-7.983Zm.869,13.831h-.57v-2.1h.57Zm13.033-5.715-11.865-6.655c.042-.084.084-.16.129-.244l11.813,6.739Zm.735-.488a.417.417,0,0,1-.344-.021q-3.756-2.145-7.51-4.31-2.221-1.276-4.436-2.559a1.114,1.114,0,0,1-.129-1.612l.509-.415a.743.743,0,0,1,1.082-.013,7.563,7.563,0,0,0,1.074.664L67.8,113.545c.41.236.837.436,1.418.735C68.388,114.821,67.687,115.283,66.973,115.724Zm8.812-15.488c-.032,2.1-.079,4.2-.108,6.3,0,.549.066,1.105.05,1.654a1.032,1.032,0,0,1-.236.667c-.877.866-1.785,1.7-2.685,2.533a1.9,1.9,0,0,1-.312.181c.037-.475.095-.866.095-1.257,0-2.79-.074-5.584-.058-8.371,0-2.1.1-4.174.158-6.256V95.24c.024-.449-.1-1,.113-1.331a4.6,4.6,0,0,1,1.979-1.691c.284-.134.583-.223.979-.37.042.525.116,1.05.11,1.575-.005,2.276-.042,4.547-.081,6.82Zm.68,7.2a2.45,2.45,0,0,1-.155.578l-.079-.047V94.2h.2a3.989,3.989,0,0,1,.068.554q0,5.079-.024,10.162c0,.835.013,1.683-.005,2.525ZM84.3,96.563l-2.47-1.313c.032-.052.06-.108.089-.163L84.38,96.4Zm.341-.572c-.525-.286-1.021-.549-1.509-.824q-2.41-1.373-4.817-2.754a.97.97,0,0,1-.247-1.218.946.946,0,0,1,.992-.446c2.134,1.092,4.266,2.2,6.45,3.326-.3.7-.562,1.268-.858,1.908Zm4.646-16.134a.677.677,0,0,1-.3.412c-3.693,2.523-7.395,5.024-11.083,7.544-4.2,2.872-8.4,5.775-12.613,8.631q-6.72,4.575-13.469,9.127c-4.591,3.121-9.188,6.235-13.768,9.382-3.2,2.2-6.363,4.444-9.553,6.657a.788.788,0,0,1-.588.108c-1.145-.315-2.284-.667-3.428-1.005a.783.783,0,0,0-.042-.181c21.5-15.049,43.384-29.524,64.955-44.474l.163.121C89.478,77.406,89.4,78.632,89.286,79.857Zm-.617-4.5Q80.952,80.59,73.244,85.837,66.837,90.19,60.437,94.56l-11.752,8.025-17.85,12.2q-3.567,2.441-7.138,4.89c-.194.134-.365.3-.578.483l-1.575-.614L89.454,73.1a1.683,1.683,0,0,1-.777,2.258Z" transform="translate(-2.922 -39.544)"/><path d="M269.85,182.11c.213-.433,1.087.1.942-.693-.029-.165-.41-.263-.722-.446.039-.341.431-.425.746-.483a.756.756,0,0,1,.871.6.955.955,0,0,1-.475,1.173A.894.894,0,0,1,269.85,182.11Z" transform="translate(-199.013 -133.1)" fill-rule="evenodd"/><path d="M181.72,242.518c.21-.436,1.084.1.94-.7-.029-.165-.41-.263-.719-.446.037-.341.43-.425.743-.48a.751.751,0,0,1,.872.593.953.953,0,0,1-.475,1.173C182.5,243.027,182.2,243.014,181.72,242.518Z" transform="translate(-134.017 -177.65)" fill-rule="evenodd"/></g></g></svg>