<svg xmlns="http://www.w3.org/2000/svg" width="2466.14" height="368.5" viewBox="0 0 2466.14 368.5">
    <defs>
        <style>
            .cls-1 {
                isolation: isolate;
            }

            .cls-10,
            .cls-2,
            .cls-4,
            .cls-6,
            .cls-7,
            .cls-8 {
                fill: none;
            }

            .cls-10,
            .cls-14,
            .cls-15,
            .cls-2,
            .cls-4,
            .cls-6,
            .cls-7,
            .cls-8 {
                stroke: #1d1d1b;
            }

            .cls-2,
            .cls-4 {
                stroke-width: 5.01px;
            }

            .cls-14,
            .cls-3,
            .cls-9 {
                fill: #1d1d1b;
            }

            .cls-10,
            .cls-4,
            .cls-6 {
                stroke-miterlimit: 10;
            }

            .cls-11,
            .cls-15,
            .cls-5 {
                fill: #fff;
            }

            .cls-6,
            .cls-7 {
                stroke-width: 4.96px;
            }

            .cls-10,
            .cls-8 {
                stroke-width: 4.05px;
            }

            .cls-11,
            .cls-12,
            .cls-9 {
                fill-rule: evenodd;
            }

            .cls-12 {
                fill: #262325;
            }

            .cls-13 {
                mix-blend-mode: multiply;
            }

            .cls-14,
            .cls-15 {
                stroke-width: 2.94px;
            }
        </style>
    </defs>
    <g class="cls-1">
        <g id="Layer_1" data-name="Layer 1">
            <line class="cls-2" x1="2218.2" y1="328.92" x2="2220.1" y2="328.92" />
            <line class="cls-2" x1="2230.72" y1="316.39" x2="2232.62" y2="316.39" />
            <polygon class="cls-3" points="1558.61 226.38 1581.89 226.38 1570.41 203.44 1558.61 226.38" />
            <polygon class="cls-4" points="1558.61 226.38 1581.89 226.38 1570.41 203.44 1558.61 226.38" />
            <polygon class="cls-5" points="1571.13 213.86 1594.41 213.86 1582.93 190.92 1571.13 213.86" />
            <polygon class="cls-4" points="1571.13 213.86 1594.41 213.86 1582.93 190.92 1571.13 213.86" />
            <rect class="cls-3" x="2229.68" y="233.69" width="1.95" height="80.42" />
            <rect class="cls-2" x="2229.68" y="233.69" width="1.95" height="80.42" />
            <rect class="cls-5" x="2242.21" y="221.16" width="1.95" height="80.42" />
            <rect class="cls-2" x="2242.21" y="221.16" width="1.95" height="80.42" />
            <path class="cls-6"
                d="M1372.22,137.84h-22v95.4h22q23,0,33.49-14.65c7-9.76,10.52-15.48,10.52-33s-3.5-23.29-10.52-33S1387.55,137.84,1372.22,137.84Z" />
            <path class="cls-6"
                d="M1384.63,125.43h-22v95.4h22q23,0,33.49-14.65c7-9.76,10.52-15.48,10.52-33s-3.5-23.29-10.52-33S1400,125.43,1384.63,125.43Z" />
            <path class="cls-3"
                d="M1459.59,271.93a118,118,0,0,0,20.15-41.19,174.51,174.51,0,0,0,6.17-45.86,170.13,170.13,0,0,0-6.49-46.52,115.62,115.62,0,0,0-20.69-40.66q-14.14-17.82-36.5-28.84t-54-11h-88V312.93h88q32.31,0,54.85-11.34t36.5-29.66m-53.88-53.34q-10.47,14.68-33.49,14.65h-22v-95.4h22q23,0,33.49,14.68c7,9.76,10.52,15.48,10.52,33.06s-3.5,23.25-10.52,33" />
            <path class="cls-7"
                d="M1459.59,271.93a118,118,0,0,0,20.15-41.19,174.51,174.51,0,0,0,6.17-45.86,170.13,170.13,0,0,0-6.49-46.52,115.62,115.62,0,0,0-20.69-40.66q-14.14-17.82-36.5-28.84t-54-11h-88V312.93h88q32.31,0,54.85-11.34T1459.59,271.93Zm-53.88-53.34q-10.47,14.68-33.49,14.65h-22v-95.4h22q23,0,33.49,14.68c7,9.76,10.52,15.48,10.52,33.06S1412.73,208.83,1405.71,218.59Z" />
            <path class="cls-5"
                d="M1472,259.52a118,118,0,0,0,20.15-41.19,174.51,174.51,0,0,0,6.17-45.86,170.13,170.13,0,0,0-6.49-46.52,115.62,115.62,0,0,0-20.69-40.66q-14.15-17.82-36.5-28.84t-54-11H1292.6v255.1h88.05q32.31,0,54.85-11.34t36.5-29.66m-53.88-53.34q-10.47,14.69-33.49,14.65h-22v-95.4h22q23,0,33.49,14.68c7,9.76,10.52,15.48,10.52,33s-3.5,23.26-10.52,33" />
            <path class="cls-7"
                d="M1472,259.52a118,118,0,0,0,20.15-41.19,174.51,174.51,0,0,0,6.17-45.86,170.13,170.13,0,0,0-6.49-46.52,115.62,115.62,0,0,0-20.69-40.66q-14.15-17.82-36.5-28.84t-54-11H1292.6v255.1h88.05q32.31,0,54.85-11.34T1472,259.52Zm-53.88-53.34q-10.47,14.69-33.49,14.65h-22v-95.4h22q23,0,33.49,14.68c7,9.76,10.52,15.48,10.52,33S1425.14,196.42,1418.12,206.18Z" />
            <path class="cls-3"
                d="M1567.4,54.53l-115.68,258.4h72.35l8.66-21.68h71l8.68,21.68h75.66L1572.4,54.53ZM1557,226l11.7-22.74L1580.12,226Z" />
            <path class="cls-7"
                d="M1567.4,54.53l-115.68,258.4h72.35l8.66-21.68h71l8.68,21.68h75.66L1572.4,54.53ZM1557,226l11.7-22.74L1580.12,226Z" />
            <path class="cls-5"
                d="M1579.81,42.12l-115.68,258.4h72.35l8.66-21.68h71l8.69,21.68h75.65L1584.81,42.12ZM1569.45,213.6l11.7-22.74,11.38,22.74Z" />
            <path class="cls-7"
                d="M1579.81,42.12l-115.68,258.4h72.35l8.66-21.68h71l8.69,21.68h75.65L1584.81,42.12ZM1569.45,213.6l11.7-22.74,11.38,22.74Z" />
            <polygon class="cls-3"
                points="2364.49 184.81 2226.43 42.6 2222.07 42.6 2222.07 57.84 2222.91 57.84 2222.91 133.53 2222.07 133.53 2222.07 233.24 2224.01 233.24 2224.01 312.93 2289.11 312.93 2289.11 189.62 2427.51 336.17 2431.54 336.17 2431.54 57.84 2364.49 57.84 2364.49 184.81" />
            <polygon class="cls-7"
                points="2364.49 184.81 2226.43 42.6 2222.07 42.6 2222.07 57.84 2222.91 57.84 2222.91 133.53 2222.07 133.53 2222.07 233.24 2224.01 233.24 2224.01 312.93 2289.11 312.93 2289.11 189.62 2427.51 336.17 2431.54 336.17 2431.54 57.84 2364.49 57.84 2364.49 184.81" />
            <polygon class="cls-5"
                points="2376.89 172.4 2238.84 30.19 2234.49 30.19 2234.49 45.42 2235.32 45.42 2235.32 121.12 2234.49 121.12 2234.49 220.83 2236.42 220.83 2236.42 300.52 2301.52 300.52 2301.52 177.21 2439.92 323.75 2443.95 323.75 2443.95 45.42 2376.89 45.42 2376.89 172.4" />
            <polygon class="cls-7"
                points="2376.89 172.4 2238.84 30.19 2234.49 30.19 2234.49 45.42 2235.32 45.42 2235.32 121.12 2234.49 121.12 2234.49 220.83 2236.42 220.83 2236.42 300.52 2301.52 300.52 2301.52 177.21 2439.92 323.75 2443.95 323.75 2443.95 45.42 2376.89 45.42 2376.89 172.4" />
            <path class="cls-3"
                d="M2125.21,227.39v-1.33h96.39V141h-96.39v-1.58h96.86V57.83H2055.3V190.54c-4.76-20-14.54-37.78-36.91-48V74.9h-51.78s-55.74,4.49-56.94,47.33c-1.41,42.89,27.78,52.14,50.37,58.8s33.44,23.11,33,37.11c-.39,14.86-23.83,43.41-60.91,34.93l-28,24V57.83h-67v127l-138-142.21h-4.33V312.93h67V189.62l138.3,150.54h4V305.83c28.52,10.22,78.82,21.82,118.16-2.84a76,76,0,0,0,33-42.31v52.25h166.77V227.39Z" />
            <path class="cls-7"
                d="M2125.21,227.39v-1.33h96.39V141h-96.39v-1.58h96.86V57.83H2055.3V190.54c-4.76-20-14.54-37.78-36.91-48V74.9h-51.78s-55.74,4.49-56.94,47.33c-1.41,42.89,27.78,52.14,50.37,58.8s33.44,23.11,33,37.11c-.39,14.86-23.83,43.41-60.91,34.93l-28,24V57.83h-67v127l-138-142.21h-4.33V312.93h67V189.62l138.3,150.54h4V305.83c28.52,10.22,78.82,21.82,118.16-2.84a76,76,0,0,0,33-42.31v52.25h166.77V227.39Z" />
            <path class="cls-5"
                d="M2137.62,215v-1.34H2234V128.58h-96.39V127h96.86V45.43H2067.71v132.7c-4.76-20-14.54-37.78-36.91-48V62.49H1979s-55.74,4.49-56.93,47.33c-1.42,42.89,27.77,52.14,50.36,58.8s33.45,23.11,33,37.11c-.39,14.86-23.83,43.41-60.91,34.93l-28,24V45.43h-67v127l-138-142.21h-4.33V300.52h67V177.21l138.3,150.54h4V293.42c28.52,10.22,78.82,21.82,118.16-2.84a76,76,0,0,0,33-42.32v52.26h166.77V215Z" />
            <path class="cls-7"
                d="M2137.62,215v-1.34H2234V128.58h-96.39V127h96.86V45.43H2067.71v132.7c-4.76-20-14.54-37.78-36.91-48V62.49H1979s-55.74,4.49-56.93,47.33c-1.42,42.89,27.77,52.14,50.36,58.8s33.45,23.11,33,37.11c-.39,14.86-23.83,43.41-60.91,34.93l-28,24V45.43h-67v127l-138-142.21h-4.33V300.52h67V177.21l138.3,150.54h4V293.42c28.52,10.22,78.82,21.82,118.16-2.84a76,76,0,0,0,33-42.32v52.26h166.77V215Z" />
            <polygon class="cls-3"
                points="1167.84 225.35 1167.84 223.52 1264.26 223.52 1264.26 142.5 1167.84 142.5 1167.84 141.57 1265.59 141.57 1265.59 55.86 1097.78 55.86 1097.78 311.04 1266.58 311.04 1266.58 225.35 1167.84 225.35" />
            <polygon class="cls-8"
                points="1167.84 225.35 1167.84 223.52 1264.26 223.52 1264.26 142.5 1167.84 142.5 1167.84 141.57 1265.59 141.57 1265.59 55.86 1097.78 55.86 1097.78 311.04 1266.58 311.04 1266.58 225.35 1167.84 225.35" />
            <polygon class="cls-5"
                points="1177.97 215.22 1177.97 213.38 1274.39 213.38 1274.39 132.37 1177.97 132.37 1177.97 131.44 1275.72 131.44 1275.72 45.73 1107.91 45.73 1107.91 300.91 1276.72 300.91 1276.72 215.22 1177.97 215.22" />
            <polygon class="cls-8"
                points="1177.97 215.22 1177.97 213.38 1274.39 213.38 1274.39 132.37 1177.97 132.37 1177.97 131.44 1275.72 131.44 1275.72 45.73 1107.91 45.73 1107.91 300.91 1276.72 300.91 1276.72 215.22 1177.97 215.22" />
            <path class="cls-3"
                d="M905.47,249.48V311h117.11c11.73,0,22.13-2,31.17-6a68.93,68.93,0,0,0,22.86-16,66,66,0,0,0,14-23.51,87.19,87.19,0,0,0,4.61-28.51c0-12.93-2.43-24.42-7.46-34.56a64.53,64.53,0,0,0-21.49-24.86q20.6-16.29,20.64-49a93.78,93.78,0,0,0-4.12-27.83,64.54,64.54,0,0,0-13-23.2,62,62,0,0,0-22.7-15.84q-13.85-5.82-33.52-5.83H905.47V224.22a90.59,90.59,0,0,1,.86,12.78,94.87,94.87,0,0,1-.86,12.48m69-106.24h0v77.62l37.42.79-37.42-.79Z" />
            <path class="cls-8"
                d="M905.47,249.48V311h117.11c11.73,0,22.13-2,31.17-6a68.93,68.93,0,0,0,22.86-16,66,66,0,0,0,14-23.51,87.19,87.19,0,0,0,4.61-28.51c0-12.93-2.43-24.42-7.46-34.56a64.53,64.53,0,0,0-21.49-24.86q20.6-16.29,20.64-49a93.78,93.78,0,0,0-4.12-27.83,64.54,64.54,0,0,0-13-23.2,62,62,0,0,0-22.7-15.84q-13.85-5.82-33.52-5.83H905.47V224.22a90.59,90.59,0,0,1,.86,12.78A94.87,94.87,0,0,1,905.47,249.48Zm69-106.24h0v77.62l37.42.79-37.42-.79Z" />
            <path class="cls-5"
                d="M915.61,239.35v61.56h117.1c11.73,0,22.13-2,31.17-6a69.12,69.12,0,0,0,22.87-16,65.93,65.93,0,0,0,14-23.51,87.2,87.2,0,0,0,4.62-28.51c0-12.93-2.44-24.43-7.47-34.56a64.36,64.36,0,0,0-21.48-24.86q20.58-16.29,20.63-49A94,94,0,0,0,1093,90.6a64.71,64.71,0,0,0-13-23.2,61.88,61.88,0,0,0-22.7-15.84q-13.85-5.82-33.52-5.83H915.61V214.09a92.14,92.14,0,0,1,.85,12.78,96.62,96.62,0,0,1-.85,12.48m69-106.25h0v77.63l37.41.79-37.41-.79Z" />
            <path class="cls-8"
                d="M915.61,239.35v61.56h117.1c11.73,0,22.13-2,31.17-6a69.12,69.12,0,0,0,22.87-16,65.93,65.93,0,0,0,14-23.51,87.2,87.2,0,0,0,4.62-28.51c0-12.93-2.44-24.43-7.47-34.56a64.36,64.36,0,0,0-21.48-24.86q20.58-16.29,20.63-49A94,94,0,0,0,1093,90.6a64.71,64.71,0,0,0-13-23.2,61.88,61.88,0,0,0-22.7-15.84q-13.85-5.82-33.52-5.83H915.61V214.09a92.14,92.14,0,0,1,.85,12.78A96.62,96.62,0,0,1,915.61,239.35Zm69-106.25h0v77.63l37.41.79-37.41-.79Z" />
            <path class="cls-3"
                d="M898.69,201.71a64.88,64.88,0,0,0-21.52-24.83c13.85-10.91,20.67-27.24,20.67-49A88.68,88.68,0,0,0,893.65,100a62.53,62.53,0,0,0-13-23.18A60.94,60.94,0,0,0,858,60.93c-9.23-3.89-20.42-5.82-33.46-5.82h-107V310.27H833.45c11.88,0,22.26-2,31.3-6a68.37,68.37,0,0,0,22.73-16,64.15,64.15,0,0,0,14-23.5,79,79,0,0,0,3.75-16V223.47a68.21,68.21,0,0,0-6.59-21.76" />
            <path class="cls-8"
                d="M898.69,201.71a64.88,64.88,0,0,0-21.52-24.83c13.85-10.91,20.67-27.24,20.67-49A88.68,88.68,0,0,0,893.65,100a62.53,62.53,0,0,0-13-23.18A60.94,60.94,0,0,0,858,60.93c-9.23-3.89-20.42-5.82-33.46-5.82h-107V310.27H833.45c11.88,0,22.26-2,31.3-6a68.37,68.37,0,0,0,22.73-16,64.15,64.15,0,0,0,14-23.5,79,79,0,0,0,3.75-16V223.47A68.21,68.21,0,0,0,898.69,201.71Z" />
            <path class="cls-5"
                d="M908.82,191.58a64.88,64.88,0,0,0-21.52-24.83c13.85-10.91,20.68-27.24,20.68-49a88.68,88.68,0,0,0-4.2-27.86,62.45,62.45,0,0,0-13-23.18A60.94,60.94,0,0,0,868.12,50.8C858.9,46.91,847.7,45,834.66,45h-107V300.14H843.59c11.87,0,22.25-2,31.29-6a68.37,68.37,0,0,0,22.73-16,64.15,64.15,0,0,0,14-23.5,78.51,78.51,0,0,0,3.75-16V213.33a68.15,68.15,0,0,0-6.59-21.75" />
            <path class="cls-8"
                d="M908.82,191.58a64.88,64.88,0,0,0-21.52-24.83c13.85-10.91,20.68-27.24,20.68-49a88.68,88.68,0,0,0-4.2-27.86,62.45,62.45,0,0,0-13-23.18A60.94,60.94,0,0,0,868.12,50.8C858.9,46.91,847.7,45,834.66,45h-107V300.14H843.59c11.87,0,22.25-2,31.29-6a68.37,68.37,0,0,0,22.73-16,64.15,64.15,0,0,0,14-23.5,78.51,78.51,0,0,0,3.75-16V213.33A68.15,68.15,0,0,0,908.82,191.58Z" />
            <polyline class="cls-8" points="828.27 132.38 796.58 132.38 796.58 210.01 833.98 210.01" />
            <path class="cls-9" d="M740.07,164.5A126.22,126.22,0,1,1,613.82,38.27,126.21,126.21,0,0,1,740.07,164.5" />
            <path class="cls-10" d="M740.07,164.5A126.22,126.22,0,1,1,613.82,38.27,126.21,126.21,0,0,1,740.07,164.5Z" />
            <path class="cls-10"
                d="M746.15,155.46A126.23,126.23,0,1,1,619.94,29.23,126.24,126.24,0,0,1,746.15,155.46Z" />
            <path class="cls-3"
                d="M610.6,38.48a126.76,126.76,0,0,0-96.71,44.66V55.86H326.09v71.69H384.8V311h70.05V127.55h34.48A127,127,0,1,0,610.6,38.48" />
            <path class="cls-8"
                d="M610.6,38.48a126.76,126.76,0,0,0-96.71,44.66V55.86H326.09v71.69H384.8V311h70.05V127.55h34.48A127,127,0,1,0,610.6,38.48Z" />
            <path class="cls-5"
                d="M620.73,28.35A126.76,126.76,0,0,0,524,73V45.73H336.22v71.69h58.71V300.91H465V117.42h34.48A127,127,0,1,0,620.73,28.35" />
            <path class="cls-8"
                d="M620.73,28.35A126.76,126.76,0,0,0,524,73V45.73H336.22v71.69h58.71V300.91H465V117.42h34.48A127,127,0,1,0,620.73,28.35Z" />
            <path class="cls-11"
                d="M651.57,150.42a10,10,0,0,0-10.41,1c-5.07,3.88-9.85.8-10.72-.48s-1.92.78-1.92.78l-8.16,4.07-2.42,2.76-3.79,4.38-3.57.84-4.16-1.66-3.47-.88-1.12-1.71v-2.75l-2.05.32-1.08-.52,1.19-3.06,1.92-2.57,1.42-2.59.38-2-.67-2.6,1.47-2.94,1.16-1.93,1.75-1s.91-5.7,8.93,4.59l.47.42,1.22.49,2,2,2.89-.56,2.89-.89,3.32-1.61A15.45,15.45,0,0,1,631.4,141a15.15,15.15,0,0,0,1.05-1.76l.79-1.13,2.08.07,2.48-.1,4.32-5.82,3.43-4.22,3.09-4.35,2.93-3.11,5-5.65,4.39-3.56,1.6-2.2,1-2L665,105.3l2.06-.58,1.71.49,1.66,2.18.26,2,6.19,8,2.42,2.48,1.27,1.14,2.27,0,8.29-.37,1.93,5.72-.95,3.56-2.44,3.66-.88,1.87-2.2.22-9.75-1.51-3.62-6.64,4.09-2-.47-1.27-9.53-11.29-1,.37-19,25,20.36,1.13,18.87,24.59-18,12.1-2.28.3-2,.35-3.61-2.27.13-2.29-10.89-12L645.3,162,642,160.3l.45-3.55Z" />
            <path class="cls-11"
                d="M578.64,272.93c54.61-38.1,110.19-74.85,165-112.77a1.87,1.87,0,0,0,.47.32c-.26,3.1-.47,6.24-.72,9.36a1.74,1.74,0,0,1-.75,1c-9.38,6.44-18.78,12.78-28.17,19.12-10.69,7.28-21.38,14.63-32.06,21.9Q665.32,223.5,648.17,235c-11.67,7.94-23.34,15.84-35,23.81-8.11,5.57-16.15,11.27-24.25,16.86a2.2,2.2,0,0,1-1.52.32c-2.89-.8-5.79-1.73-8.67-2.59a2.57,2.57,0,0,1-.11-.48m126.07-79.08c.57-.11,1.19,0,1.46-.28a6.42,6.42,0,0,0,1.73-2.31c.38-1.26-.72-2.08-1.71-2.4-.67-.2-1.61.27-2.39.5-.19.1-.23.57-.32.87.26.06.56.13.86.22a5.14,5.14,0,0,1,1.35.48c.15.09.13.87,0,.94a9.07,9.07,0,0,1-1.37.21c-.4.13-.76.31-1.17.48a4.74,4.74,0,0,0,.77,1.06c.2.19.62.15.81.23m-62.26,40c1.2,1.21,2,1.28,3.45.39a2.46,2.46,0,0,0,1.19-3,1.92,1.92,0,0,0-2.2-1.52c-.79.15-1.79.37-1.91,1.24.81.44,1.78.69,1.83,1.13.39,2-1.83.67-2.36,1.76" />
            <path class="cls-11"
                d="M575.25,272c-1.28-.52-2.47-1-4-1.54q86.49-59,172.52-117.76c.82,2.76.32,4.18-2,5.71Q722.14,171.72,702.6,185q-16.27,11-32.55,22.14-14.89,10.13-29.83,20.32-22.68,15.5-45.36,30.93c-6.06,4.15-12.13,8.24-18.15,12.44-.48.34-.93.76-1.46,1.19" />
            <path class="cls-11"
                d="M709,200.26c.09,1.33.26,2.66.25,4,0,5.77-.12,11.49-.2,17.31q-.18,8-.29,16c0,1.38.16,2.8.14,4.18a2.68,2.68,0,0,1-.62,1.73c-2.22,2.15-4.54,4.24-6.81,6.37a3,3,0,0,1-.81.45,30.71,30.71,0,0,0,.27-3.15c-.07-7.06-.2-14.2-.15-21.23,0-5.28.23-10.6.38-15.86,0-.4,0-.76,0-1.13.08-1.14-.21-2.55.3-3.36a11.37,11.37,0,0,1,5-4.31c.73-.35,1.49-.56,2.51-1" />
            <path class="cls-11"
                d="M670.76,163.56c-.34,2.53-2.67,3.07-4.47,4.05-.53.28-1.82-.36-2.48-.93-3.07-2.55-6.07-5.22-9.1-7.91A10.64,10.64,0,0,1,660,155a5.88,5.88,0,0,0,2.39-1.53,12.26,12.26,0,0,1,5.23-3.57,13.59,13.59,0,0,0,2.49-1.9c1.2-.8,2.38-1.55,3.62-2.31a1.39,1.39,0,0,1,2,.45c2.21,2.79,4.4,5.55,6.58,8.35.84,1.09.71,2.07-.41,2.76A37.44,37.44,0,0,1,678,159.1a1.65,1.65,0,0,0-.63.43,9.1,9.1,0,0,1-6.61,4" />
            <path class="cls-11"
                d="M640.46,278.78c0-3.43,0-6.73,0-10,0-6.74-.15-13.52-.24-20.32a2.53,2.53,0,0,1,1.3-2.59c.58-.32.83-1.3,1.38-1.78,1.53-1.16,3.14-2.27,4.68-3.4.21.16.42.17.58.32,0,2.79,0,5.68,0,8.49.16,8.86.33,17.63.41,26.45,0,.41-.38,1.2-.7,1.28-2.4.55-4.81,1-7.38,1.55" />
            <path class="cls-11"
                d="M687.55,180.61a3.55,3.55,0,0,1-3.12,3,1.28,1.28,0,0,1-.86-.31c-3.19-2.84-6.41-5.69-9.57-8.59-.17-.17-.27-.33-.72-.83,1.45-.93,2.77-1.75,4.14-2.57a7.62,7.62,0,0,0,1.65-1.15,9,9,0,0,1,5-3.39c.69-.18,1.23-.92,1.84-1.43a11.28,11.28,0,0,1,1.17-1.12c1.79-1.16,2.09-1.08,3.41.58,2.1,2.54,4.28,5.06,6.43,7.62,1.34,1.59,1.21,2.33-.46,3.47-1.83,1.24-3.57,2.54-5.49,3.67a17.92,17.92,0,0,1-3.39,1" />
            <path class="cls-11"
                d="M692.37,257.07c-2.12,1.4-3.89,2.56-5.71,3.7-.23.16-.61.05-.9,0-6.34-3.67-12.68-7.27-19.06-11-3.77-2.1-7.51-4.28-11.26-6.47a2.79,2.79,0,0,1-.33-4.07c.43-.37.84-.73,1.29-1.08a2,2,0,0,1,2.75,0,20.58,20.58,0,0,0,2.75,1.72c8.94,5.12,17.86,10.28,26.85,15.45,1.06.58,2.15,1.1,3.62,1.81" />
            <path class="cls-11"
                d="M549.64,184c-.93.56-1.64,1-2.73,1.61.41-.94.62-1.46.82-2a2.78,2.78,0,0,1-.23-.31c-.36.17-.88.24-1.08.53-1.21,1.73-3.16,2.22-4.89,3.07a17.06,17.06,0,0,1-2.06.89,4.43,4.43,0,0,1-1-.1c.15-.32.18-.74.43-.9a17.54,17.54,0,0,1,2.53-1.5,12.06,12.06,0,0,0,5.69-5.4c1.08-1.93,1.87-2.1,3.6-.71.61.5,1.25,1,1.85,1.5,2,1.67,3.74,1.87,5.88.2,5.13-4,10.92-6.37,17.1-8.28,3.93-1.23,7.59-3.48,11.37-5.31,4.22-2,8.52-4.1,12.78-6.18a1.77,1.77,0,0,1,.76-.19,5.76,5.76,0,0,1-3.44,3.91c-3,1.54-6,3-9,4.54a4.32,4.32,0,0,0-1.62,1.77A5.18,5.18,0,0,1,580.8,174a5.88,5.88,0,0,0-3.32.53c-6.48,3.08-12.91,6.25-19.3,9.45a4.79,4.79,0,0,0-1.74,1.83c-.62.88-1,1.88-1.56,2.82a1.47,1.47,0,0,1-2.08.76c-1-.43-2-1.14-1.76-2.2.36-1.63-.69-2.27-1.4-3.24" />
            <path class="cls-11"
                d="M692.14,152.06c-.63.61-1.28,1.16-1.95,1.77.08.11.1.2.2.32,1.67-.81,3.33-1.62,5.07-2.44l.32.19c1.63,2,1.64,2.08-.47,3.54l-18.78,12.91c.66-2.91-.6-3.95-3.16-3.67,0-.15,0-.31.06-.42,6.17-4.12,12.34-8.32,18.55-12.47.07.1.1.2.16.27" />
            <path class="cls-11"
                d="M733.74,205.86c-.79,1.78-1.46,3.22-2.18,4.87-1.36-.72-2.58-1.38-3.84-2.12-4.07-2.28-8.16-4.62-12.23-7a2.45,2.45,0,0,1-.64-3.09,2.49,2.49,0,0,1,2.5-1.14c5.45,2.77,10.85,5.6,16.39,8.44" />
            <path class="cls-11"
                d="M652.8,159.22a7.39,7.39,0,0,1,1.45.77c3.12,2.54,6.21,5,9.28,7.63,1,.92,1,1.28-.18,2.1-2.45,1.78-2.51,1.78-4.84.09-2.92-2.12-5.77-4.31-8.63-6.42-.9-.66-.89-1.3-.12-1.93,1-.82,2-1.5,3-2.24" />
            <path class="cls-11"
                d="M671.45,144c-.12-2.93-.12-2.93-2.9-3.74,1.78-1.23,3.35-2.33,4.93-3.41,2.72-1.81,5.47-3.61,8.16-5.46.83-.53,1.41-.59,1.83.47,0,.3.3.47.45.71,1.05,1.73.93,2.22-.76,3.41-3.74,2.59-7.47,5.26-11.2,7.85a1.7,1.7,0,0,1-.51.17" />
            <path class="cls-11"
                d="M685.4,137.39c2.78,4.23,5.35,8,7.93,12a33.27,33.27,0,0,1-3.33,2.18,1.75,1.75,0,0,1-1.5-.43c-2.36-3.25-4.69-6.51-7-9.78a1,1,0,0,1,0-.93c1.21-1,2.44-1.93,3.86-3" />
            <path class="cls-11"
                d="M684.71,155.22a6,6,0,0,1-1.43-1c-2.39-3-4.8-6-7.1-9-.18-.27-.15-1,.1-1.2a21.86,21.86,0,0,1,3.26-2c.22-.14.88.29,1.17.64,2.1,2.68,4.17,5.38,6.16,8.16.4.62.9,1.86.65,2.22a15,15,0,0,1-2.81,2.21" />
            <path class="cls-11"
                d="M694.64,159.17a12.31,12.31,0,0,1,1.16-1c2.27-1.59,2.63-1.54,4.24.69,1.83,2.45,3.68,5,5.47,7.46a24.41,24.41,0,0,1,1.31,2.37,1.34,1.34,0,0,0-.19.3c-2.87,2.17-2.8,2.1-4.94-.73-2-2.62-4.05-5.16-6.07-7.74a12,12,0,0,1-1-1.34" />
            <path class="cls-11"
                d="M690.12,162.6a12,12,0,0,1,1.44-1.48c1.48-1.22,2.26-1.13,3.42.39,2.12,2.73,4.2,5.46,6.26,8.26a2.23,2.23,0,0,1-1.52,3.73,1,1,0,0,1-.93-.32c-2.88-3.47-5.75-7-8.67-10.58" />
            <path class="cls-11"
                d="M668.58,177.17c1.47-1.87,3.31-2.63,5.07-1,2.69,2.44,5.59,4.66,8.38,7,.64.53,1.13,1.23.55,2.09-.77,1.08-1.84,1.31-2.72.57-2.72-2-5.42-4.13-8.08-6.22-1.06-.82-2.08-1.62-3.2-2.43" />
            <path class="cls-11"
                d="M708.27,167.54c-2.6-3.79-5.16-7.48-7.62-11.22a1.21,1.21,0,0,1,.11-1.23c1.83-1.58,2.49-2,3.87.28,1.7,2.84,3.56,5.6,5.38,8.39,1.35,2.12,1.34,2.28-.94,3.39-.2.13-.44.2-.8.39" />
            <path class="cls-11"
                d="M686.56,136.43c2,.36,2.93-.25,3.73-2.1,2.42,3.78,4.84,7.48,7.28,11.24-.8.92-1.61,1.82-2.57,2.91-2.83-4.08-5.52-7.93-8.44-12" />
            <path class="cls-11"
                d="M710.47,168.25c-2.51,1.8-5,3.67-7.54,5.52-.35.26-.68.54-1.09.85.7.93,1.31,1.19,2.2.53a48.5,48.5,0,0,1,4.08-2.87c.36-.3,1-.15,1.44-.22a1.55,1.55,0,0,0,.14.51c-4.79,3.29-9.55,6.53-14.26,9.79a6,6,0,0,0-1.27-1.63,5.78,5.78,0,0,0-2.18-.18c.23-.36.24-.54.39-.63,5.48-3.64,11-7.29,16.4-10.88.48-.34,1.06-.62,1.59-.94Z" />
            <path class="cls-11"
                d="M719.24,105.72c.38,1.44.7,2.59,1,3.72a2.53,2.53,0,0,1-.35.14c-1-1.85-1.29-1.92-3.09-.65-6.94,4.65-13.86,9.28-20.76,14-.34.2-.74.38-1.09.6-.12-.12-.23-.24-.34-.33a4.65,4.65,0,0,1,.85-1.16q8-5.5,15.92-10.94c2.5-1.73,5-3.42,7.82-5.34" />
            <path class="cls-11"
                d="M710.35,241.11V206.17h.5c0,.47.16.93.16,1.42,0,8.55,0,17.16,0,25.75,0,2.16,0,4.27,0,6.39a5.42,5.42,0,0,1-.39,1.47s-.16,0-.19-.09" />
            <path class="cls-11"
                d="M689.32,184.77l-1.65,1,.83,1.12c-3,2.83-5.33,3.4-8.16,1.67,2.76-1.85,4.87-4.74,8.69-4.2a1.75,1.75,0,0,1,.29.42" />
            <path class="cls-11"
                d="M655,244.51q15,8.6,30,17.07a4.84,4.84,0,0,1-.21.47c-10-5.64-20.07-11.32-30.11-16.93a4,4,0,0,0,.33-.61" />
            <path class="cls-11"
                d="M694,130.57c.36.2,1,.25,1.15.56,2.28,3.58,4.54,7.15,6.78,10.76.11.23,0,.59,0,.88-.34-.08-.81,0-.93-.18q-3.65-5.76-7.27-11.58a2.57,2.57,0,0,1,.31-.44" />
            <path class="cls-11"
                d="M735.63,150.42c.4,1,.72,1.64,1,2.36a.53.53,0,0,1-.21.12,1.77,1.77,0,0,1-.49-.42c-.62-.91-1.19-.76-2-.26q-6.27,4.38-12.59,8.61c-1.16.81-2.43,1.55-3.63,2.29a1.12,1.12,0,0,1-.26-.37c6-4.06,12-8.12,18.12-12.33" />
            <path class="cls-11"
                d="M714.17,163.09c-2.66-4.24-5.29-8.51-8-12.78a.83.83,0,0,0,.37-.32c.26.21.56.34.71.61,2,3.25,4.08,6.59,6.1,9.88.29.47.73.84,1,1.34.18.33.26.76.41,1.11-.21.06-.36.12-.57.16" />
            <path class="cls-11"
                d="M550,188.29c.18.43.32.74.44,1.05-3.74,2.48-6.78,3.47-8,2.48,2.54-1.18,5-2.33,7.61-3.53" />
            <path class="cls-11"
                d="M650,241.42a185.37,185.37,0,0,1,.06,20.28c-.21-6.76-.44-13.53-.64-20.25.18,0,.38,0,.58,0" />
            <path class="cls-11"
                d="M668.26,146c-1-2.67-1.26-2.9-3.57-2.91,1.14-1.49,2.89-1.76,5.19-.77-.36,1.28-.8,2.55-1.17,3.81a3,3,0,0,0-.45-.13" />
            <path class="cls-11"
                d="M548.37,186.57c-1.21.71-2.4,1.45-3.63,2.09-.93.49-1.91.87-2.87,1.31-1.14.61-2.26.92-3.34-.05,3.21-1.26,6.42-2.55,9.59-3.82l.25.47" />
            <path class="cls-11"
                d="M670,167.2c.33-.38.63-1,1-1a10.63,10.63,0,0,1,2.87-.07,1.2,1.2,0,0,1,.8.62c.36.92-.84,3.49-1.74,4,.73-3-.12-4-3-3.48Z" />
            <path class="cls-11"
                d="M691.58,185.27c-1.28-.94-.93-2.69-3.08-2.47,1.44-1.55,2.77-.93,4.26-1.09-.41,1.29-.79,2.42-1.18,3.56" />
            <path class="cls-11"
                d="M724.15,126.58q-2.45-6.43-4.93-12.8c.17-.11.36-.14.53-.24,1.6,4.3,3.23,8.56,4.84,12.87a2.79,2.79,0,0,0-.44.17" />
            <path class="cls-11"
                d="M716.58,118.61c1.4,3.49,2.76,7,4.16,10.51-.15.09-.31.12-.49.22-1.36-3.54-2.74-7.08-4.09-10.57a1.92,1.92,0,0,1,.42-.16" />
            <path class="cls-11"
                d="M728,148.62c-1.13-2.89-2.27-5.73-3.41-8.57l.34-.16c1.16,2.84,2.32,5.68,3.48,8.56a1.38,1.38,0,0,0-.41.17" />
            <path class="cls-11" d="M650.11,268.88v-6h.27v6Z" />
            <path class="cls-11"
                d="M724.64,208.44c2.1,1.14,4.18,2.24,6.27,3.34a2.55,2.55,0,0,0-.24.39c-2.09-1.1-4.18-2.2-6.25-3.31l.22-.42" />
            <path class="cls-11"
                d="M613.27,157.76a19.52,19.52,0,0,1-2.06.78c-.16,0-.61-.33-.63-.53a.85.85,0,0,1,.41-.77,17.69,17.69,0,0,1,2.08-.16,4.5,4.5,0,0,0,.2.68" />
            <path class="cls-11" d="M650.27,276.5v-5.34h.19v5.35Z" />
            <path class="cls-11" d="M699.36,148.64c.62,1,1.1,1.83,1.62,2.77a2.2,2.2,0,0,1-1.62-2.77" />
            <path class="cls-11"
                d="M551.87,190.51c-1.4.74-2.82,1.4-4.21,2.12a1.23,1.23,0,0,1-.14-.24c1.36-.81,2.75-1.58,4.12-2.3a4.36,4.36,0,0,0,.23.42" />
            <path class="cls-11"
                d="M703.39,143.45c1.32-.9,2.73-1.77,4.07-2.66a1.86,1.86,0,0,1,.17.26c-1.3.93-2.63,1.8-4,2.73a2,2,0,0,0-.28-.33" />
            <path class="cls-11"
                d="M710.37,168.1c1.25-.93,2.47-1.91,3.74-2.85a2.13,2.13,0,0,0,.29.42c-1.3.84-2.62,1.73-3.93,2.58Z" />
            <path class="cls-12"
                d="M638.73,126.9c-.93.57-1.84,1.18-2.77,1.8a37.37,37.37,0,0,0-8.86,7.19,22,22,0,0,1-8.1,5.33c-.53.27-1.09.47-1.77.79,3,.88,4.71,4.75,3.34,7.16-1.29,2.23-3.71,2.4-5.61.13a12.14,12.14,0,0,1,1.67-.53c1.07-.2,2.33,0,2.64-1.53.25-1.36-.31-2.39-2.06-3.3,0,.42-.24.92-.1,1.1.56.57.43,1.17-.2,1.32a1.84,1.84,0,0,1-1.6-.6c-.75-1-.23-2.41,1.26-3.5-1.68.07-3-.22-3.21-2.19.6-.07,1.17-.24,1.75-.26a15.27,15.27,0,0,0,8.92-3.53c1.29-.93,2.15-2.53,3.39-3.5,2.22-1.78,4.54-3.39,6.91-4.94a15,15,0,0,1,3.23-1.39,3.06,3.06,0,0,1,1.12,0c0,.13,0,.29.05.41" />
            <path class="cls-12"
                d="M609.41,134.4a22,22,0,0,1-2.55,2.27c-.86.62-2.22-.66-2.09-2.12a14.55,14.55,0,0,1,.87-3.84A18.09,18.09,0,0,1,617.05,120c5-1.66,9.56-4.4,14.07-7.29a17.32,17.32,0,0,1-2.64,2.82,73.78,73.78,0,0,1-6.6,3.9c-3.2,1.69-6.56,3.16-9.66,5-2.52,1.53-3.75,4.17-4.17,7.16-.13,1-.16,2,1.34,2.3,0,.16,0,.32,0,.49" />
            <path class="cls-12"
                d="M638.29,119.66a5.56,5.56,0,0,1-.65,1.37,25.39,25.39,0,0,1-7.15,6.13,13.12,13.12,0,0,0-3.43,3.18c-1.78,2.23-2.91,4.92-5.46,6.48A11.44,11.44,0,0,1,613,138.6a10.17,10.17,0,0,1-1.26-.48,3.46,3.46,0,0,0-.07-.41,13.54,13.54,0,0,1,2.16-.87c5.13-.73,9.54-2.72,12.3-7.42a9.08,9.08,0,0,1,3.87-3.29,21.32,21.32,0,0,0,6.09-4.8,15.37,15.37,0,0,1,1.91-1.7,2.69,2.69,0,0,1,.32,0" />
            <path class="cls-12"
                d="M610.26,137c.15-2.57,1.93-3.11,3.4-3.78a9.26,9.26,0,0,1,2.88-.56c3.51-.18,5.77-2,7.16-5.13.69-1.49,1.2-3.08,2-4.52a36.64,36.64,0,0,1,3.09-4.23c.3-.4,1-.47,1.55-.7,0,.4.14.54.08.56-3.18,2.59-4.45,6.37-5.85,10a8.34,8.34,0,0,1-6.15,5.68c-2.06.48-4,1.58-6,2.28a8.87,8.87,0,0,1-2.2.36" />
            <path class="cls-12"
                d="M624.83,120.28a32.7,32.7,0,0,1-3,2.47c-2.41,1.66-5,3.06-7.41,4.79a8.14,8.14,0,0,0-3.2,4.93c-.06.38-.51.68-.75,1-.26-.37-.75-.74-.76-1.17-.2-3.58,1.79-6,4.58-7.63,3.25-1.82,6.77-3.17,10.17-4.71a1.22,1.22,0,0,1,.32.32" />
            <path class="cls-12"
                d="M622.42,144.1a2.59,2.59,0,0,1-2.32-1.79c-.3-1.11.67-1.24,1.18-1.36,2.75-.64,4.58-2.4,6.31-4.52,1-1.21,2.56-1.88,3.85-2.78.16.16.32.29.48.43-.15.34-.25.95-.47,1-2.12.78-3.22,2.64-4.35,4.35a8.87,8.87,0,0,1-4,3.78c-.3.14-.45.59-.67.92Z" />
            <path class="cls-12"
                d="M623.87,124.75a24.42,24.42,0,0,1-1.62,2.34,13.79,13.79,0,0,1-7.44,4.64,6.06,6.06,0,0,1-1.31-.1c.11-.48,0-1.11.32-1.43A6.24,6.24,0,0,1,615.5,129c2.36-1.29,4.93-2.24,6.81-4.3.26-.27.86-.24,1.27-.38l.29.4" />
            <path class="cls-12"
                d="M625.32,160.82c-.45-.19-.89-.42-1.32-.65v-.45a4,4,0,0,1,1.29-.05c.84.26,2,.39,2,1.62a1.83,1.83,0,0,1-.78,1.27c-1.68,1-5.18-.2-5.86-2.05a1,1,0,0,1,.17-.81,1.14,1.14,0,0,1,1-.14c.64.35,1.13.91,1.74,1.24a8.86,8.86,0,0,0,1.77.5c0-.16,0-.33.05-.48" />
            <path class="cls-12" d="M721.08,104c.4-1.39,7-5.43,8.6-5.28-2.69,1.89-4.89,4.55-8.6,5.28" />
            <path class="cls-12"
                d="M722.89,109.93c.29-.35.48-.89.88-1.14,2.32-1.62,4.67-3.23,7-4.73.36-.25,1-.13,1.37-.16a3.36,3.36,0,0,1-.82,1.07c-2.65,1.78-5.32,3.51-8,5.29a4.29,4.29,0,0,1-.45-.33" />
            <path class="cls-12"
                d="M637,114.15c.81,1.49-.65,1.86-1.24,2.4a3,3,0,0,1-3.63.5c1.75-1,3.24-1.93,4.87-2.9" />
            <path class="cls-12" d="M731.54,131.26a5,5,0,0,1,4.27-2.86c-.32,1.39-2.54,2.89-4.27,2.86" />
            <path class="cls-12" d="M637.29,108.32c-1,.8-2.09,1.61-3.36,2.64a3.1,3.1,0,0,1,3.06-3c.12.14.18.24.3.36" />
            <path class="cls-12"
                d="M704.71,193.85c-.19-.08-.61,0-.81-.23a4.74,4.74,0,0,1-.77-1.06c.41-.17.77-.35,1.17-.48a9.07,9.07,0,0,0,1.37-.21c.15-.07.17-.85,0-.94a5.53,5.53,0,0,0-1.35-.49l-.86-.21c.09-.3.13-.77.32-.87.78-.23,1.72-.7,2.39-.5,1,.32,2.09,1.14,1.71,2.4a6.42,6.42,0,0,1-1.73,2.31c-.27.28-.89.17-1.46.28" />
            <path class="cls-12"
                d="M642.45,233.8c.53-1.09,2.75.24,2.36-1.76,0-.44-1-.69-1.83-1.13.12-.87,1.12-1.09,1.91-1.24a1.92,1.92,0,0,1,2.2,1.52,2.46,2.46,0,0,1-1.19,3c-1.47.89-2.25.82-3.45-.39" />
            <path class="cls-3" d="M622.4,144.12h0s0,0,0,0Z" />
            <path class="cls-3"
                d="M743.09,127.75a127.21,127.21,0,0,0-93.37-94.87,123,123,0,0,0-41.42-3.1,126.3,126.3,0,0,0-78,36.75c-1.58,1.6-3.14,3.22-4.64,4.86v3.22c1.29-1.45,2.59-2.86,3.9-4.25A125.27,125.27,0,0,1,565,44.22,123.65,123.65,0,0,1,650,35.09a122.38,122.38,0,0,1,38.39,17A129,129,0,0,1,716.08,77a118.61,118.61,0,0,1,13.58,20.42,139.79,139.79,0,0,1,8.41,19.61,2,2,0,0,1-1,2.82c-3,1.79-5.73,3.82-8.57,5.75.09.22.17.46.27.66a9.42,9.42,0,0,0,1.2-.36q3.88-2.52,7.76-5.11c.33-.21.66-.37,1.35-.73,1.09,4.81,2.22,9.44,3.16,14.13.54,2.92.82,6,1.17,8.92a1.43,1.43,0,0,1-1,1.84,48.59,48.59,0,0,0-4.86,3c-.31.17-.33.68-.47,1,.46.1,1,.37,1.27.23,1.23-.59,2.39-1.3,3.56-2,.5-.28,1-.63,1.68-1.1.11,1.76.24,3.32.3,4.89-1.65,1.1-3.33,2.16-5.05,3.31-.63-1.47-1-2.68-1.62-3.83s-1.14-2-2.75-.74c-1.79-5.07-3.52-9.95-5.2-14.88a.86.86,0,0,1,.23-.82c1.9-2.1.59-6.69-2.4-7.7.23.94.41,1.78.7,2.86-1.29-1.17-2.25-.67-3.32.12L709,140.13c-.13.1-.28.12-.6-.07,1.24-.85,2.42-1.78,3.67-2.64,4.38-3,8.74-6.06,13.17-9,1-.65.85-1.41.51-2.3-1.47-4-2.94-8.09-4.49-12.13a2.05,2.05,0,0,1,.43-2.41,4,4,0,0,0,.6-2.59,7.2,7.2,0,0,0-2.54-4.86c-8.82,6-17.68,12-26.85,18.17-.34-2.73-2.16-2.38-3.74-2.31-2.4.11-4.79.31-7.19.5-1,.13-1.48-.4-2.08-1.14-2.37-3-4.86-5.86-7.28-8.88a5.77,5.77,0,0,1-1.18-2.39,4,4,0,0,0-2.72-3.59,4.53,4.53,0,0,0-5.07,1.33,4.86,4.86,0,0,0-1.25,2,8.11,8.11,0,0,1-3,4.25c-4.75,3.79-8.64,8.42-12.4,13.11-3,3.78-5.82,7.67-8.81,11.47a3,3,0,0,1-1.9.68,14.53,14.53,0,0,1-1.93-.24,3,3,0,0,0-3.19,1.85,5.06,5.06,0,0,1-3.25,2.82c-1.59.59-3.08,1.55-4.59,2.26a2.53,2.53,0,0,1-.92.12c-.09.41-.2.82-.32,1.27.45.07.93.35,1.29.25a20.29,20.29,0,0,0,2.8-1.19c.72-.34,1.39-.72,2.14-1.11.08.22.18.29.2.44.12.5.21,1,.33,1.52a8.47,8.47,0,0,0,1.3-1,38.4,38.4,0,0,0,2.15-3.46,3.71,3.71,0,0,1,4-1.73,15.54,15.54,0,0,0,2.35,0c1.61-2.44,3.07-4.69,4.55-6.93,4.18-6.28,9.35-11.74,14.49-17.23,1.39-1.45,3.07-2.56,4.53-3.93a3.47,3.47,0,0,0,1.09-1.73,5.6,5.6,0,0,1,2.54-3.37c1.14-.84,2-.66,2.83.54a1.91,1.91,0,0,1,.36.73c.95,4.46,3.89,7.62,6.79,10.84a4.61,4.61,0,0,1,.69.84c1.72,3.55,4.79,3.23,7.88,2.94,1.77-.18,3.52-.26,5.26-.35.33,0,.89.29.95.51.44,1.66.77,3.36,1.1,5a2,2,0,0,1-.39.13c-.26-1.23-.44-2.42-.79-3.63-.14-.44-.62-1.16-.94-1.16a47,47,0,0,0-4.86.37c-.25,0-.48.39-.7.56,0,.16,0,.32.07.48.85,0,1.76,0,2.59,0,1.34-.13,2.26.11,2.54,1.66.25,1.76.7,3.44,1,5.2a3.32,3.32,0,0,1-.32,1.34l-.48,0c-.29-1.65-.54-3.3-.86-5A4.76,4.76,0,0,0,688,125a2.07,2.07,0,0,0-1.58-.74,17.53,17.53,0,0,0-3.42.55,6.41,6.41,0,0,0-2.26,1.16c1.91.87,3.84,0,5.81.32.59,2.88,1.81,5.65,1.53,8.7l-.46.1a62,62,0,0,1-2-6c-.39-1.56-.61-1.7-2.12-1.35a58.12,58.12,0,0,1-6,1c.42.81.83,1.76,1.33,2.79-.48.4-1,.8-1.85,1.49-1.11-1.83-2.19-3.51-3.38-5.46a35.49,35.49,0,0,1,3.38-1.14c1.31-.36,1.64-.88.82-1.94-1.26-1.63-2.66-3.16-3.95-4.74-1.54-1.88-3.13-3.73-4.54-5.71-1.28-1.76-2-2-3.67-.59A94.76,94.76,0,0,0,647.32,134a42.87,42.87,0,0,0-3.28,6.82,1.65,1.65,0,0,0,1.91,2.3c2.18-.23,4.32-.67,6.5-.82a3.77,3.77,0,0,1,3.9,2.24,2.16,2.16,0,0,1-.76,2.94c-1.14.79-2.29,1.56-3.4,2.3a6.91,6.91,0,0,0-8.24-.92c-2.52,1.34-5,2.83-7.94,3-2,.06-4,.1-5.18-2.13-.08-.22-.83-.27-1.14-.12-2.74,1.31-5.43,2.74-8.13,4.06a2,2,0,0,1-.92.37c-1.64,0-2.18,1.12-2.77,2.4a20.41,20.41,0,0,1-2,3.38c-1.65,2.31-4.08,2.81-6.69,2.57-.53-.07-1-.73-1.51-1.11.62-.25,1.3-.83,1.86-.76a4.53,4.53,0,0,0,4.72-1.66c1-1.13.79-1.85-.42-2.62-.87-.63-1.77-1.12-2.81-1.81-.79.86-1.71,2-2.67,3.07a15,15,0,0,1-2.41,2.5,3.08,3.08,0,0,1-2.3.42c-.36-.1-.76-1-.83-1.57a2.68,2.68,0,0,1,.92-2.91,5.45,5.45,0,0,0,1.26-1.79c.16-.33,0-.82,0-1.28-.43.14-1.05.14-1.25.46a6.45,6.45,0,0,1-4.28,2.57,23.55,23.55,0,0,1,1.26-2.67c1.33-2,3.21-3.67,3.65-6.23a4.42,4.42,0,0,1,.87-1.6c.2.16.44.32.66.47a7.41,7.41,0,0,0,.16,1.79,7.62,7.62,0,0,0,1.17,1.66,5.31,5.31,0,0,0,1.09-1.49,9.73,9.73,0,0,0,.29-2.48,3.08,3.08,0,0,1,1.5-2.7c.28-.16.32-.65.49-1-.43,0-1-.18-1.31,0-1.13.65-2.15,1.47-3.25,2.12a4.32,4.32,0,0,1-1.41.3,3.93,3.93,0,0,1,.13-1.44c.63-1.09,1.39-2.11,2.08-3.14a12.64,12.64,0,0,0,.74-1.21.78.78,0,0,0,0-.7c-.09-.15-.53-.17-.71-.13a8.91,8.91,0,0,0-5.19,5.91,3.91,3.91,0,0,0,.67,2.82,2.1,2.1,0,0,1,.26,2.3,31.46,31.46,0,0,1-2.21,3.4c-.72,1.11-1.65,2.08-2.28,3.23-1,1.76-.24,2.9,1.79,2.9.35,0,.73,0,1.08,0,.44,1.15-.38,1.35-1.06,1.65-3.72,1.71-7.47,3.29-11.15,5.11-2.8,1.36-5.39,3.14-8.2,4.52a55.52,55.52,0,0,1-6.54,2.39,54.17,54.17,0,0,0-15.07,7.21c-3.61,2.58-3.67,2.47-7.16-.16-.5-.45-1-.86-1.51-1.26-1.94-1.41-2.75-1.21-4.07.79a22.55,22.55,0,0,1-2.76,3.65,11.85,11.85,0,0,1-5.8,3.16c-1.59.34-3,1.48-4.48,2.39s-3,2-4.49,3a4.58,4.58,0,0,0,.12.47,7.29,7.29,0,0,0,1.77-.48c1.44-.71,2.78-1.57,4.18-2.27a7.87,7.87,0,0,1,1.78-.64c.47,1.63.28,1.91-1,2.08a2,2,0,0,0-1.26.64,7.43,7.43,0,0,1-4.8,2,5.43,5.43,0,0,1-1.33-.49,5.71,5.71,0,0,0-1-.3,4.82,4.82,0,0,0,0,1.14,1.13,1.13,0,0,0,.72.62,6.57,6.57,0,0,0,6-.22,2.39,2.39,0,0,1,.47-.31c3-1.94,3.87-1.87,6.53.43a7.38,7.38,0,0,0,2.31,1.06c.35.13.79.13,1,.35,1,1.13,2,.87,3.17.34,2.22-1.09,4.47-2.14,6.62-3.28a10.48,10.48,0,0,0,4.18-4.76,6.51,6.51,0,0,1,3-2.51c6.13-2.84,12.29-5.57,18.46-8.32a3.58,3.58,0,0,1,1.57-.34,8.19,8.19,0,0,0,6.86-3.34,6.19,6.19,0,0,1,2-1.79c4.41-2.16,9-4,13.19-6.38,2.24-1.22,3.81-.89,5.85.23,2.39,1.33,4.66,0,6.45-1.61,1.3-1.19,2.17-2.92,3.25-4.35a6.18,6.18,0,0,1,1.52-1.5c2.67-1.49,5.41-2.92,8.17-4.33a3,3,0,0,1,2.29-.37c4.73,2,9.2,1,13.43-1.27,2.11-1.14,4.12-1,6.55-.35-3,2.24-5.88,4.27-8.67,6.37a2.26,2.26,0,0,0,.22.37c7.58-3.73,14-9.36,21.27-13.45,0,0,0,.07,0,.09-.15.64-.34,1.28-.52,1.88.59-.23,1.23-.43,1.84-.67a7.89,7.89,0,0,0,1.08-.55c.1,1.4-.1,1.74-1.67,2.72.77,1,.07,1.49-.77,2.08q-8.8,5.73-17.51,11.56a1.82,1.82,0,0,1-2.3,0c-.61-.42-1.17-.86-2-1.44a4.31,4.31,0,0,0-.14,1.12c.31.83,2.87,2.41,3.76,2.19a3.58,3.58,0,0,1,3,.9c3.51,2.68,7.09,5.21,10.58,7.87a8.39,8.39,0,0,1,1.24,1.46,5.65,5.65,0,0,0,1.35-.59c2.34-1.61,4.63-3.22,6.94-4.75a4.77,4.77,0,0,1,1.26-.46.21.21,0,0,1,.1-.08H670c.32-.36.61-.95,1-1a11,11,0,0,1,2.87-.07,1.2,1.2,0,0,1,.8.62c.36.92-.84,3.49-1.74,4,.72-3-.11-4-2.9-3.49l0,0-.13.05-.74.58a3.7,3.7,0,0,0,0,.48c.72.13,1.42.27,2.39.47-.11.31-.17.89-.49,1.11a4.06,4.06,0,0,1-1.48.51,3.83,3.83,0,0,1-.07.43c.7.21,1.38.49,2.22.78-1,.69-2,1.41-3,2.13A10.72,10.72,0,0,0,667,174.9c-1.55,1.46-3.08,1.07-4.7.07-.59-.4-1.15-1.27-2.31-.46.53.44,1,.87,1.42,1.2a29.59,29.59,0,0,0,2.78,1.83,1.27,1.27,0,0,0,1.13.12,2.85,2.85,0,0,1,2.92.5c3.54,2.73,7.16,5.39,10.73,8.08a10.05,10.05,0,0,1,.83.8,7.4,7.4,0,0,1-.81,1.14c-.13.16-.24.33-.36.48,1.22,1.52,2.46,3.08,3.72,4.54a4.61,4.61,0,0,0,.87-.59,10.59,10.59,0,0,1-.84.66s0-.05,0-.07c-.54.37-1.09.76-1.6,1.13q-22.08,14.92-44.16,29.94Q619.23,236,602,247.82,587.11,258,572.29,268.07a13.48,13.48,0,0,1-2.7,1.45c-.23.11-.66-.16-1-.32a115.31,115.31,0,0,1-23-13.61c-4.58-3.57-9-7.38-13.23-11.37a117.24,117.24,0,0,1-19.45-25,123.29,123.29,0,0,1-14.66-38A129.66,129.66,0,0,1,495.85,153a118.59,118.59,0,0,1,5.2-33.38H498.9c-.53,1.79-1,3.58-1.48,5.41a126.5,126.5,0,0,0-3.64,34.72,131,131,0,0,0,6,35.22,119.58,119.58,0,0,0,10.46,23.77,131.26,131.26,0,0,0,21.55,27.9,128.21,128.21,0,0,0,23.76,18.13A123.31,123.31,0,0,0,590.33,279a113.94,113.94,0,0,0,24.14,3.34c5.67.16,11.34-.11,17-.44a103.33,103.33,0,0,0,25.84-5.05,123.8,123.8,0,0,0,25.36-11.21,125.76,125.76,0,0,0,63.47-110,128.45,128.45,0,0,0-3.06-27.91M611,157.25a15.77,15.77,0,0,1,2.08-.17,4.5,4.5,0,0,0,.2.68,19.52,19.52,0,0,1-2.06.78.92.92,0,0,1-.63-.53c0-.25.19-.71.41-.76m-72.46,32.67c3.21-1.26,6.42-2.55,9.59-3.82l.25.47c-1.21.71-2.4,1.45-3.63,2.09-.93.49-1.91.87-2.87,1.32-1.14.6-2.26.91-3.34-.06m3.84,1.9c2.54-1.18,5-2.33,7.61-3.53.18.43.32.74.44,1.05-3.74,2.48-6.78,3.47-8,2.48m5.29.81a1.23,1.23,0,0,1-.14-.24c1.36-.81,2.75-1.58,4.12-2.3a4.36,4.36,0,0,0,.23.42c-1.4.74-2.82,1.4-4.21,2.12M597,164.86c-3,1.54-6,3-9,4.54a4.32,4.32,0,0,0-1.62,1.77A5.18,5.18,0,0,1,580.8,174a5.83,5.83,0,0,0-3.31.53c-6.49,3.08-12.92,6.25-19.31,9.45a4.79,4.79,0,0,0-1.74,1.83c-.62.88-1,1.88-1.56,2.82a1.47,1.47,0,0,1-2.08.76c-1-.43-2-1.14-1.75-2.2.35-1.63-.7-2.27-1.41-3.24-.93.56-1.64,1-2.73,1.61.41-.94.62-1.46.82-2a2.78,2.78,0,0,1-.23-.31c-.36.17-.88.24-1.08.53-1.21,1.73-3.16,2.22-4.9,3.07a15.66,15.66,0,0,1-2,.89,4.43,4.43,0,0,1-1-.1c.16-.32.18-.74.43-.9a17.54,17.54,0,0,1,2.53-1.5,12.06,12.06,0,0,0,5.69-5.4c1.08-1.93,1.87-2.1,3.6-.71.61.5,1.25,1,1.85,1.5,2,1.67,3.74,1.87,5.89.2,5.12-4,10.91-6.37,17.09-8.28,3.92-1.23,7.59-3.48,11.37-5.31,4.22-2,8.52-4.1,12.78-6.18a1.77,1.77,0,0,1,.76-.19,5.76,5.76,0,0,1-3.44,3.91m127.94-25c1.16,2.84,2.32,5.68,3.48,8.56a1.38,1.38,0,0,0-.41.17c-1.13-2.89-2.27-5.73-3.41-8.57l.34-.16m10.66,10.53c.4,1,.72,1.64,1,2.36a.53.53,0,0,1-.21.12,1.77,1.77,0,0,1-.49-.42c-.62-.91-1.19-.76-2-.26q-6.27,4.38-12.59,8.61c-1.16.81-2.43,1.55-3.63,2.29a1.12,1.12,0,0,1-.26-.37c6-4.06,12-8.12,18.12-12.33m-22.28,10.06a16.61,16.61,0,0,1,1,1.35c.18.32.26.75.41,1.1-.21.06-.36.12-.57.16-2.66-4.24-5.29-8.51-8-12.78a.83.83,0,0,0,.37-.32c.26.21.56.34.71.61,2,3.25,4.08,6.59,6.1,9.88M704,175.15c1.32-1,2.69-2,4.07-2.87.38-.3,1-.15,1.45-.22a1.55,1.55,0,0,0,.14.51c-4.79,3.29-9.55,6.53-14.26,9.79a6,6,0,0,0-1.27-1.63,5.78,5.78,0,0,0-2.18-.18c.23-.36.24-.54.39-.63,5.47-3.64,11-7.29,16.4-10.88.48-.34,1.06-.62,1.59-.94,1.25-.93,2.47-1.91,3.74-2.85a2.13,2.13,0,0,0,.29.42c-1.3.84-2.62,1.73-3.93,2.58-2.51,1.8-5,3.67-7.54,5.52-.35.26-.68.54-1.09.85.7.94,1.31,1.19,2.2.53m-11.28,6.56c-.41,1.29-.79,2.42-1.18,3.56-1.28-.94-.93-2.69-3.08-2.47,1.44-1.55,2.77-.93,4.26-1.09m11.87-26.34c1.7,2.84,3.56,5.6,5.38,8.39,1.35,2.12,1.34,2.28-1,3.39-.19.13-.43.2-.79.39-2.6-3.79-5.16-7.48-7.62-11.22a1.21,1.21,0,0,1,.11-1.23c1.83-1.58,2.49-2,3.87.28m-1.24-11.92c1.32-.9,2.73-1.77,4.07-2.67.07.1.14.22.17.27-1.3.93-2.63,1.8-4,2.73a2,2,0,0,0-.28-.33m-4,5.19c.62,1,1.1,1.83,1.62,2.76a2.18,2.18,0,0,1-1.62-2.76m.68,10.21c1.83,2.45,3.68,5,5.47,7.46a24.41,24.41,0,0,1,1.31,2.37,1.34,1.34,0,0,0-.19.3c-2.87,2.17-2.8,2.1-4.94-.73-2-2.62-4.05-5.16-6.07-7.74a12,12,0,0,1-1-1.34,12.31,12.31,0,0,1,1.16-1c2.27-1.59,2.63-1.54,4.24.69M695,161.51c2.12,2.73,4.2,5.46,6.26,8.26a2.23,2.23,0,0,1-1.52,3.73,1,1,0,0,1-.93-.32c-2.88-3.47-5.75-7-8.67-10.58a12,12,0,0,1,1.44-1.48c1.48-1.22,2.26-1.13,3.42.39m25.27-32.17c-1.36-3.54-2.74-7.08-4.09-10.57a1.52,1.52,0,0,1,.42-.16c1.4,3.49,2.76,7,4.16,10.51-.15.09-.32.12-.49.22m4.34-2.93a2.79,2.79,0,0,0-.44.17q-2.45-6.43-4.93-12.8c.17-.11.36-.14.53-.24,1.6,4.3,3.23,8.56,4.84,12.87M695.5,122q8-5.5,15.92-10.94c2.51-1.73,5-3.42,7.82-5.34.38,1.44.7,2.59,1,3.72a2.53,2.53,0,0,1-.35.14c-1-1.85-1.29-1.92-3.09-.65-6.94,4.65-13.86,9.28-20.76,14-.34.2-.74.38-1.09.6-.12-.12-.23-.24-.34-.33a4.65,4.65,0,0,1,.85-1.16m-1.5,8.57c.36.2,1,.25,1.15.56,2.28,3.58,4.54,7.15,6.78,10.76.11.23,0,.59,0,.88-.34-.08-.81,0-.93-.18q-3.65-5.76-7.27-11.58a2.57,2.57,0,0,1,.31-.44m-3.71,3.76c2.42,3.78,4.84,7.48,7.28,11.24-.8.92-1.61,1.82-2.57,2.91-2.83-4.08-5.52-7.93-8.44-12,2,.36,2.93-.25,3.73-2.1m-4.89,3.06c2.78,4.23,5.35,8,7.93,12a33.27,33.27,0,0,1-3.33,2.18,1.79,1.79,0,0,1-1.5-.43c-2.36-3.25-4.69-6.51-7-9.78a1,1,0,0,1,0-.93c1.21-1,2.44-1.93,3.86-3M687.52,153a15,15,0,0,1-2.81,2.21,5.73,5.73,0,0,1-1.42-1c-2.4-3-4.81-6-7.11-9-.18-.27-.15-1,.1-1.2a21.86,21.86,0,0,1,3.26-2c.22-.14.88.29,1.17.64,2.1,2.67,4.17,5.38,6.16,8.16.4.61.9,1.86.65,2.22m-5.88-21.67c.83-.53,1.41-.59,1.83.47,0,.29.3.47.45.71,1.05,1.73.93,2.22-.76,3.41-3.74,2.59-7.47,5.26-11.2,7.85a1.7,1.7,0,0,1-.51.17c-.12-2.93-.12-2.93-2.9-3.74,1.78-1.23,3.35-2.33,4.93-3.41,2.72-1.81,5.47-3.61,8.16-5.46M660.1,137a69.64,69.64,0,0,1-7.23.11,2.94,2.94,0,0,1-1.17-.33c-1.26-.59-1.59-1.38-.79-2.49,2.83-4,5.72-7.92,8.64-11.88.93-1.29,1.91-2.5,3-3.73,1.42-1.67,2.9-3.24,4.57-5.06.68.78,1.17,1.31,1.65,1.9l6.8,7.81c1.14,1.3,1.08,1.62-.6,2.12a1.85,1.85,0,0,1-.53.15c-2.65.81-2.78,1-1.46,3.51.82,1.53,1.83,3,2.83,4.68-1.95,1.36-3.86,2.69-5.86,4a.93.93,0,0,1-.86,0c-2.9-1.75-5.9-1.09-9-.81m4.59,6.06c1.14-1.49,2.89-1.76,5.19-.77-.36,1.28-.8,2.56-1.17,3.82a2.15,2.15,0,0,0-.45-.14c-1-2.67-1.26-2.9-3.57-2.91m-1.34,26.62c-2.45,1.78-2.51,1.78-4.85.09-2.91-2.12-5.76-4.31-8.62-6.42-.9-.66-.89-1.3-.12-1.93,1-.82,2-1.5,3-2.24a7.39,7.39,0,0,1,1.45.77c3.12,2.54,6.21,5,9.28,7.63,1,.92,1,1.28-.18,2.1m7.41-6.16c-.34,2.53-2.67,3.07-4.47,4.05-.53.28-1.82-.36-2.48-.93-3.07-2.55-6.07-5.22-9.1-7.91A10.64,10.64,0,0,1,660,155a5.88,5.88,0,0,0,2.39-1.53,12.26,12.26,0,0,1,5.23-3.57,13.59,13.59,0,0,0,2.49-1.9c1.2-.8,2.38-1.55,3.62-2.31a1.39,1.39,0,0,1,2,.45c2.21,2.79,4.4,5.55,6.58,8.35.84,1.09.71,2.07-.41,2.76A37.44,37.44,0,0,1,678,159.1a1.57,1.57,0,0,0-.63.43,9.1,9.1,0,0,1-6.61,4m2.61,1.12c0-.15,0-.31.06-.42,6.17-4.12,12.34-8.32,18.55-12.47.07.1.1.2.16.27-.63.61-1.28,1.16-1.95,1.77.08.11.1.2.2.32,1.67-.81,3.33-1.62,5.07-2.44l.32.19c1.63,2,1.64,2.08-.47,3.54l-18.78,12.91c.66-2.91-.6-3.95-3.16-3.67m4,6.66a7.62,7.62,0,0,0,1.65-1.15,9,9,0,0,1,5-3.39c.69-.18,1.23-.92,1.84-1.43a12.53,12.53,0,0,1,1.17-1.13c1.79-1.15,2.09-1.07,3.41.59,2.1,2.54,4.28,5.06,6.43,7.62,1.34,1.59,1.21,2.33-.46,3.47-1.83,1.24-3.57,2.54-5.49,3.67a17.92,17.92,0,0,1-3.39,1,3.56,3.56,0,0,1-3.12,3,1.3,1.3,0,0,1-.86-.31c-3.19-2.84-6.41-5.69-9.57-8.59-.17-.17-.27-.33-.72-.83,1.45-.93,2.77-1.75,4.14-2.57m-5.64,8.26c-1.07-.82-2.08-1.62-3.2-2.43,1.47-1.87,3.31-2.63,5.07-1,2.69,2.44,5.59,4.66,8.38,7,.64.53,1.13,1.23.55,2.09-.77,1.08-1.84,1.31-2.72.57-2.72-2-5.42-4.13-8.08-6.22m8.56,9c2.76-1.85,4.87-4.74,8.69-4.2a1.75,1.75,0,0,1,.29.42l-1.65,1,.83,1.12c-3,2.83-5.33,3.4-8.16,1.67M575.25,272c-1.28-.52-2.47-1-4-1.54q86.49-59,172.52-117.76c.82,2.76.33,4.18-2,5.71Q722.14,171.72,702.6,185,686.33,196,670.05,207.12q-14.89,10.13-29.83,20.32-22.68,15.5-45.36,30.93c-6.06,4.15-12.13,8.24-18.15,12.44-.48.33-.93.76-1.46,1.19m72.59,5.23c-2.4.55-4.81,1-7.38,1.55,0-3.43,0-6.73,0-10,0-6.74-.15-13.52-.24-20.32a2.53,2.53,0,0,1,1.3-2.59c.58-.32.83-1.3,1.38-1.78,1.53-1.16,3.14-2.27,4.68-3.4.21.16.42.17.58.32,0,2.79,0,5.68,0,8.49.16,8.86.33,17.63.41,26.45,0,.41-.38,1.2-.7,1.28m1.61-35.78c.18,0,.37,0,.58,0a185.37,185.37,0,0,1,.06,20.28c-.21-6.76-.44-13.53-.64-20.25m.66,21.47h.27v6h-.27Zm.35,13.58h-.19v-5.34a.68.68,0,0,1,.19,0Zm34.3-14.45c-10-5.64-20.07-11.32-30.11-16.93a4,4,0,0,0,.33-.61q15,8.6,30,17.07a4.84,4.84,0,0,1-.21.47m1.9-1.28c-.23.16-.61.05-.9,0-6.34-3.67-12.68-7.27-19.06-11-3.77-2.1-7.51-4.28-11.26-6.47a2.79,2.79,0,0,1-.33-4.07c.43-.36.84-.73,1.29-1.08a2,2,0,0,1,2.75,0,19.61,19.61,0,0,0,2.75,1.72c8.94,5.12,17.86,10.28,26.85,15.45,1.06.58,2.15,1.1,3.62,1.81-2.12,1.4-3.89,2.56-5.71,3.7m22.39-39.23q-.18,8-.29,16c0,1.38.16,2.8.14,4.18a2.68,2.68,0,0,1-.62,1.73c-2.22,2.15-4.54,4.24-6.81,6.37a3,3,0,0,1-.81.45,30.71,30.71,0,0,0,.27-3.15c-.07-7.06-.2-14.2-.15-21.23,0-5.28.23-10.6.38-15.86,0-.4,0-.76,0-1.13.08-1.14-.21-2.55.3-3.36a11.37,11.37,0,0,1,5-4.31c.73-.35,1.49-.56,2.51-1,.09,1.33.26,2.66.25,4,0,5.77-.12,11.49-.2,17.31m1.88,18.19a5.42,5.42,0,0,1-.39,1.47s-.16,0-.19-.09V206.17h.5c0,.47.16.93.16,1.42,0,8.55,0,17.16,0,25.75,0,2.16,0,4.27,0,6.39m19.74-27.56c-2.09-1.1-4.18-2.2-6.25-3.31l.22-.42c2.1,1.14,4.18,2.24,6.27,3.34a2.55,2.55,0,0,0-.24.39m.89-1.44c-1.36-.72-2.58-1.38-3.85-2.12-4.06-2.28-8.15-4.62-12.22-7a2.45,2.45,0,0,1-.64-3.09,2.49,2.49,0,0,1,2.5-1.14c5.45,2.77,10.85,5.6,16.39,8.44-.79,1.78-1.46,3.22-2.18,4.87m11.79-40.89a1.74,1.74,0,0,1-.75,1c-9.38,6.44-18.78,12.78-28.17,19.13-10.69,7.27-21.38,14.62-32.06,21.89Q665.32,223.5,648.17,235c-11.67,7.94-23.34,15.83-35,23.81-8.11,5.57-16.15,11.27-24.25,16.86a2.2,2.2,0,0,1-1.52.32c-2.89-.8-5.79-1.73-8.67-2.59a2.57,2.57,0,0,1-.11-.48c54.61-38.1,110.19-74.85,165-112.77a1.87,1.87,0,0,0,.47.32c-.26,3.1-.47,6.24-.72,9.36" />
            <g class="cls-13">
                <path class="cls-14"
                    d="M84.34,106.66a49.22,49.22,0,0,1,19.93,17.55,47.92,47.92,0,0,1,5.66,12.2A48.55,48.55,0,0,1,108,169.13,48.92,48.92,0,0,1,82.26,195a46.67,46.67,0,0,1-18.94,3.87,47.32,47.32,0,0,1-19-3.87,48.71,48.71,0,0,1-25.89-25.89,47.43,47.43,0,0,1-3.86-19H48.05a15.24,15.24,0,0,0,15.27,15.27A14.39,14.39,0,0,0,74,160.9a14.9,14.9,0,0,0,4.36-10.8A14.06,14.06,0,0,0,74,139.68a14.75,14.75,0,0,0-10.71-4.26h-22V102.1L57.37,86.23H17.9V52.71h92.42V81.07Z" />
                <path class="cls-14"
                    d="M194.51,53.11a70.55,70.55,0,0,1,28.33,5.75A74.89,74.89,0,0,1,246,74.43a73,73,0,0,1,15.65,23.11,72.93,72.93,0,0,1,0,56.72A73,73,0,0,1,246,177.37a74.87,74.87,0,0,1-23.17,15.56,72.52,72.52,0,0,1-56.65,0,72.65,72.65,0,0,1-38.62-38.67,72.81,72.81,0,0,1,0-56.72,72.71,72.71,0,0,1,38.62-38.68A70.54,70.54,0,0,1,194.51,53.11Zm.1,112.06a38,38,0,0,0,15.27-3.08,39.52,39.52,0,0,0,20.93-20.92,39.51,39.51,0,0,0,0-30.54A39.49,39.49,0,0,0,209.88,89.7a39.51,39.51,0,0,0-30.54,0,39.52,39.52,0,0,0-20.92,20.93,39.39,39.39,0,0,0,0,30.54,39.55,39.55,0,0,0,20.92,20.92A38,38,0,0,0,194.61,165.17Z" />
                <path class="cls-14"
                    d="M71.05,235.42V283a26.8,26.8,0,0,1-2.28,11A29.34,29.34,0,0,1,62.68,303a28.21,28.21,0,0,1-8.93,6,27.64,27.64,0,0,1-10.91,2.18h-.3a28.41,28.41,0,0,1-10.86-2.29,28.89,28.89,0,0,1-9.13-6.24,28.22,28.22,0,0,1-6-9.18,27.33,27.33,0,0,1-2-10.91l17.15.2a11.16,11.16,0,0,0,3.15,7.92A10.82,10.82,0,0,0,42.74,294a11.36,11.36,0,0,0,4.26-.81,10.27,10.27,0,0,0,3.55-2.34A11.76,11.76,0,0,0,53,287.27a10.48,10.48,0,0,0,.91-4.36V235.42Z" />
                <path class="cls-14"
                    d="M123.82,311.12l-2.94-9H97.43l-3,9H76.23l25.37-74.48h16.23l24,74.48Zm-20.5-26.18H115.4l-5.89-18.07Z" />
                <path class="cls-14"
                    d="M189.57,311.12l-2.94-9H163.19l-3.05,9H142l25.37-74.48h16.24l24,74.48Zm-20.5-26.18h12.08l-5.89-18.07Z" />
                <path class="cls-14"
                    d="M235.23,291.84c-.88.13-1.76.23-2.63.3l-2.74.2v18.78H212.71V236.94h17.15a33.41,33.41,0,0,1,21.76,8.31,27.44,27.44,0,0,1,6.6,8.72,24.22,24.22,0,0,1,2.38,10.63,24.65,24.65,0,0,1-2.53,11.1,26.85,26.85,0,0,1-7.11,8.87l16.44,26.55H247.21Zm-5.37-16.75a17.48,17.48,0,0,0,5.22-1,15.87,15.87,0,0,0,4.37-2.28,10.91,10.91,0,0,0,2.94-3.3,8,8,0,0,0,1.06-4,7.73,7.73,0,0,0-1.06-4,11.08,11.08,0,0,0-2.94-3.24,15.89,15.89,0,0,0-4.37-2.29,18.13,18.13,0,0,0-5.22-1Z" />
            </g>
            <path class="cls-15"
                d="M92,99a49.14,49.14,0,0,1,19.94,17.55,47.74,47.74,0,0,1,5.65,12.2,47,47,0,0,1,2,13.68,47.48,47.48,0,0,1-3.86,19,48.92,48.92,0,0,1-25.79,25.88A46.64,46.64,0,0,1,71,191.22a47.35,47.35,0,0,1-19-3.87,48.59,48.59,0,0,1-25.88-25.88,47.32,47.32,0,0,1-3.87-19H55.71A15.23,15.23,0,0,0,71,157.7a14.38,14.38,0,0,0,10.71-4.46,14.86,14.86,0,0,0,4.36-10.81A14,14,0,0,0,81.69,132,14.75,14.75,0,0,0,71,127.76H49V94.44L65,78.57H25.56V45.05H118V73.41Z" />
            <path class="cls-15"
                d="M202.18,45.45A70.54,70.54,0,0,1,230.5,51.2a74.6,74.6,0,0,1,23.17,15.57,73,73,0,0,1,15.65,23.1,73,73,0,0,1,0,56.73,72.86,72.86,0,0,1-15.65,23.1,74.6,74.6,0,0,1-23.17,15.57,72.64,72.64,0,0,1-56.65,0,72.83,72.83,0,0,1-38.62-38.67,73,73,0,0,1,0-56.73A72.83,72.83,0,0,1,173.85,51.2,70.55,70.55,0,0,1,202.18,45.45Zm.1,112.06a38.19,38.19,0,0,0,15.27-3.08,39.55,39.55,0,0,0,20.92-20.92,39.42,39.42,0,0,0,0-30.55A39.55,39.55,0,0,0,217.55,82,39.54,39.54,0,0,0,187,82,39.55,39.55,0,0,0,166.08,103a39.54,39.54,0,0,0,0,30.55A39.55,39.55,0,0,0,187,154.43,38.21,38.21,0,0,0,202.28,157.51Z" />
            <path class="cls-15"
                d="M78.71,227.76v47.59a26.8,26.8,0,0,1-2.28,11,29.47,29.47,0,0,1-6.09,8.93,27.91,27.91,0,0,1-8.93,6,27.42,27.42,0,0,1-10.9,2.18H50.2a28.3,28.3,0,0,1-10.86-2.28,29,29,0,0,1-9.13-6.24,28.33,28.33,0,0,1-6-9.18,27.71,27.71,0,0,1-2-10.91l17.15.2A11.18,11.18,0,0,0,42.49,283a10.82,10.82,0,0,0,7.91,3.35,11.27,11.27,0,0,0,4.27-.82,10.58,10.58,0,0,0,3.55-2.33,12,12,0,0,0,2.43-3.55,10.5,10.5,0,0,0,.92-4.37V227.76Z" />
            <path class="cls-15"
                d="M131.48,303.45l-2.94-9H105.1l-3,9H83.89L109.26,229h16.23l24,74.48ZM111,277.27h12.08l-5.89-18.06Z" />
            <path class="cls-15"
                d="M197.23,303.45l-2.94-9H170.85l-3,9H149.64L175,229h16.24l24.05,74.48Zm-20.49-26.18h12.07l-5.88-18.06Z" />
            <path class="cls-15"
                d="M242.9,284.17c-.88.14-1.76.24-2.64.31l-2.74.2v18.77H220.37V229.28h17.15a33.38,33.38,0,0,1,12,2.33,32.74,32.74,0,0,1,9.79,6,27.51,27.51,0,0,1,6.6,8.71,24.27,24.27,0,0,1,2.39,10.64,24.65,24.65,0,0,1-2.54,11.1,26.69,26.69,0,0,1-7.1,8.86l16.43,26.55H254.87Zm-5.38-16.74a18,18,0,0,0,5.22-1,15.75,15.75,0,0,0,4.37-2.29,10.76,10.76,0,0,0,2.94-3.29,8,8,0,0,0,1.07-4,7.74,7.74,0,0,0-1.07-4,11.11,11.11,0,0,0-2.94-3.25,16,16,0,0,0-4.37-2.28,17.68,17.68,0,0,0-5.22-1Z" />
        </g>
    </g>
</svg>