<svg xmlns="http://www.w3.org/2000/svg" width="1422.726" height="225.993" viewBox="0 0 1422.726 225.993"><g transform="translate(-249 -126.684)"><g transform="translate(249 141.197)"><line x2="1.215" transform="translate(1266.16 201.229)"/><line x2="1.215" transform="translate(1266.16 201.229)" fill="none" stroke="#000" stroke-width="4"/><line x2="1.215" transform="translate(1275.297 192.091)" fill="#fff"/><line x2="1.215" transform="translate(1275.297 192.091)" fill="none" stroke="#231f20" stroke-width="4"/><path d="M914.26,146.714h15.186l-7.483-14.994Z" transform="translate(-78.703 -12.416)"/><path d="M914.26,146.714h15.186l-7.483-14.994Z" transform="translate(-78.703 -12.416)" fill="none" stroke="#000" stroke-miterlimit="10" stroke-width="4"/><path d="M924.26,136.714h15.186l-7.483-14.994Z" transform="translate(-79.566 -11.553)" fill="#fff"/><path d="M924.26,136.714h15.186l-7.483-14.994Z" transform="translate(-79.566 -11.553)" fill="none" stroke="#231f20" stroke-miterlimit="10" stroke-width="4"/><rect width="1.215" height="52.457" transform="translate(1273.653 139.095)"/><rect width="1.215" height="52.457" transform="translate(1273.653 139.095)" fill="none" stroke="#000" stroke-width="4"/><rect width="1.215" height="52.457" transform="translate(1282.79 129.958)" fill="#fff"/><rect width="1.215" height="52.457" transform="translate(1282.79 129.958)" fill="none" stroke="#231f20" stroke-width="4"/><path d="M779.633,84.57H765.16v62.874h14.473q15.159,0,22.076-9.667c4.614-6.442,6.917-10.2,6.917-21.774s-2.3-15.323-6.917-21.774S789.758,84.57,779.633,84.57Z" transform="translate(-65.84 -8.348)" fill="none" stroke="#000" stroke-miterlimit="10" stroke-width="4"/><path d="M789.633,74.57H775.16v62.874h14.473q15.159,0,22.076-9.667c4.614-6.442,6.917-10.2,6.917-21.774s-2.3-15.323-6.917-21.774S799.758,74.57,789.633,74.57Z" transform="translate(-66.703 -7.486)" fill="none" stroke="#231f20" stroke-miterlimit="10" stroke-width="4"/><path d="M832.843,167.916A77.474,77.474,0,0,0,846.129,140.8a115.23,115.23,0,0,0,4.075-30.208A111.221,111.221,0,0,0,845.912,80a76.132,76.132,0,0,0-13.617-26.808,69.3,69.3,0,0,0-24.049-19q-14.693-7.282-35.58-7.282H714.68V194.926h57.985q21.3,0,36.129-7.465a68.2,68.2,0,0,0,24.049-19.545ZM797.372,132.8q-6.917,9.676-22.076,9.667H760.8V79.6h14.473q15.159,0,22.076,9.658c4.614,6.451,6.917,10.215,6.917,21.774S801.987,126.36,797.372,132.8Z" transform="translate(-61.485 -3.374)"/><path d="M832.843,167.916A77.474,77.474,0,0,0,846.129,140.8a115.23,115.23,0,0,0,4.075-30.208A111.221,111.221,0,0,0,845.912,80a76.132,76.132,0,0,0-13.617-26.808,69.3,69.3,0,0,0-24.049-19q-14.693-7.282-35.58-7.282H714.68V194.926h57.985q21.3,0,36.129-7.465a68.2,68.2,0,0,0,24.049-19.545ZM797.372,132.8q-6.917,9.676-22.076,9.667H760.8V79.6h14.473q15.159,0,22.076,9.658c4.614,6.451,6.917,10.215,6.917,21.774S801.987,126.36,797.372,132.8Z" transform="translate(-61.485 -3.374)" fill="none" stroke="#000" stroke-width="4"/><path d="M842.843,157.916A77.475,77.475,0,0,0,856.129,130.8a115.235,115.235,0,0,0,4.075-30.208A111.224,111.224,0,0,0,855.912,70a76.133,76.133,0,0,0-13.617-26.808,69.3,69.3,0,0,0-24.049-19q-14.693-7.282-35.581-7.282H724.68V184.926h57.985q21.3,0,36.129-7.465a68.2,68.2,0,0,0,24.049-19.545ZM807.372,122.8q-6.917,9.676-22.076,9.667H770.8V69.6h14.473q15.159,0,22.076,9.658c4.614,6.451,6.917,10.215,6.917,21.774S811.987,116.36,807.372,122.8Z" transform="translate(-62.347 -2.511)" fill="#fff"/><path d="M842.843,157.916A77.475,77.475,0,0,0,856.129,130.8a115.235,115.235,0,0,0,4.075-30.208A111.224,111.224,0,0,0,855.912,70a76.133,76.133,0,0,0-13.617-26.808,69.3,69.3,0,0,0-24.049-19q-14.693-7.282-35.581-7.282H724.68V184.926h57.985q21.3,0,36.129-7.465a68.2,68.2,0,0,0,24.049-19.545ZM807.372,122.8q-6.917,9.676-22.076,9.667H770.8V69.6h14.473q15.159,0,22.076,9.658c4.614,6.451,6.917,10.215,6.917,21.774S811.987,116.36,807.372,122.8Z" transform="translate(-62.347 -2.511)" fill="none" stroke="#231f20" stroke-width="4"/><path d="M914.534,24.51,838.32,194.719h47.66l5.711-14.272h46.783l5.711,14.272h49.862L917.833,24.51Zm-6.826,112.955,7.7-15,7.483,15Z" transform="translate(-72.152 -3.167)"/><path d="M914.534,24.51,838.32,194.719h47.66l5.711-14.272h46.783l5.711,14.272h49.862L917.833,24.51Zm-6.826,112.955,7.7-15,7.483,15Z" transform="translate(-72.152 -3.167)" fill="none" stroke="#000" stroke-width="4"/><path d="M924.534,14.51,848.32,184.719h47.66l5.711-14.272h46.783l5.711,14.272h49.862L927.833,14.51Zm-6.826,112.955,7.7-15,7.483,15Z" transform="translate(-73.014 -2.304)" fill="#fff"/><path d="M924.534,14.51,848.32,184.719h47.66l5.711-14.272h46.783l5.711,14.272h49.862L927.833,14.51Zm-6.826,112.955,7.7-15,7.483,15Z" transform="translate(-73.014 -2.304)" fill="none" stroke="#231f20" stroke-width="4"/><path d="M1487.505,109.584,1396.571,15.9h-2.851V25.96h.548V75.8h-.548v65.715h1.206v52.457h42.945V112.764l91.144,96.517h2.641V25.96h-44.151Z" transform="translate(-120.067 -2.424)"/><path d="M1487.505,109.584,1396.571,15.9h-2.851V25.96h.548V75.8h-.548v65.715h1.206v52.457h42.945V112.764l91.144,96.517h2.641V25.96h-44.151Z" transform="translate(-120.067 -2.424)" fill="none" stroke="#000" stroke-width="4"/><path d="M1497.5,99.584,1406.571,5.9h-2.851V15.96h.548V65.8h-.548v65.715h1.206v52.457h42.945V102.764l91.144,96.517h2.641V15.96H1497.5Z" transform="translate(-120.93 -1.561)" fill="#fff"/><path d="M1497.5,99.584,1406.571,5.9h-2.851V15.96h.548V65.8h-.548v65.715h1.206v52.457h42.945V102.764l91.144,96.517h2.641V15.96H1497.5Z" transform="translate(-120.93 -1.561)" fill="none" stroke="#231f20" stroke-width="4"/><path d="M1297.119,137.645v-.868H1360.6V80.7h-63.477V79.678h63.806V25.96h-109.93v87.389c-3.116-13.149-9.512-24.872-24.305-31.569V37.2h-34.064s-36.7,2.933-37.563,31.167,18.348,34.347,33.2,38.724,22.094,15.232,21.838,24.46c-.265,9.768-15.725,28.581-40.2,23.026l-18.375,15.835V26.042h-44.151v83.624L1016.44,15.9h-2.86V193.976h44.151V112.755l91.153,99.149h2.632V189.316c18.786,6.707,51.891,14.373,77.795-1.827a49.405,49.405,0,0,0,21.683-27.887v34.411h109.93V137.645Z" transform="translate(-87.272 -2.424)"/><path d="M1297.119,137.645v-.868H1360.6V80.7h-63.477V79.678h63.806V25.96h-109.93v87.389c-3.116-13.149-9.512-24.872-24.305-31.569V37.2h-34.064s-36.7,2.933-37.563,31.167,18.348,34.347,33.2,38.724,22.094,15.232,21.838,24.46c-.265,9.768-15.725,28.581-40.2,23.026l-18.375,15.835V26.042h-44.151v83.624L1016.44,15.9h-2.86V193.976h44.151V112.755l91.153,99.149h2.632V189.316c18.786,6.707,51.891,14.373,77.795-1.827a49.405,49.405,0,0,0,21.683-27.887v34.411h109.93V137.645Z" transform="translate(-87.272 -2.424)" fill="none" stroke="#000" stroke-width="4"/><path d="M1307.119,127.645v-.868H1370.6V70.7h-63.477V69.678h63.806V15.96H1260.994v87.389c-3.116-13.149-9.512-24.872-24.305-31.569V27.2h-34.064s-36.7,2.933-37.563,31.167,18.348,34.347,33.2,38.724,22.094,15.232,21.838,24.46c-.265,9.768-15.725,28.581-40.2,23.026l-18.375,15.835V16.042h-44.151V99.667L1026.44,5.9h-2.86V183.976h44.151V102.755l91.153,99.149h2.632V179.316c18.786,6.707,51.891,14.373,77.795-1.827a49.4,49.4,0,0,0,21.683-27.887v34.411h109.931V127.645Z" transform="translate(-88.134 -1.561)" fill="#fff"/><path d="M1307.119,127.645v-.868H1370.6V70.7h-63.477V69.678h63.806V15.96H1260.994v87.389c-3.116-13.149-9.512-24.872-24.305-31.569V27.2h-34.064s-36.7,2.933-37.563,31.167,18.348,34.347,33.2,38.724,22.094,15.232,21.838,24.46c-.265,9.768-15.725,28.581-40.2,23.026l-18.375,15.835V16.042h-44.151V99.667L1026.44,5.9h-2.86V183.976h44.151V102.755l91.153,99.149h2.632V179.316c18.786,6.707,51.891,14.373,77.795-1.827a49.4,49.4,0,0,0,21.683-27.887v34.411h109.931V127.645Z" transform="translate(-88.134 -1.561)" fill="none" stroke="#231f20" stroke-width="4"/><path d="M623.555,140.1v-1.234h65.514V83.8H623.555v-.64h66.419V24.92H575.95V198.336H690.659V140.1Z" transform="translate(-49.516 -3.202)"/><path d="M623.555,140.1v-1.234h65.514V83.8H623.555v-.64h66.419V24.92H575.95V198.336H690.659V140.1Z" transform="translate(-49.516 -3.202)" fill="none" stroke="#000" stroke-width="4"/><path d="M633.555,130.1v-1.234h65.514V73.8H633.555v-.64h66.419V14.92H585.95V188.336H700.659V130.1Z" transform="translate(-50.379 -2.339)" fill="#fff"/><path d="M633.555,130.1v-1.234h65.514V73.8H633.555v-.64h66.419V14.92H585.95V188.336H700.659V130.1Z" transform="translate(-50.379 -2.339)" fill="none" stroke="#231f20" stroke-width="4"/><path d="M432.92,156.488v41.849h79.567a51.708,51.708,0,0,0,21.2-4.084,47.112,47.112,0,0,0,15.533-10.873,44.534,44.534,0,0,0,9.512-15.981,58.824,58.824,0,0,0,3.18-19.389,52.22,52.22,0,0,0-5.1-23.419,43.86,43.86,0,0,0-14.62-16.895q14.053-11.138,14.044-33.36A62.279,62.279,0,0,0,553.4,55.411a43.237,43.237,0,0,0-8.836-15.753,41.959,41.959,0,0,0-15.415-10.773q-9.421-3.966-22.779-3.966H432.92V139.328a60.655,60.655,0,0,1,.621,8.68A61.521,61.521,0,0,1,432.92,156.488ZM479.8,84.3h0v52.749l25.392.521-25.392-.521Z" transform="translate(-37.177 -3.202)"/><path d="M432.92,156.488v41.849h79.567a51.708,51.708,0,0,0,21.2-4.084,47.112,47.112,0,0,0,15.533-10.873,44.534,44.534,0,0,0,9.512-15.981,58.824,58.824,0,0,0,3.18-19.389,52.22,52.22,0,0,0-5.1-23.419,43.86,43.86,0,0,0-14.62-16.895q14.053-11.138,14.044-33.36A62.279,62.279,0,0,0,553.4,55.411a43.237,43.237,0,0,0-8.836-15.753,41.959,41.959,0,0,0-15.415-10.773q-9.421-3.966-22.779-3.966H432.92V139.328a60.655,60.655,0,0,1,.621,8.68A61.521,61.521,0,0,1,432.92,156.488ZM479.8,84.3h0v52.749l25.392.521-25.392-.521Z" transform="translate(-37.177 -3.202)" fill="none" stroke="#000" stroke-width="4"/><path d="M442.92,146.488v41.849h79.567a51.708,51.708,0,0,0,21.2-4.084,47.111,47.111,0,0,0,15.533-10.873,44.535,44.535,0,0,0,9.512-15.981,58.826,58.826,0,0,0,3.18-19.389,52.22,52.22,0,0,0-5.1-23.419,43.859,43.859,0,0,0-14.62-16.895q14.053-11.138,14.044-33.36A62.279,62.279,0,0,0,563.4,45.411a43.237,43.237,0,0,0-8.836-15.753,41.957,41.957,0,0,0-15.415-10.773q-9.421-3.966-22.779-3.966H442.92V129.328a60.651,60.651,0,0,1,.621,8.68,61.521,61.521,0,0,1-.621,8.479ZM489.8,74.3h0v52.749l25.393.521-25.393-.521Z" transform="translate(-38.039 -2.339)" fill="#fff"/><path d="M442.92,146.488v41.849h79.567a51.708,51.708,0,0,0,21.2-4.084,47.111,47.111,0,0,0,15.533-10.873,44.535,44.535,0,0,0,9.512-15.981,58.826,58.826,0,0,0,3.18-19.389,52.22,52.22,0,0,0-5.1-23.419,43.859,43.859,0,0,0-14.62-16.895q14.053-11.138,14.044-33.36A62.279,62.279,0,0,0,563.4,45.411a43.237,43.237,0,0,0-8.836-15.753,41.957,41.957,0,0,0-15.415-10.773q-9.421-3.966-22.779-3.966H442.92V129.328a60.651,60.651,0,0,1,.621,8.68,61.521,61.521,0,0,1-.621,8.479ZM489.8,74.3h0v52.749l25.393.521-25.393-.521Z" transform="translate(-38.039 -2.339)" fill="none" stroke="#231f20" stroke-width="4"/><path d="M416.255,124a43.712,43.712,0,0,0-14.62-16.895Q415.7,96.006,415.7,73.784a62.609,62.609,0,0,0-2.833-18.923,43.256,43.256,0,0,0-8.845-15.753,41.958,41.958,0,0,0-15.415-10.773q-9.421-3.966-22.779-3.966h-72.7V197.786h78.809a51.708,51.708,0,0,0,21.2-4.084,46.974,46.974,0,0,0,15.533-10.873,44.489,44.489,0,0,0,9.521-15.981,56.908,56.908,0,0,0,2.549-10.91v-17.16A48.427,48.427,0,0,0,416.255,124Z" transform="translate(-25.117 -3.155)"/><path d="M416.255,124a43.712,43.712,0,0,0-14.62-16.895Q415.7,96.006,415.7,73.784a62.609,62.609,0,0,0-2.833-18.923,43.256,43.256,0,0,0-8.845-15.753,41.958,41.958,0,0,0-15.415-10.773q-9.421-3.966-22.779-3.966h-72.7V197.786h78.809a51.708,51.708,0,0,0,21.2-4.084,46.974,46.974,0,0,0,15.533-10.873,44.489,44.489,0,0,0,9.521-15.981,56.908,56.908,0,0,0,2.549-10.91v-17.16A48.427,48.427,0,0,0,416.255,124Z" transform="translate(-25.117 -3.155)" fill="none" stroke="#000" stroke-width="4"/><path d="M426.255,114a43.712,43.712,0,0,0-14.62-16.895Q425.7,86.006,425.7,63.784a62.608,62.608,0,0,0-2.833-18.923,43.255,43.255,0,0,0-8.845-15.753,41.958,41.958,0,0,0-15.415-10.773q-9.421-3.966-22.779-3.966h-72.7V187.786h78.809a51.708,51.708,0,0,0,21.2-4.084,46.974,46.974,0,0,0,15.533-10.873,44.49,44.49,0,0,0,9.521-15.981,56.906,56.906,0,0,0,2.549-10.91v-17.16A48.427,48.427,0,0,0,426.255,114Z" transform="translate(-25.979 -2.292)" fill="#fff"/><path d="M426.255,114a43.712,43.712,0,0,0-14.62-16.895Q425.7,86.006,425.7,63.784a62.608,62.608,0,0,0-2.833-18.923,43.255,43.255,0,0,0-8.845-15.753,41.958,41.958,0,0,0-15.415-10.773q-9.421-3.966-22.779-3.966h-72.7V187.786h78.809a51.708,51.708,0,0,0,21.2-4.084,46.974,46.974,0,0,0,15.533-10.873,44.49,44.49,0,0,0,9.521-15.981,56.906,56.906,0,0,0,2.549-10.91v-17.16A48.427,48.427,0,0,0,426.255,114Z" transform="translate(-25.979 -2.292)" fill="none" stroke="#231f20" stroke-width="4"/><path d="M375.946,79.37H354.4v52.749h25.4" transform="translate(-30.402 -7.9)" fill="none" stroke="#231f20" stroke-width="4"/><circle cx="85.772" cy="85.772" r="85.772" transform="translate(100.466 162.89) rotate(-80.02)" fill="#231f20" stroke="#231f20" stroke-miterlimit="10" stroke-width="4"/><circle cx="85.772" cy="85.772" r="85.772" transform="translate(104.592 156.751) rotate(-80.02)" fill="none" stroke="#231f20" stroke-miterlimit="10" stroke-width="4"/><path d="M195.336,12a86.091,86.091,0,0,0-65.706,30.354V23.805H2V72.544H41.9V197.222H89.5V72.544h23.437A86.329,86.329,0,1,0,195.336,12Z" transform="translate(0 -2.087)"/><path d="M195.336,12a86.091,86.091,0,0,0-65.706,30.354V23.805H2V72.544H41.9V197.222H89.5V72.544h23.437A86.329,86.329,0,1,0,195.336,12Z" transform="translate(0 -2.087)" fill="none" stroke="#000" stroke-width="4"/><path d="M205.336,2a86.091,86.091,0,0,0-65.706,30.354V13.805H12V62.544H51.9V187.222H99.5V62.544h23.437A86.329,86.329,0,1,0,205.336,2Z" transform="translate(-0.863 -1.225)" fill="#fff"/><path d="M205.336,2a86.091,86.091,0,0,0-65.706,30.354V13.805H12V62.544H51.9V187.222H99.5V62.544h23.437A86.329,86.329,0,1,0,205.336,2Z" transform="translate(-0.863 -1.225)" fill="none" stroke="#231f20" stroke-width="4"/><path d="M243.15,89.848a6.826,6.826,0,0,0-7.081.676,5.272,5.272,0,0,1-7.31-.329c-.585-.859-1.307.521-1.307.521L221.906,93.5l-1.645,1.827-2.568,2.979-2.44.576-2.75-1.078-2.357-.621-.758-1.16V94.2L208,94.4l-.749-.365.831-2.074,1.279-1.736.969-1.754.283-1.343-.475-1.827,1-1.992.813-1.316,1.16-.667s.621-3.874,6.085,3.134l.311.274.832.32,1.307,1.334,1.965-.365,1.974-.6,2.248-1.106a10.052,10.052,0,0,1,1.608-.914,10.248,10.248,0,0,0,.722-1.179l.521-.768h1.407l1.69-.082,2.933-3.929,2.339-2.878,2.092-2.97,2-2.111,3.426-3.81,2.979-2.44,1.087-1.5.64-1.38.969-1.252,1.407-.411,1.17.329,1.124,1.5.164,1.4,4.221,5.482,1.654,1.681.841.795h1.544l5.656-.247,1.288,3.874-.649,2.421-1.645,2.5-.6,1.261-1.48.164-6.643-1.023-2.458-4.569,2.741-1.352-.32-.85-6.414-7.6-.667.238L240.263,81.661l13.843.777,12.838,16.739L254.691,107.4l-1.553.2-1.361.238-2.467-1.535.082-1.581L242,96.555l-3.1,1.188-2.293-1.188.32-2.394Z" transform="translate(-17.707 -6.116)" fill="#fff" fill-rule="evenodd"/><path d="M192.29,176.685c37.116-25.932,74.926-50.867,112.133-76.625l.274.2c-.146,2.12-.274,4.231-.466,6.341a1.142,1.142,0,0,1-.521.713c-6.4,4.34-12.792,8.653-19.133,12.993-7.31,4.952-14.5,9.932-21.774,14.875q-11.6,7.885-23.245,15.725c-7.931,5.382-15.862,10.745-23.757,16.164-5.482,3.792-10.965,7.666-16.447,11.476a1.334,1.334,0,0,1-1.014.183c-1.983-.539-3.947-1.142-5.921-1.736A1.179,1.179,0,0,1,192.29,176.685ZM278,122.921c.365-.055.786,0,.959-.174a4.368,4.368,0,0,0,1.179-1.562c.265-.859-.484-1.425-1.142-1.636-.457-.146-1.1.164-1.636.347-.119,0-.155.365-.219.557l.566.164a3.463,3.463,0,0,1,.914.32.74.74,0,0,1,0,.64,6.014,6.014,0,0,1-.914.155,5.481,5.481,0,0,0-.786.32,3.179,3.179,0,0,0,.5.722C277.559,122.9,277.824,122.848,278,122.921Zm-42.342,27.156a1.535,1.535,0,0,0,2.348.256,1.645,1.645,0,0,0,.813-2.019,1.3,1.3,0,0,0-1.5-1.023c-.539.091-1.224.238-1.288.831.539.3,1.2.475,1.243.758C237.529,150.26,236.021,149.346,235.656,150.077Z" transform="translate(-16.417 -9.685)" fill="#fff" fill-rule="evenodd"/><path d="M189.521,175.564l-2.741-1.06L304.011,94.48a2.9,2.9,0,0,1-1.334,3.892q-13.322,9.018-26.626,18.055-11.065,7.493-22.112,15.031l-20.285,13.825L202.825,166.3c-4.1,2.805-8.224,5.61-12.317,8.434a12.3,12.3,0,0,0-.987.831Z" transform="translate(-15.941 -9.203)" fill="#fff" fill-rule="evenodd"/><path d="M288.716,129.87a25.981,25.981,0,0,1,.183,2.686c0,3.92-.082,7.831-.155,11.741-.055,3.655-.128,7.255-.183,10.873,0,.914.11,1.91.082,2.851a1.827,1.827,0,0,1-.4,1.151c-1.517,1.489-3.079,2.924-4.642,4.368a3.417,3.417,0,0,1-.539.311c.064-.822.164-1.489.164-2.166,0-4.806-.119-9.622-.1-14.428,0-3.591.183-7.191.274-10.782v-.768c.046-.768-.164-1.718.2-2.293a8,8,0,0,1,3.417-2.915C287.51,130.272,288.031,130.117,288.716,129.87Z" transform="translate(-24.248 -12.256)" fill="#fff" fill-rule="evenodd"/><path d="M259.781,101.4c-.228,1.718-1.827,2.083-3.043,2.741-.356.183-1.234-.247-1.681-.621-2.092-1.745-4.112-3.564-6.177-5.382a7.164,7.164,0,0,1,3.564-2.54,3.536,3.536,0,0,0,1.626-1.033,8.424,8.424,0,0,1,3.573-2.412,11.66,11.66,0,0,0,1.69-1.316c.8-.557,1.626-1.078,2.449-1.581a.914.914,0,0,1,1.343.283c1.5,1.9,3.006,3.783,4.477,5.7a1.124,1.124,0,0,1-.292,1.827c-.813.484-1.727.813-2.595,1.224a1.069,1.069,0,0,0-.429.311,6.213,6.213,0,0,1-4.5,2.8Z" transform="translate(-21.299 -8.737)" fill="#fff" fill-rule="evenodd"/><path d="M238.252,185.818v-6.789q-.064-6.926-.174-13.834a1.718,1.718,0,0,1,.914-1.736c.411-.238.567-.914.959-1.206,1.023-.813,2.12-1.535,3.18-2.3l.384.183v5.793c.1,5.985.21,11.979.283,17.973,0,.292-.265.795-.484.85C241.661,185.151,240.016,185.452,238.252,185.818Z" transform="translate(-20.366 -14.852)" fill="#fff" fill-rule="evenodd"/><path d="M272.395,114.162a2.476,2.476,0,0,1-2.138,2.056.831.831,0,0,1-.576-.21q-3.262-2.915-6.5-5.848a5.738,5.738,0,0,1-.484-.585c.969-.594,1.891-1.16,2.8-1.736a4.7,4.7,0,0,0,1.115-.786,6.3,6.3,0,0,1,3.39-2.3c.457-.119.841-.612,1.234-.914a10.882,10.882,0,0,1,.831-.768c1.215-.8,1.389-.74,2.312.375,1.425,1.745,2.9,3.454,4.349,5.172.914,1.1.831,1.608-.32,2.385s-2.431,1.736-3.71,2.476a11.193,11.193,0,0,1-2.3.685Z" transform="translate(-22.491 -9.898)" fill="#fff" fill-rule="evenodd"/><path d="M274.436,170.88c-1.435.914-2.641,1.727-3.874,2.494a.722.722,0,0,1-.594-.046c-4.322-2.458-8.644-4.943-12.966-7.419l-7.657-4.413a1.928,1.928,0,0,1-.219-2.741l.914-.713a1.288,1.288,0,0,1,1.873,0,13.1,13.1,0,0,0,1.827,1.142l18.275,10.49C272.727,170.021,273.44,170.368,274.436,170.88Z" transform="translate(-21.28 -14.652)" fill="#fff" fill-rule="evenodd"/><path d="M170.017,116.289l-1.827,1.069c.256-.621.411-.969.557-1.325-.055-.064-.11-.119-.164-.192-.247.11-.594.155-.731.347-.831,1.179-2.156,1.526-3.335,2.1a9.669,9.669,0,0,1-1.389.576,1.828,1.828,0,0,1-.667,0c.091-.219.128-.521.283-.63a11.706,11.706,0,0,1,1.727-1.014,8.288,8.288,0,0,0,3.856-3.655c.74-1.316,1.27-1.453,2.449-.512.42.329.859.658,1.261,1.005,1.4,1.16,2.549,1.288,4,.164a35.407,35.407,0,0,1,11.586-5.674c2.686-.822,5.163-2.357,7.721-3.591,2.9-1.4,5.793-2.814,8.69-4.221a3.4,3.4,0,0,1,.521-.137,3.9,3.9,0,0,1-2.33,2.686c-2.038,1.033-4.093,2.01-6.1,3.079a2.741,2.741,0,0,0-1.087,1.206A3.527,3.527,0,0,1,191.2,109.5a4.1,4.1,0,0,0-2.257.356c-4.4,2.092-8.772,4.258-13.121,6.4a3.582,3.582,0,0,0-1.188,1.234c-.411.6-.667,1.3-1.051,1.919a1,1,0,0,1-1.416.512c-.7-.3-1.352-.777-1.2-1.489C171.177,117.413,170.5,116.928,170.017,116.289Z" transform="translate(-13.843 -9.731)" fill="#fff" fill-rule="evenodd"/><path d="M275.51,93.976l-1.325,1.188c0,.073.073.146.119.219l3.445-1.663a1.006,1.006,0,0,1,.228.155c1.106,1.361,1.115,1.38-.32,2.367-4.157,2.887-8.333,5.747-12.792,8.79.457-1.974-.4-2.668-2.166-2.494a2.427,2.427,0,0,1,.055-.274l12.6-8.47Z" transform="translate(-22.491 -9.138)" fill="#fff" fill-rule="evenodd"/><path d="M306.426,133.459l-1.517,3.335c-.914-.5-1.763-.914-2.613-1.425l-8.315-4.742a1.663,1.663,0,0,1-.42-2.1,1.636,1.636,0,0,1,1.709-.768C298.979,129.64,302.661,131.54,306.426,133.459Z" transform="translate(-25.136 -12.072)" fill="#fff" fill-rule="evenodd"/><path d="M247.219,99.34a5.819,5.819,0,0,1,.987.521c2.111,1.718,4.221,3.436,6.3,5.19.713.6.658.914-.119,1.435-1.672,1.179-1.69,1.215-3.308,0-1.974-1.425-3.892-2.924-5.848-4.368-.6-.448-.594-.914-.091-1.307C245.812,100.3,246.552,99.824,247.219,99.34Z" transform="translate(-20.945 -9.623)" fill="#fff" fill-rule="evenodd"/><path d="M261.125,87.17c-.064-2.019-.064-2.019-1.955-2.549,1.2-.831,2.266-1.59,3.353-2.321,1.827-1.243,3.7-2.458,5.537-3.655.557-.384.969-.411,1.234.32a2.494,2.494,0,0,0,.311.475c.74,1.179.64,1.517-.5,2.312-2.549,1.763-5.089,3.554-7.62,5.327A1.379,1.379,0,0,1,261.125,87.17Z" transform="translate(-22.187 -7.814)" fill="#fff" fill-rule="evenodd"/><path d="M271.435,83.1l5.382,8.132a23.142,23.142,0,0,1-2.239,1.471,1.087,1.087,0,0,1-1.005-.3c-1.617-2.184-3.189-4.4-4.76-6.643a.685.685,0,0,1,0-.64C269.653,84.443,270.494,83.813,271.435,83.1Z" transform="translate(-23.012 -8.221)" fill="#fff" fill-rule="evenodd"/><path d="M270.626,95.509a4.267,4.267,0,0,1-.969-.658q-2.458-3.061-4.824-6.159a.8.8,0,0,1,.073-.795,14.881,14.881,0,0,1,2.2-1.389c.164-.082.63.2.8.429,1.416,1.827,2.833,3.655,4.185,5.574.283.411.612,1.243.439,1.48A9.631,9.631,0,0,1,270.626,95.509Z" transform="translate(-22.669 -8.514)" fill="#fff" fill-rule="evenodd"/><path d="M278.57,99.155c.32-.274.539-.512.795-.685,1.553-1.087,1.827-1.042,2.887.466,1.234,1.7,2.495,3.372,3.655,5.08a15.6,15.6,0,0,1,.914,1.6c-.082.11-.11.174-.164.21-1.928,1.462-1.891,1.435-3.335-.5-1.334-1.827-2.741-3.49-4.139-5.236C279.009,99.8,278.826,99.529,278.57,99.155Z" transform="translate(-23.86 -9.483)" fill="#fff" fill-rule="evenodd"/><path d="M275.21,101.71a10.966,10.966,0,0,1,.978-1.033c1.014-.813,1.526-.758,2.321.283,1.435,1.827,2.851,3.728,4.258,5.61a1.517,1.517,0,0,1-1.023,2.54.8.8,0,0,1-.649-.228C279.139,106.525,277.2,104.149,275.21,101.71Z" transform="translate(-23.571 -9.69)" fill="#fff" fill-rule="evenodd"/><path d="M259.2,112.557c1-1.261,2.229-1.827,3.445-.667,1.827,1.672,3.783,3.171,5.693,4.742.439.375.777.831.375,1.4a1.224,1.224,0,0,1-1.827.42c-1.827-1.407-3.655-2.833-5.482-4.249Z" transform="translate(-22.189 -10.651)" fill="#fff" fill-rule="evenodd"/><path d="M288.2,104.637c-1.754-2.568-3.49-5.08-5.172-7.611a.914.914,0,0,1,.073-.859c1.243-1.06,1.7-1.352,2.632.2,1.179,1.928,2.421,3.819,3.655,5.7.914,1.453.914,1.553-.63,2.312Z" transform="translate(-24.239 -9.273)" fill="#fff" fill-rule="evenodd"/><path d="M272.58,82.245a1.937,1.937,0,0,0,2.513-1.425l4.952,7.648-1.727,1.965Z" transform="translate(-23.344 -8.025)" fill="#fff" fill-rule="evenodd"/><path d="M289.155,105.993c-1.7,1.252-3.417,2.494-5.117,3.755-.238.174-.475.375-.74.594.466.621.914.795,1.489.347.914-.685,1.827-1.352,2.787-1.965.247-.164.63-.1.959-.137a1.5,1.5,0,0,0,.091.347l-9.686,6.652c-.311-.42-.512-.914-.85-1.087a4.459,4.459,0,0,0-1.489-.155c.155-.228.192-.356.274-.411q5.565-3.719,11.147-7.41c.338-.228.7-.4,1.069-.6Z" transform="translate(-23.69 -10.19)" fill="#fff" fill-rule="evenodd"/><path d="M295.283,59.54c.274.959.5,1.754.74,2.549l-.265.064c-.676-1.243-.868-1.279-2.111-.439q-7.045,4.751-14.108,9.494c-.228.155-.475.265-.722.4l-.238-.228a3.179,3.179,0,0,1,.594-.777c3.591-2.494,7.2-4.962,10.809-7.438Z" transform="translate(-23.861 -6.189)" fill="#fff" fill-rule="evenodd"/><path d="M290.25,157.987V134.23h.338a6.886,6.886,0,0,1,.119.914q0,8.744-.046,17.507v4.368a4.339,4.339,0,0,1-.265,1Z" transform="translate(-24.868 -12.633)" fill="#fff" fill-rule="evenodd"/><path d="M274.052,118.3l-1.142.676.576.749c-2.019,1.946-3.609,2.312-5.555,1.16,1.882-1.279,3.308-3.235,5.921-2.851Z" transform="translate(-22.942 -11.231)" fill="#fff" fill-rule="evenodd"/><path d="M249.068,162.77l20.385,11.6-.164.292L248.84,163.19C248.922,163.044,248.986,162.907,249.068,162.77Z" transform="translate(-21.296 -15.095)" fill="#fff" fill-rule="evenodd"/><path d="M278.06,78c.274.119.658.155.795.365q2.348,3.655,4.569,7.31c.091.128,0,.375,0,.576-.219,0-.548,0-.63-.119q-2.494-3.9-4.943-7.849Z" transform="translate(-23.798 -7.781)" fill="#fff" fill-rule="evenodd"/><path d="M307.889,92.79c.292.649.5,1.124.722,1.6l-.137.1a2.3,2.3,0,0,1-.356-.3c-.393-.612-.8-.53-1.343-.155q-4.258,2.942-8.543,5.848c-.8.548-1.654,1.033-2.476,1.544a2.452,2.452,0,0,1-.164-.256Z" transform="translate(-25.329 -9.057)" fill="#fff" fill-rule="evenodd"/><path d="M292.6,101.361,287.17,92.7l.247-.219a2.166,2.166,0,0,1,.466.393L292.04,99.6c.2.32.475.594.658.914a5.065,5.065,0,0,1,.265.768Z" transform="translate(-24.602 -9.031)" fill="#fff" fill-rule="evenodd"/><path d="M170.51,121c.119.292.21.521.292.74-2.549,1.672-4.569,2.339-5.482,1.672Z" transform="translate(-14.09 -11.491)" fill="#fff" fill-rule="evenodd"/><path d="M245.359,160.47a123.608,123.608,0,0,1,0,13.77q-.21-6.88-.429-13.706Z" transform="translate(-20.958 -14.896)" fill="#fff" fill-rule="evenodd"/><path d="M258.771,89.227c-.658-1.827-.859-1.974-2.421-1.974.777-1.005,1.955-1.206,3.527-.512-.274.85-.539,1.718-.813,2.586Z" transform="translate(-21.943 -8.5)" fill="#fff" fill-rule="evenodd"/><path d="M169.158,119.662c-.831.466-1.636.914-2.467,1.389-.64.338-1.307.612-1.955.914a1.827,1.827,0,0,1-2.266,0l6.515-2.595C169.04,119.452,169.095,119.553,169.158,119.662Z" transform="translate(-13.844 -11.351)" fill="#fff" fill-rule="evenodd"/><path d="M260.238,105.194c.228-.256.429-.667.694-.713a8.077,8.077,0,0,1,1.937-.055.8.8,0,0,1,.548.429,3.3,3.3,0,0,1-1.188,2.677c.512-2.038-.064-2.741-2.01-2.357Z" transform="translate(-22.277 -10.058)" fill="#fff" fill-rule="evenodd"/><path d="M276.112,118.491c-.868-.64-.64-1.827-2.1-1.7.969-1.042,1.891-.63,2.9-.722C276.614,116.919,276.367,117.723,276.112,118.491Z" transform="translate(-23.467 -11.065)" fill="#fff" fill-rule="evenodd"/><path d="M300.213,74.215q-1.672-4.349-3.363-8.708l.356-.137L300.5,74.1Z" transform="translate(-25.437 -6.692)" fill="#fff" fill-rule="evenodd"/><path d="M294.864,69.12l2.842,7.2-.329.137q-1.38-3.591-2.787-7.182Z" transform="translate(-25.243 -7.015)" fill="#fff" fill-rule="evenodd"/><path d="M303.2,90.872l-2.33-5.811.247-.1,2.357,5.8Z" transform="translate(-25.784 -8.382)" fill="#fff" fill-rule="evenodd"/><path d="M245.46,180.535V176.46h.174v4.066Z" transform="translate(-21.004 -16.276)" fill="#fff" fill-rule="evenodd"/><path d="M300.866,136l4.258,2.257c-.046.091-.1.183-.146.283l-4.258-2.257A.712.712,0,0,1,300.866,136Z" transform="translate(-25.771 -12.785)" fill="#fff" fill-rule="evenodd"/><path d="M217.828,98.215a12.656,12.656,0,0,1-1.389.512.649.649,0,0,1-.429-.365.585.585,0,0,1,.274-.493,12.326,12.326,0,0,1,1.425-.128A.7.7,0,0,1,217.828,98.215Z" transform="translate(-18.463 -9.485)" fill="#fff" fill-rule="evenodd"/><path d="M245.57,186.225V182.57h.146v3.655Z" transform="translate(-21.013 -16.803)" fill="#fff" fill-rule="evenodd"/><path d="M282.094,91.46l1.1,1.891a1.48,1.48,0,0,1-1.1-1.891Z" transform="translate(-24.158 -8.943)" fill="#fff" fill-rule="evenodd"/><path d="M172.11,122.582l-2.869,1.444-.091-.192,2.805-1.553Z" transform="translate(-14.42 -11.602)" fill="#fff" fill-rule="evenodd"/><path d="M285.08,87.417l2.741-1.827a1.252,1.252,0,0,0,.119.183L285.2,87.6Z" transform="translate(-24.422 -8.436)" fill="#fff" fill-rule="evenodd"/><path d="M290.27,105.815l2.531-1.955.2.292-2.668,1.736Z" transform="translate(-24.87 -10.012)" fill="#fff" fill-rule="evenodd"/><path d="M235.374,75.266c-.63.4-1.243.831-1.891,1.215a25.411,25.411,0,0,0-6.021,4.916,15.533,15.533,0,0,1-5.482,3.655l-1.2.521c2.047.6,3.207,3.235,2.257,4.879-.914,1.508-2.522,1.617-3.792.082a8.843,8.843,0,0,1,1.124-.365c.722-.137,1.572,0,1.782-1.033s-.228-1.663-1.4-2.257c0,.292-.164.63-.064.749.365.393.292.795-.119.914a1.325,1.325,0,0,1-1.1-.384c-.521-.7-.164-1.654.859-2.394-1.151.064-2.056-.137-2.184-1.471a7.686,7.686,0,0,1,1.188-.2A10.462,10.462,0,0,0,225.4,81.7c.914-.64,1.444-1.69,2.293-2.376,1.5-1.2,3.088-2.3,4.687-3.363a10.7,10.7,0,0,1,2.2-.914,2.147,2.147,0,0,1,.758,0A.492.492,0,0,1,235.374,75.266Z" transform="translate(-18.648 -7.524)" fill-rule="evenodd"/><path d="M214.883,79.485a18.1,18.1,0,0,1-1.718,1.535c-.6.42-1.517-.439-1.416-1.444a8.908,8.908,0,0,1,.566-2.595,12.253,12.253,0,0,1,7.767-7.31,43.2,43.2,0,0,0,9.558-4.962,12.043,12.043,0,0,1-1.827,1.928,50.169,50.169,0,0,1-4.486,2.641c-2.175,1.17-4.45,2.147-6.551,3.426a6.4,6.4,0,0,0-2.842,4.861c-.1.694-.11,1.371.914,1.581C214.865,79.266,214.874,79.375,214.883,79.485Z" transform="translate(-18.095 -6.635)" fill-rule="evenodd"/><path d="M234.962,69.917a5.7,5.7,0,0,1-.429.914A17.279,17.279,0,0,1,229.644,75a9.53,9.53,0,0,0-2.33,2.166c-1.2,1.5-1.965,3.344-3.655,4.413a7.785,7.785,0,0,1-5.875,1.188,5.985,5.985,0,0,1-.85-.32.435.435,0,0,0-.064-.274,6.816,6.816,0,0,1,1.471-.576c3.49-.521,6.487-1.827,8.361-5.053a6.3,6.3,0,0,1,2.622-2.257,14.208,14.208,0,0,0,4.112-3.235,12.1,12.1,0,0,1,1.3-1.17Z" transform="translate(-18.537 -7.081)" fill-rule="evenodd"/><path d="M215.82,81.634c.1-1.763,1.3-2.111,2.321-2.568a5.482,5.482,0,0,1,1.937-.4,5.382,5.382,0,0,0,4.888-3.49c.457-1.005.795-2.083,1.352-3.043a23.166,23.166,0,0,1,2.092-2.906c.21-.256.667-.3,1.06-.466.046.274.082.375.055.393-2.166,1.773-3.015,4.331-3.975,6.816a5.619,5.619,0,0,1-4.185,3.856,35.407,35.407,0,0,0-4.057,1.572A9.247,9.247,0,0,1,215.82,81.634Z" transform="translate(-18.447 -6.984)" fill-rule="evenodd"/><path d="M225.692,70.34a22.086,22.086,0,0,1-2.01,1.709c-1.645,1.106-3.4,2.074-5.025,3.225a5.555,5.555,0,0,0-2.184,3.372c0,.256-.338.457-.521.676-.164-.265-.493-.521-.5-.795a5.482,5.482,0,0,1,3.116-5.181c2.2-1.252,4.569-2.166,6.917-3.216C225.546,70.2,225.619,70.267,225.692,70.34Z" transform="translate(-18.414 -7.103)" fill-rule="evenodd"/><path d="M224.716,87.411a1.754,1.754,0,0,1-1.59-1.215c-.2-.731.457-.832.822-.914a7.858,7.858,0,0,0,4.285-3.079,12.793,12.793,0,0,1,2.6-1.882l.329.311c-.1.228-.146.612-.32.667-1.453.521-2.175,1.827-2.951,2.96a6.341,6.341,0,0,1-2.741,2.558c-.21.082-.32.4-.475.612Z" transform="translate(-19.074 -7.982)" fill-rule="evenodd"/><path d="M225.332,73.678c-.375.53-.694,1.1-1.106,1.581a9.347,9.347,0,0,1-5.053,3.161,2.741,2.741,0,0,1-.914-.082c.064-.32,0-.731.21-.914a4.075,4.075,0,0,1,1.133-.813c1.608-.914,3.353-1.5,4.633-2.906.174-.2.576-.174.868-.265Z" transform="translate(-18.657 -7.388)" fill-rule="evenodd"/><path d="M226.7,100.436l-.914-.411v-.311a2.677,2.677,0,0,1,.914,0c.585.164,1.334.265,1.352,1.078a1.206,1.206,0,0,1-.53.914,3.244,3.244,0,0,1-3.984-1.361.658.658,0,0,1,.119-.557.777.777,0,0,1,.667-.1c.411.228.749.6,1.16.822a5.865,5.865,0,0,0,1.2.366A4.248,4.248,0,0,0,226.7,100.436Z" transform="translate(-19.111 -9.649)" fill-rule="evenodd"/><path d="M298.25,57.95c.256-.914,4.761-3.655,5.857-3.6C302.261,55.629,300.763,57.466,298.25,57.95Z" transform="translate(-25.558 -5.741)" fill-rule="evenodd"/><path d="M299.6,62.3c.192-.265.32-.621.566-.795,1.59-1.1,3.189-2.175,4.815-3.216.228-.146.6-.082.914-.11a2.667,2.667,0,0,1-.557.74c-1.827,1.215-3.655,2.394-5.437,3.591Z" transform="translate(-25.675 -6.072)" fill-rule="evenodd"/><path d="M235.379,65.83c.576,1.005-.42,1.252-.831,1.6a2.01,2.01,0,0,1-2.458.375Z" transform="translate(-19.85 -6.732)" fill-rule="evenodd"/><path d="M306,78.357a3.381,3.381,0,0,1,2.915-1.937A3.326,3.326,0,0,1,306,78.357Z" transform="translate(-26.227 -7.645)" fill-rule="evenodd"/><path d="M235.706,61.459l-2.266,1.827a2.074,2.074,0,0,1,2.065-2.047A1.592,1.592,0,0,1,235.706,61.459Z" transform="translate(-19.967 -6.336)" fill-rule="evenodd"/><path d="M285.987,124.758a.843.843,0,0,1-.585-.146,3.182,3.182,0,0,1-.5-.722,5.486,5.486,0,0,1,.786-.32,6.011,6.011,0,0,0,.914-.155.74.74,0,0,0,0-.64,3.464,3.464,0,0,0-.914-.32l-.566-.164c.064-.192.1-.521.219-.557.539-.183,1.179-.493,1.636-.347.658.21,1.407.777,1.142,1.636a4.367,4.367,0,0,1-1.179,1.562C286.819,124.767,286.353,124.685,285.987,124.758Z" transform="translate(-24.407 -11.521)" fill-rule="evenodd"/><path d="M239.75,154.535c.365-.749,1.873.174,1.617-1.2-.046-.283-.7-.457-1.243-.758.064-.594.749-.74,1.288-.831a1.3,1.3,0,0,1,1.5,1.023,1.645,1.645,0,0,1-.813,2.019,1.535,1.535,0,0,1-2.348-.256Z" transform="translate(-20.511 -14.142)" fill-rule="evenodd"/><path d="M224.85,88.1Z" transform="translate(-19.226 -8.653)"/><path d="M298.591,69.609a83.671,83.671,0,0,0-7.447-20.495A87,87,0,0,0,235.151,5.136,83.688,83.688,0,0,0,207,3.034a85.8,85.8,0,0,0-53,24.972q-1.617,1.617-3.143,3.308v2.193c.859-.987,1.736-1.955,2.65-2.906a85.406,85.406,0,0,1,24.077-17.754,83.785,83.785,0,0,1,83.825,5.336,88.129,88.129,0,0,1,18.841,16.931,81.881,81.881,0,0,1,9.247,13.88,92.687,92.687,0,0,1,5.683,13.368,1.325,1.325,0,0,1-.667,1.891c-1.992,1.215-3.883,2.595-5.811,3.911.055.146.119.292.183.439a3.116,3.116,0,0,0,.831-.238c1.754-1.142,3.49-2.312,5.245-3.463.228-.146.484-.265.914-.521.731,3.289,1.5,6.4,2.111,9.622.393,2,.557,4.039.841,6.058a1.032,1.032,0,0,1-.676,1.252,32.61,32.61,0,0,0-3.28,2.065c-.183.119-.21.466-.3.7.283.055.64.247.859.146.822-.393,1.608-.914,2.4-1.343.347-.2.685-.439,1.16-.749l.2,3.308c-1.142.758-2.266,1.489-3.445,2.257-.411-.987-.713-1.827-1.106-2.613s-.768-1.343-1.827-.493c-1.215-3.454-2.394-6.771-3.545-10.051a.694.694,0,0,1,.164-.557c1.288-1.435.393-4.569-1.636-5.245.146.64.283,1.206.466,1.955-.914-.795-1.517-.457-2.239.055-3.5,2.467-7.027,4.9-10.544,7.31a.348.348,0,0,1-.393,0c.832-.6,1.636-1.234,2.476-1.827,2.979-2.056,5.948-4.1,8.945-6.131.658-.448.6-.914.375-1.572-1.023-2.741-2.028-5.482-3.061-8.224a1.38,1.38,0,0,1,.283-1.617,2.741,2.741,0,0,0,.411-1.754,4.806,4.806,0,0,0-1.736-3.308L264.536,65.9c-.238-1.827-1.471-1.626-2.549-1.581-1.636.064-3.271.21-4.907.356-.676.064-1.005-.292-1.389-.777-1.626-2.028-3.317-4.011-4.943-6.04a3.8,3.8,0,0,1-.822-1.636,2.741,2.741,0,0,0-1.827-2.431,3.079,3.079,0,0,0-3.454.914,3.564,3.564,0,0,0-.85,1.361,5.583,5.583,0,0,1-2.056,2.906,53.6,53.6,0,0,0-8.434,8.872c-2.038,2.558-3.956,5.217-5.994,7.776a1.992,1.992,0,0,1-1.288.475,9.77,9.77,0,0,1-1.316-.164,2.047,2.047,0,0,0-2.156,1.243,3.436,3.436,0,0,1-2.193,1.937c-1.087.411-2.092,1.033-3.143,1.535a1.882,1.882,0,0,1-.612.073c-.073.283-.146.567-.228.85.3.073.63.265.914.183a14.38,14.38,0,0,0,1.891-.813c.484-.219.914-.484,1.453-.74.064.137.119.21.146.283L221,81.524a4.249,4.249,0,0,0,.914-.722c.539-.749,1.005-1.544,1.48-2.339a2.5,2.5,0,0,1,2.741-1.179,10.38,10.38,0,0,0,1.581,0l3.088-4.7a90.3,90.3,0,0,1,9.868-11.732c.914-.978,2.074-1.736,3.07-2.659a2.366,2.366,0,0,0,.731-1.179,3.9,3.9,0,0,1,1.718-2.284,1.179,1.179,0,0,1,1.928.365,1.662,1.662,0,0,1,.265.5c.64,3.024,2.65,5.163,4.569,7.356a2.742,2.742,0,0,1,.493.585c1.151,2.394,3.235,2.2,5.345,2,1.188-.11,2.385-.192,3.582-.238a.8.8,0,0,1,.64.347c.292,1.115.512,2.257.758,3.39l-.283.064c-.164-.813-.3-1.645-.539-2.449-.091-.311-.42-.786-.64-.786a30.636,30.636,0,0,0-3.3.247c-.164,0-.32.247-.475.375a.735.735,0,0,0,.046.311h1.782c.914-.1,1.526.082,1.7,1.133s.5,2.357.7,3.545a2.64,2.64,0,0,1-.21.914h-.32c-.2-1.133-.384-2.275-.6-3.4a3.024,3.024,0,0,0-.411-1.252,1.444,1.444,0,0,0-1.06-.5,11.322,11.322,0,0,0-2.33.356,4.194,4.194,0,0,0-1.535.795c1.3.594,2.6,0,3.956.219.384,1.955,1.224,3.847,1.023,5.912l-.32.082c-.466-1.352-1.023-2.686-1.371-4.066-.283-1.078-.411-1.17-1.444-.914-1.261.32-2.577.429-4.066.667l.914,1.882-1.27,1.005-2.3-3.719c.914-.3,1.581-.585,2.3-.768.914-.238,1.115-.585.557-1.316-.85-1.115-1.827-2.138-2.686-3.216-1.042-1.279-2.111-2.531-3.079-3.874s-1.389-1.361-2.5-.411A64.573,64.573,0,0,0,233.57,73.867,30.476,30.476,0,0,0,231.34,78.5a1.142,1.142,0,0,0,1.307,1.59c1.471-.183,2.933-.484,4.413-.567A2.549,2.549,0,0,1,239.7,81.03a1.471,1.471,0,0,1-.521,2c-.777.53-1.562,1.06-2.3,1.581a4.706,4.706,0,0,0-5.6-.64c-1.709.914-3.39,1.919-5.391,2.01-1.343.064-2.741.082-3.5-1.444-.073-.128-.594-.174-.8-.064L216.1,87.216a1.444,1.444,0,0,1-.612.247c-1.133,0-1.5.758-1.9,1.636a14.055,14.055,0,0,1-1.371,2.275c-1.115,1.59-2.741,1.919-4.569,1.745-.365,0-.685-.475-1.033-.731.42-.192.914-.594,1.27-.521a3.116,3.116,0,0,0,3.207-1.133c.649-.768.53-1.27-.292-1.827l-1.91-1.215c-.53.621-1.151,1.361-1.827,2.083a10.817,10.817,0,0,1-1.636,1.718,2.193,2.193,0,0,1-1.553.274c-.274-.055-.53-.676-.594-1.069a1.827,1.827,0,0,1,.621-1.965,3.491,3.491,0,0,0,.868-1.234c.119-.219,0-.557,0-.85-.292.091-.722.091-.859.292a4.285,4.285,0,0,1-2.9,1.754,17.149,17.149,0,0,1,.859-1.827c.914-1.371,2.175-2.5,2.467-4.249a3.655,3.655,0,0,1,.594-1.069l.466.3a4.2,4.2,0,0,0,.1,1.234,5.484,5.484,0,0,0,.795,1.133,3.783,3.783,0,0,0,.74-1.014,7.511,7.511,0,0,0,.192-1.7,2.074,2.074,0,0,1,1.033-1.827c.174-.1.219-.42.329-.64-.3,0-.676-.155-.914,0-.768.439-1.462,1-2.22,1.453a3.134,3.134,0,0,1-.914.192,2.54,2.54,0,0,1,.091-.969c.42-.74.914-1.435,1.407-2.147a7.459,7.459,0,0,0,.512-.8.585.585,0,0,0,0-.512.521.521,0,0,0-.484,0,5.958,5.958,0,0,0-3.527,3.993A2.741,2.741,0,0,0,203,82.172a1.38,1.38,0,0,1,.164,1.572c-.439.795-.959,1.553-1.48,2.312s-1.133,1.389-1.562,2.156c-.667,1.206-.164,1.974,1.224,1.992h.722c.311.777-.238.914-.7,1.124-2.522,1.151-5.089,2.229-7.584,3.454-1.9.914-3.655,2.156-5.574,3.079a37.929,37.929,0,0,1-4.441,1.626,37.682,37.682,0,0,0-10.234,4.888c-2.467,1.764-2.5,1.7-4.861-.1-.356-.283-.685-.576-1.042-.841-1.325-.914-1.827-.831-2.741.521a13.322,13.322,0,0,1-1.827,2.485,8.15,8.15,0,0,1-3.938,2.156,10.81,10.81,0,0,0-3.034,1.608c-1.042.64-2.038,1.361-3.061,2.056a1.476,1.476,0,0,0,.091.311,7.73,7.73,0,0,0,1.215-.347c.959-.484,1.873-1.051,2.823-1.553a10.326,10.326,0,0,1,1.2-.429c.329,1.106.2,1.3-.685,1.416a1.626,1.626,0,0,0-.859.42,4.751,4.751,0,0,1-3.244,1.343,3.291,3.291,0,0,1-.914-.338c-.311-.11-.448-.119-.667-.192a2.851,2.851,0,0,0,0,.795.914.914,0,0,0,.475.429,4.514,4.514,0,0,0,4.1-.174l.32-.21c2.01-1.325,2.632-1.252,4.45.3a5.354,5.354,0,0,0,1.572.7c.228.1.539.1.685.256a1.626,1.626,0,0,0,2.166.228c1.5-.74,3.024-1.435,4.5-2.248a6.78,6.78,0,0,0,2.823-3.225,4.267,4.267,0,0,1,2.038-1.69c4.148-1.946,8.342-3.8,12.527-5.665a2.741,2.741,0,0,1,1.069-.228,5.61,5.61,0,0,0,4.678-2.284,4.4,4.4,0,0,1,1.38-1.224c2.988-1.453,6.076-2.741,8.973-4.322a3.577,3.577,0,0,1,3.966.174c1.617.914,3.18,0,4.4-1.115a20.4,20.4,0,0,0,2.2-2.942,3.8,3.8,0,0,1,1.023-1.033c1.827-1.014,3.655-1.992,5.546-2.924a2.284,2.284,0,0,1,1.581-.274c3.2,1.334,6.232.7,9.137-.85a5.775,5.775,0,0,1,4.331-.256c-2.065,1.517-3.993,2.924-5.9,4.34l.155.238c5.153-2.522,9.5-6.4,14.455-9.137a.11.11,0,0,1,0,.082c-.11.42-.228.831-.347,1.252.411-.155.831-.292,1.234-.457.238-.1.475-.219.749-.356.082.914-.073,1.16-1.124,1.827.5.722,0,1.051-.53,1.435q-5.976,3.9-11.878,7.885a1.261,1.261,0,0,1-1.562-.055c-.42-.265-.813-.576-1.334-.914-.055.347-.155.576-.091.731a3.71,3.71,0,0,0,2.522,1.444,2.394,2.394,0,0,1,2.074.612c2.367,1.827,4.8,3.545,7.182,5.336a7.757,7.757,0,0,1,.859,1,5.683,5.683,0,0,0,.914-.42c1.581-1.06,3.143-2.156,4.724-3.207a3.272,3.272,0,0,1,.85-.32h.055c.21-.256.411-.64.667-.685a8.077,8.077,0,0,1,1.937-.055.8.8,0,0,1,.548.429,3.3,3.3,0,0,1-1.188,2.677c.5-2.028-.055-2.741-1.965-2.367h-.073l-.5.4v.329l1.626.329c-.091.2-.128.585-.338.749a3.3,3.3,0,0,1-1.023.347v.274l1.517.53c-.694.493-1.352.978-2.028,1.444a9.891,9.891,0,0,0-1.215.822c-1.069,1.005-2.092.722-3.189,0-.411-.256-.813-.914-1.6-.311.375.311.658.585.978.8a17.791,17.791,0,0,0,1.882,1.261,1,1,0,0,0,.768.091,1.827,1.827,0,0,1,1.983.329c2.412,1.827,4.861,3.655,7.31,5.482a5.3,5.3,0,0,1,.585.548l-.548.768-.274.32,2.54,3.107.612-.411-.594.439h0l-1.087.731-30.034,20.376q-11.769,8-23.519,16.009-10.1,6.889-20.166,13.8a10.051,10.051,0,0,1-1.827.914c-.183.082-.475-.1-.694-.2a78.818,78.818,0,0,1-15.57-9.229c-3.125-2.421-6.131-5.026-9-7.748a79.394,79.394,0,0,1-13.212-16.922,83.615,83.615,0,0,1-9.96-25.813A87.956,87.956,0,0,1,130.584,86.8a80.882,80.882,0,0,1,3.545-22.679h-1.462c-.356,1.215-.694,2.449-1,3.655a86.4,86.4,0,0,0-2.485,23.592,88.979,88.979,0,0,0,4.1,23.94A80.207,80.207,0,0,0,140.4,131.45a88.631,88.631,0,0,0,14.62,18.96,85.524,85.524,0,0,0,16.136,12.317,84.064,84.064,0,0,0,23.647,9.667,77.184,77.184,0,0,0,16.447,2.275c3.856.073,7.712-.082,11.559-.311a71.765,71.765,0,0,0,17.562-3.417A88.147,88.147,0,0,0,277.164,148a85.214,85.214,0,0,0,16.191-24.223,87.462,87.462,0,0,0,5.281-54.166ZM208.826,89.665a12.326,12.326,0,0,1,1.425-.128,2.409,2.409,0,0,0,.119.475,12.657,12.657,0,0,1-1.389.512.649.649,0,0,1-.429-.365.585.585,0,0,1,.274-.493Zm-49.232,22.194,6.515-2.595c.055.119.11.219.174.329-.831.466-1.636.914-2.467,1.389-.64.338-1.307.612-1.955.914A1.827,1.827,0,0,1,159.594,111.859Zm2.613,1.3,5.181-2.367c.119.292.21.521.292.74C165.123,113.157,163.067,113.824,162.208,113.157Zm3.582.548-.091-.192,2.805-1.553.155.3Zm33.579-18.868c-2.038,1.033-4.093,2.01-6.1,3.079a2.741,2.741,0,0,0-1.087,1.206,3.527,3.527,0,0,1-3.838,1.928,4.1,4.1,0,0,0-2.257.356c-4.4,2.092-8.772,4.258-13.121,6.4a3.582,3.582,0,0,0-1.188,1.234c-.411.6-.667,1.3-1.051,1.919a1,1,0,0,1-1.416.512c-.7-.3-1.352-.777-1.2-1.489.247-1.1-.466-1.544-.914-2.184l-1.827,1.069c.256-.621.411-.969.557-1.325-.055-.064-.11-.119-.164-.192-.247.11-.594.155-.731.347-.831,1.179-2.156,1.526-3.335,2.1a9.667,9.667,0,0,1-1.389.576,1.827,1.827,0,0,1-.667,0c.091-.219.128-.521.283-.63a11.706,11.706,0,0,1,1.727-1.014,8.287,8.287,0,0,0,3.856-3.655c.74-1.316,1.27-1.453,2.449-.512.42.329.859.658,1.261,1.005,1.4,1.16,2.549,1.288,4,.164a35.407,35.407,0,0,1,11.531-5.629c2.686-.822,5.163-2.357,7.721-3.591,2.9-1.4,5.793-2.814,8.69-4.221a3.4,3.4,0,0,1,.521-.137,3.9,3.9,0,0,1-2.312,2.686ZM286.3,77.9l2.357,5.8-.274.11L286.054,78Zm7.228,7.154c.292.649.5,1.124.722,1.6l-.137.1a2.3,2.3,0,0,1-.356-.3c-.393-.612-.8-.53-1.343-.155q-4.258,2.942-8.543,5.848c-.8.548-1.654,1.033-2.476,1.544a2.452,2.452,0,0,1-.164-.256Zm-15.122,6.835c.2.32.475.594.658.914a5.065,5.065,0,0,1,.265.768l-.365.082-5.428-8.662.247-.219a2.166,2.166,0,0,1,.466.393Zm-6.341,9.969c.914-.685,1.827-1.352,2.787-1.965.247-.164.63-.1.959-.137a1.5,1.5,0,0,0,.091.347l-9.686,6.652c-.311-.42-.512-.914-.85-1.087a4.459,4.459,0,0,0-1.489-.155c.155-.228.192-.356.274-.411q5.565-3.719,11.147-7.41c.338-.228.7-.4,1.069-.6l2.531-1.955.2.292-2.668,1.736c-1.7,1.252-3.417,2.494-5.117,3.755-.238.174-.475.375-.74.594.466.585.9.758,1.489.311Zm-7.657,4.468c-.292.914-.539,1.654-.795,2.421-.868-.64-.64-1.827-2.1-1.7.969-1.078,1.891-.667,2.9-.758Zm8.059-17.946c1.179,1.928,2.421,3.819,3.655,5.7.914,1.453.914,1.553-.63,2.312l-.548.256c-1.754-2.568-3.49-5.08-5.172-7.611a.914.914,0,0,1,.073-.859C271.078,87.116,271.553,86.823,272.467,88.377Zm-.841-8.114,2.741-1.827a1.251,1.251,0,0,0,.119.183l-2.741,1.827ZM268.885,83.8l1.1,1.891A1.48,1.48,0,0,1,268.9,83.8Zm.457,6.935c1.234,1.7,2.494,3.372,3.655,5.08a15.6,15.6,0,0,1,.914,1.6c-.082.11-.11.174-.164.21-1.928,1.462-1.891,1.435-3.335-.5-1.334-1.827-2.741-3.49-4.139-5.236-.219-.265-.4-.557-.658-.914.32-.274.539-.512.795-.685,1.617-1.106,1.855-1.06,2.951.448Zm-3.454,1.827c1.435,1.827,2.851,3.728,4.258,5.61a1.517,1.517,0,0,1-1.023,2.54.8.8,0,0,1-.649-.228c-1.955-2.357-3.892-4.733-5.884-7.173a10.971,10.971,0,0,1,.978-1.033c1.032-.822,1.59-.768,2.339.238Zm17.178-21.875q-1.38-3.591-2.787-7.182l.292-.11,2.86,7.191Zm2.942-1.992-.283.119q-1.672-4.349-3.363-8.708l.356-.137Zm-19.746-2.988c3.591-2.494,7.2-4.962,10.809-7.438l5.3-3.655c.274.959.5,1.754.74,2.549l-.265.064c-.676-1.243-.868-1.279-2.111-.439q-7.045,4.751-14.108,9.494c-.228.155-.475.265-.722.4l-.238-.228a3.181,3.181,0,0,1,.612-.758ZM265.23,71.5c.274.119.658.155.795.365q2.348,3.655,4.569,7.31c.091.128,0,.375,0,.576-.219,0-.548,0-.63-.119q-2.494-3.9-4.943-7.849Zm-2.513,2.54,4.952,7.648-1.727,1.965L260.2,75.429a1.937,1.937,0,0,0,2.513-1.352Zm-3.326,2.083,5.382,8.169a23.135,23.135,0,0,1-2.239,1.471,1.087,1.087,0,0,1-1.005-.3c-1.617-2.184-3.189-4.4-4.76-6.643a.685.685,0,0,1,0-.64c.841-.676,1.681-1.307,2.622-2.019Zm1.444,10.6a9.631,9.631,0,0,1-1.91,1.517,4.267,4.267,0,0,1-.969-.658q-2.458-3.061-4.824-6.159a.8.8,0,0,1,.073-.795,14.885,14.885,0,0,1,2.2-1.389c.164-.082.63.2.8.429,1.416,1.827,2.833,3.655,4.185,5.574.283.448.612,1.279.439,1.517Zm-3.993-14.665c.557-.384.969-.411,1.234.32a2.494,2.494,0,0,0,.311.475c.74,1.179.64,1.517-.5,2.312-2.549,1.763-5.089,3.554-7.62,5.327a1.378,1.378,0,0,1-.356.137c-.064-2.019-.064-2.019-1.955-2.549,1.2-.831,2.266-1.59,3.353-2.321C253.151,74.515,255.006,73.327,256.842,72.057Zm-14.62,3.874c-1.617.155-3.262.082-4.888.091a2.028,2.028,0,0,1-.813-.238c-.841-.411-1.069-.914-.539-1.709,1.928-2.741,3.911-5.391,5.884-8.068.64-.868,1.316-1.718,2.01-2.531.969-1.124,1.974-2.2,3.1-3.454.475.53.813.914,1.142,1.288,1.553,1.763,3.079,3.545,4.623,5.309.777.914.722,1.106-.411,1.462l-.365.11c-1.827.539-1.891.658-.987,2.367.567,1.06,1.243,2.065,1.919,3.171-1.325.914-2.641,1.827-3.975,2.741a.667.667,0,0,1-.6,0c-1.974-1.2-4.039-.749-6.122-.539Zm3.143,4.1c.777-1.005,1.955-1.206,3.527-.512-.274.85-.539,1.718-.813,2.586l-.283-.1c-.694-1.8-.914-1.974-2.458-1.974Zm-.914,18.11c-1.672,1.179-1.69,1.215-3.308,0-1.974-1.425-3.892-2.924-5.848-4.368-.6-.448-.594-.914-.091-1.307.667-.548,1.407-1.023,2.074-1.508a5.822,5.822,0,0,1,.987.521c2.111,1.718,4.221,3.436,6.3,5.19.676.64.621.914-.155,1.471Zm5.035-4.2c-.228,1.718-1.827,2.083-3.043,2.741-.356.183-1.234-.247-1.681-.621-2.092-1.745-4.112-3.564-6.177-5.382a7.164,7.164,0,0,1,3.564-2.54,3.536,3.536,0,0,0,1.626-1.033,8.425,8.425,0,0,1,3.573-2.412A11.659,11.659,0,0,0,249,83.378c.8-.557,1.626-1.078,2.449-1.581a.914.914,0,0,1,1.343.283c1.5,1.9,3.006,3.783,4.477,5.7a1.124,1.124,0,0,1-.292,1.827c-.813.484-1.727.813-2.595,1.224a1.069,1.069,0,0,0-.429.311,6.213,6.213,0,0,1-4.5,2.8Zm1.763.758a2.415,2.415,0,0,1,.055-.274l12.6-8.47.119.183L262.7,87.326c0,.073.073.146.119.219l3.445-1.663a1,1,0,0,1,.228.155c1.106,1.361,1.115,1.38-.32,2.367-4.157,2.887-8.333,5.747-12.792,8.79.457-1.937-.4-2.668-2.166-2.494Zm2.741,4.569a4.7,4.7,0,0,0,1.115-.786,6.3,6.3,0,0,1,3.39-2.3c.457-.119.841-.612,1.234-.914a10.877,10.877,0,0,1,.831-.768c1.215-.8,1.389-.74,2.312.375,1.425,1.745,2.9,3.454,4.349,5.172.914,1.1.832,1.608-.32,2.385s-2.431,1.736-3.71,2.476a11.193,11.193,0,0,1-2.3.722,2.476,2.476,0,0,1-2.138,2.056.832.832,0,0,1-.576-.21q-3.262-2.915-6.5-5.848a5.742,5.742,0,0,1-.484-.585c.95-.676,1.873-1.215,2.778-1.818Zm-3.838,5.61L248,103.234c1-1.261,2.23-1.827,3.445-.667,1.827,1.672,3.783,3.171,5.693,4.742.439.375.777.831.375,1.4a1.224,1.224,0,0,1-1.827.42c-1.9-1.453-3.719-2.906-5.546-4.294Zm5.82,6.1c1.882-1.279,3.308-3.235,5.921-2.851l.2.265-1.142.676.576.749c-2.038,1.882-3.628,2.266-5.574,1.115Zm-71.408,56.706-2.741-1.06L299.057,86.6a2.9,2.9,0,0,1-1.334,3.892Q284.4,99.515,271.1,108.552q-11.065,7.493-22.112,15.031L228.7,137.407,197.87,158.423c-4.1,2.805-8.224,5.61-12.317,8.434a12.3,12.3,0,0,0-1.005.786Zm49.341,3.536c-1.617.4-3.253.7-5.016,1.069V165.5q-.064-6.926-.174-13.834a1.718,1.718,0,0,1,.914-1.736c.411-.238.567-.914.959-1.206,1.023-.813,2.12-1.535,3.18-2.3l.384.183V152.4c.1,5.985.21,11.979.283,17.973-.082.247-.347.722-.566.8Zm1.1-24.305h.4a123.607,123.607,0,0,1,0,13.77q-.21-6.953-.4-13.816Zm.457,14.62h.174V165.6h-.174Zm.247,9.229h-.146v-3.655h.146ZM259,160.926,238.55,149.45c.082-.146.146-.283.228-.42l20.385,11.6Zm1.288-.85a.722.722,0,0,1-.594-.046c-4.322-2.458-8.644-4.943-12.966-7.419L239.07,148.2a1.928,1.928,0,0,1-.219-2.741l.914-.713a1.288,1.288,0,0,1,1.873,0,13.1,13.1,0,0,0,1.827,1.142l18.275,10.49c.713.4,1.453.749,2.449,1.261-1.5.8-2.686,1.581-3.938,2.367ZM275.5,133.4c-.055,3.655-.128,7.255-.183,10.873,0,.914.11,1.91.082,2.851a1.827,1.827,0,0,1-.4,1.151c-1.517,1.489-3.079,2.924-4.642,4.368a3.418,3.418,0,0,1-.539.311c.064-.822.164-1.489.164-2.166,0-4.806-.119-9.622-.1-14.428,0-3.591.183-7.191.274-10.782v-.768c.046-.768-.164-1.718.2-2.293a8,8,0,0,1,3.417-2.915c.484-.228,1.005-.384,1.69-.63a26.006,26.006,0,0,1,.183,2.686c-.046,3.847-.11,7.758-.183,11.668Zm1.288,12.4a4.341,4.341,0,0,1-.265,1l-.137-.082V122.952h.338a6.881,6.881,0,0,1,.119.914q0,8.744-.046,17.507c-.037,1.4-.018,2.9-.046,4.349Zm13.423-18.731-4.258-2.257c0-.1.1-.192.146-.283l4.258,2.257c-.082.018-.137.11-.183.21Zm.594-.987c-.914-.5-1.763-.914-2.613-1.425l-8.315-4.742a1.663,1.663,0,0,1-.42-2.1,1.636,1.636,0,0,1,1.709-.768q5.482,2.823,11.129,5.729Zm8.013-27.8a1.142,1.142,0,0,1-.521.713c-6.4,4.34-12.792,8.653-19.133,12.993-7.31,4.952-14.5,9.932-21.774,14.875q-11.6,7.885-23.245,15.725c-7.931,5.382-15.862,10.745-23.757,16.164-5.482,3.792-10.965,7.666-16.447,11.476a1.334,1.334,0,0,1-1.014.183c-1.983-.539-3.947-1.142-5.921-1.736a1.384,1.384,0,0,0-.073-.311c37.116-25.932,74.926-50.867,112.133-76.625l.274.2c-.238,2.047-.375,4.157-.557,6.268Z" transform="translate(-10.969 -1.281)"/></g></g></svg>