<?xml version="1.0" standalone="no"?>
<!DOCTYPE svg PUBLIC "-//W3C//DTD SVG 20010904//EN"
 "http://www.w3.org/TR/2001/REC-SVG-20010904/DTD/svg10.dtd">
<svg version="1.0" xmlns="http://www.w3.org/2000/svg"
 width="341.000000pt" height="341.000000pt" viewBox="0 0 341.000000 341.000000"
 preserveAspectRatio="xMidYMid meet">
<metadata>
Created by potrace 1.11, written by Peter Selinger 2001-2013
</metadata>
<g transform="translate(0.000000,341.000000) scale(0.100000,-0.100000)"
fill="#000000" stroke="none">
<path d="M2113 2858 c-12 -6 -29 -25 -37 -42 -8 -17 -59 -76 -113 -132 -54
-55 -134 -148 -178 -206 -79 -105 -81 -107 -121 -107 -35 -1 -46 -6 -67 -35
-14 -18 -35 -36 -47 -39 -18 -4 -16 0 11 35 18 22 38 42 46 45 7 3 13 12 13
20 0 14 -3 14 -22 1 -13 -9 -38 -30 -57 -47 -19 -18 -50 -39 -69 -47 -34 -14
-34 -14 -18 -39 9 -14 13 -25 8 -25 -8 0 -42 36 -42 45 0 3 21 16 48 29 26 14
72 48 101 77 30 28 80 68 110 88 40 25 51 36 38 39 -25 5 -97 -39 -165 -103
-66 -60 -131 -95 -177 -94 -25 1 -23 2 12 9 65 13 99 36 144 95 23 30 70 78
105 105 63 49 107 104 67 82 -10 -6 -26 -20 -36 -31 -9 -12 -42 -37 -72 -56
-30 -20 -60 -45 -66 -57 -26 -48 -111 -103 -149 -95 -8 2 3 9 25 17 67 22 82
38 125 127 22 46 48 92 56 101 12 11 13 17 5 20 -16 5 -33 -18 -78 -106 -45
-89 -71 -107 -156 -111 -10 -1 -28 -12 -40 -24 -12 -13 -33 -26 -46 -30 l-23
-6 23 25 c14 15 17 24 9 24 -17 0 -8 69 14 103 10 14 64 50 127 83 112 58 195
112 186 120 -2 3 -31 -11 -63 -30 -32 -20 -93 -49 -135 -67 -83 -33 -138 -79
-169 -139 -22 -45 -32 -98 -20 -105 6 -4 -3 -20 -20 -36 -36 -37 -47 -72 -31
-106 11 -23 8 -32 -29 -86 -22 -33 -40 -64 -40 -68 0 -5 12 -15 28 -23 l27
-15 -75 -34 c-41 -19 -80 -36 -85 -38 -6 -2 -44 -23 -85 -46 -41 -23 -104 -51
-140 -63 -85 -29 -207 -86 -245 -114 -49 -37 -59 -37 -110 0 -27 19 -52 34
-57 34 -5 0 -23 -20 -40 -45 -25 -35 -50 -54 -113 -85 -90 -44 -158 -90 -133
-90 8 0 36 11 61 25 25 14 48 22 51 16 10 -16 -66 -55 -107 -54 -44 1 -45 -17
-2 -29 22 -5 41 -2 70 12 50 24 64 25 93 5 12 -9 39 -22 59 -29 36 -13 42 -12
106 21 49 24 76 46 99 78 28 39 46 50 188 114 86 39 167 71 180 71 25 0 86 34
98 55 9 16 234 125 259 125 9 0 32 -5 50 -12 44 -16 84 5 132 68 24 32 55 56
105 81 l70 35 46 -16 c60 -22 67 -21 136 14 39 21 70 30 94 28 l34 -3 -60 -44
c-52 -37 -60 -48 -56 -69 3 -17 1 -23 -7 -18 -6 4 -11 1 -11 -8 0 -19 38 -46
66 -46 11 0 59 -28 105 -62 106 -79 123 -94 115 -106 -9 -15 43 -52 73 -52 36
0 213 -134 204 -155 -3 -9 6 -30 20 -48 l25 -33 -122 -81 c-155 -104 -477
-323 -876 -596 -173 -119 -401 -273 -507 -344 -105 -70 -194 -133 -197 -140
-16 -36 342 -144 559 -169 107 -13 417 -6 501 10 12 3 39 7 59 10 240 38 531
167 779 344 95 68 283 250 358 347 254 326 389 695 405 1113 3 92 2 152 -4
152 -5 0 -30 -13 -55 -29 l-45 -29 -17 39 c-11 24 -24 39 -35 39 -27 0 -98
202 -83 235 12 27 6 63 -16 88 -19 21 -33 22 -26 2 4 -9 0 -15 -9 -15 -9 0
-15 9 -14 23 0 12 -16 66 -36 119 -21 57 -32 100 -27 103 16 10 11 75 -7 100
l-18 23 -198 -134 c-177 -120 -200 -133 -213 -119 -12 12 -49 18 -104 17 -3 0
-19 -3 -36 -6 -30 -7 -35 -3 -103 81 -39 48 -71 95 -71 104 0 36 -60 65 -97
47z m827 -60 c0 -16 -3 -19 -9 -10 -8 13 -17 7 -279 -171 -40 -27 -75 -47 -77
-45 -7 7 342 248 358 248 4 0 7 -10 7 -22z m-715 -175 c65 -76 66 -78 43 -88
-50 -21 -51 -24 -23 -72 15 -24 24 -51 21 -58 -3 -8 -22 -25 -43 -38 -28 -18
-41 -22 -51 -14 -9 7 -59 10 -131 9 -91 -2 -121 0 -129 11 -10 11 7 39 81 138
98 132 146 189 158 189 4 0 37 -35 74 -77z m382 -235 c52 -82 66 -108 56 -108
-4 0 -15 12 -24 28 -8 15 -32 53 -53 85 -20 31 -33 57 -28 57 5 0 27 -28 49
-62z m-223 -8 c4 -5 -2 -14 -15 -20 -12 -7 -28 -17 -33 -22 -65 -54 -141 -91
-121 -58 3 5 -3 15 -14 22 -18 11 -15 15 42 54 53 36 67 42 97 37 19 -3 39 -9
44 -13z m161 -53 c54 -83 60 -103 41 -122 -13 -14 -21 -7 -74 67 -54 75 -57
84 -41 92 11 5 19 13 19 18 0 20 18 3 55 -55z m-57 -71 c52 -82 54 -98 12
-109 -21 -5 -29 2 -91 92 l-43 63 28 25 c16 13 32 21 36 16 4 -4 30 -44 58
-87z m-122 2 c10 -13 36 -47 58 -77 l39 -55 -23 -18 c-12 -10 -26 -18 -31 -18
-10 0 -119 142 -119 155 0 10 32 34 46 35 6 0 19 -10 30 -22z m-59 -75 c76
-92 91 -123 63 -123 -11 0 -129 157 -123 164 12 12 22 5 60 -41z m487 -95 c20
-32 34 -58 32 -58 -5 0 -58 79 -81 120 -20 36 15 -9 49 -62z m392 50 c4 -7 3
-8 -5 -4 -6 4 -20 2 -29 -6 -15 -12 -16 -11 -3 5 16 20 27 22 37 5z m-597 -22
c10 -11 -5 -25 -77 -74 l-89 -61 -21 29 -21 28 55 36 c30 20 58 35 62 32 4 -2
18 2 32 10 32 17 45 17 59 0z m197 -151 c23 -40 23 -41 4 -53 -20 -12 -16 -17
-112 123 l-28 40 21 17 c20 17 22 16 56 -35 19 -28 46 -70 59 -92z m284 111
c0 -2 -12 -11 -27 -20 l-28 -17 24 20 c23 21 31 25 31 17z m-380 -110 c54 -74
58 -82 42 -94 -9 -7 -22 -11 -28 -10 -6 2 -39 38 -74 81 -58 75 -61 80 -45 97
9 10 23 16 31 13 8 -3 41 -42 74 -87z m320 70 c0 -2 -8 -10 -17 -17 -16 -13
-17 -12 -4 4 13 16 21 21 21 13z m-162 -41 c-3 -3 -9 2 -12 12 -6 14 -5 15 5
6 7 -7 10 -15 7 -18z m-239 -61 c65 -81 70 -94 45 -114 -17 -15 -12 -20 -99
84 l-58 70 23 18 c12 10 24 18 25 18 2 0 31 -34 64 -76z m-673 24 c50 -55 49
-62 -4 -22 -28 20 -49 41 -46 46 9 14 20 9 50 -24z m608 -69 c32 -38 59 -77
60 -86 1 -18 -100 -93 -125 -93 -9 0 -24 -11 -33 -25 -19 -29 -39 -32 -64 -7
-10 9 -44 41 -76 70 -32 29 -57 54 -55 56 2 1 20 13 39 26 19 14 44 33 55 43
11 11 34 25 50 32 17 7 39 23 49 34 11 12 24 21 30 20 6 0 37 -32 70 -70z
m176 -53 c0 -2 -8 -10 -17 -17 -16 -13 -17 -12 -4 4 13 16 21 21 21 13z m40
-30 c-184 -125 -185 -125 -193 -111 -4 8 -14 12 -22 9 -31 -12 -13 6 48 48 83
59 92 64 83 49 -15 -24 25 -22 56 3 18 14 40 26 48 26 8 0 -1 -11 -20 -24z
m-482 -63 c83 -67 102 -86 102 -100 0 -17 -30 -29 -39 -16 -3 5 -26 23 -51 40
-25 17 -61 45 -80 62 -29 25 -33 32 -20 41 25 16 39 12 88 -27z m252 -72 c0
-3 -4 -12 -8 -18 -6 -9 -12 -8 -24 7 -12 13 -13 20 -5 23 14 5 37 -2 37 -12z
m-64 -43 c-5 -33 -48 -62 -81 -54 -26 7 -26 8 -10 26 16 17 72 49 87 50 5 0 6
-10 4 -22z m527 -225 c51 -25 107 -55 124 -65 32 -19 32 -20 18 -49 -9 -16
-20 -29 -26 -29 -14 0 -232 129 -241 143 -8 13 9 47 23 47 6 0 52 -21 102 -47z
m-212 -20 c0 -19 -2 -271 -4 -485 l-2 -128 -52 -52 c-29 -29 -55 -49 -58 -46
-6 6 -7 491 -2 604 3 56 15 77 62 106 38 23 55 23 56 1z m26 -208 c0 -8 -4
-12 -9 -9 -5 3 -6 10 -3 15 9 13 12 11 12 -6z m0 -40 c0 -8 -4 -12 -9 -9 -5 3
-6 10 -3 15 9 13 12 11 12 -6z m0 -40 c0 -8 -4 -12 -9 -9 -5 3 -6 10 -3 15 9
13 12 11 12 -6z m0 -200 c0 -8 -4 -12 -9 -9 -5 3 -6 10 -3 15 9 13 12 11 12
-6z m-1 -45 c0 -12 -4 -16 -9 -11 -5 5 -6 14 -3 20 10 15 12 14 12 -9z m-509
-167 c154 -88 219 -131 213 -138 -6 -7 -24 -20 -42 -29 l-33 -18 -85 50 c-108
64 -151 88 -277 159 -116 65 -130 85 -88 120 l27 24 31 -21 c18 -11 132 -77
254 -147z m-429 -158 l3 -265 -23 -9 c-13 -4 -40 -11 -60 -14 l-37 -6 0 239 0
239 51 45 c29 25 54 43 57 40 3 -2 7 -124 9 -269z m29 173 c-2 -13 -4 -5 -4
17 -1 22 1 32 4 23 2 -10 2 -28 0 -40z m98 24 c-3 -3 -11 0 -18 7 -9 10 -8 11
6 5 10 -3 15 -9 12 -12z m55 -28 c0 -2 -9 0 -20 6 -11 6 -20 13 -20 16 0 2 9
0 20 -6 11 -6 20 -13 20 -16z m50 -30 c0 -2 -9 0 -20 6 -11 6 -20 13 -20 16 0
2 9 0 20 -6 11 -6 20 -13 20 -16z m-182 -359 c1 -19 -3 -37 -8 -40 -6 -4 -10
11 -10 34 0 50 16 55 18 6z"/>
<path d="M1682 2793 c-7 -3 -17 -14 -23 -25 -9 -18 -8 -18 10 -9 32 18 43 44
13 34z"/>
<path d="M1663 2683 c-36 -18 -43 -31 -15 -28 27 2 50 15 56 31 7 18 0 17 -41
-3z"/>
<path d="M1455 2592 c-128 -58 -165 -90 -165 -143 0 -42 15 -43 34 -1 13 28
38 51 101 92 47 30 87 61 89 68 3 6 4 12 3 11 -1 0 -29 -13 -62 -27z"/>
<path d="M1472 2538 c-6 -7 -35 -26 -66 -42 -58 -30 -73 -56 -33 -56 39 0 127
72 127 104 0 11 -17 6 -28 -6z"/>
</g>
</svg>
